<svg xmlns="http://www.w3.org/2000/svg" xmlns:xlink="http://www.w3.org/1999/xlink" width="1240" height="691.906" viewBox="0 0 1240 691.906">
  <defs>
    <clipPath id="clip-path">
      <circle id="Elipse_17711" data-name="Elipse 17711" cx="17.472" cy="17.472" r="17.472" fill="none"/>
    </clipPath>
    <linearGradient id="linear-gradient" x1="0.412" y1="-0.826" x2="0.577" y2="2.17" gradientUnits="objectBoundingBox">
      <stop offset="0" stop-color="#a94423"/>
      <stop offset="1" stop-color="#50161c"/>
    </linearGradient>
    <linearGradient id="linear-gradient-2" x1="0.411" y1="1.08" x2="0.548" y2="-0.237" xlink:href="#linear-gradient"/>
    <linearGradient id="linear-gradient-3" x1="0.208" y1="2.478" x2="0.806" y2="-1.624" xlink:href="#linear-gradient"/>
    <linearGradient id="linear-gradient-4" x1="0.212" y1="2.299" x2="0.891" y2="-1.817" xlink:href="#linear-gradient"/>
    <clipPath id="clip-path-2">
      <circle id="Elipse_17714" data-name="Elipse 17714" cx="16.008" cy="16.008" r="16.008" fill="none"/>
    </clipPath>
    <linearGradient id="linear-gradient-5" x1="-0.334" y1="-7.676" x2="-0.03" y2="-4.641" gradientUnits="objectBoundingBox">
      <stop offset="0" stop-color="#e5908c"/>
      <stop offset="1" stop-color="#df6f63"/>
    </linearGradient>
    <linearGradient id="linear-gradient-6" x1="0.758" y1="0.191" x2="4.495" y2="-4.346" gradientUnits="objectBoundingBox">
      <stop offset="0" stop-color="#ecb9b8"/>
      <stop offset="1" stop-color="#e5908c"/>
    </linearGradient>
    <linearGradient id="linear-gradient-7" x1="0.036" y1="1.03" x2="3.368" y2="-4.022" xlink:href="#linear-gradient-6"/>
    <linearGradient id="linear-gradient-8" x1="0.375" y1="0.718" x2="0.717" y2="-0.122" xlink:href="#linear-gradient-6"/>
    <linearGradient id="linear-gradient-9" x1="0.445" y1="0.532" x2="1.069" y2="-0.752" xlink:href="#linear-gradient-6"/>
    <clipPath id="clip-path-3">
      <circle id="Elipse_17718" data-name="Elipse 17718" cx="18.093" cy="18.093" r="18.093" fill="none"/>
    </clipPath>
    <linearGradient id="linear-gradient-10" x1="-3278.828" y1="351.998" x2="-3279.329" y2="355.133" xlink:href="#linear-gradient-6"/>
    <linearGradient id="linear-gradient-11" x1="0.348" y1="1.13" x2="0.81" y2="-0.923" xlink:href="#linear-gradient-6"/>
    <linearGradient id="linear-gradient-12" x1="-1424.246" y1="-1.705" x2="-1424.471" y2="1.269" xlink:href="#linear-gradient-6"/>
    <clipPath id="clip-path-4">
      <circle id="Elipse_17721" data-name="Elipse 17721" cx="16.281" cy="16.281" r="16.281" fill="none"/>
    </clipPath>
    <linearGradient id="linear-gradient-13" x1="1.014" y1="-1.982" x2="0.215" y2="2.476" xlink:href="#linear-gradient-6"/>
    <linearGradient id="linear-gradient-14" x1="0.438" y1="0.528" x2="0.859" y2="-1.053" xlink:href="#linear-gradient-6"/>
    <linearGradient id="linear-gradient-15" x1="0.334" y1="0.914" x2="2.241" y2="-4.018" xlink:href="#linear-gradient-6"/>
    <linearGradient id="linear-gradient-16" x1="0.545" y1="0.461" x2="2.684" y2="-4.514" xlink:href="#linear-gradient-6"/>
    <linearGradient id="linear-gradient-17" x1="3.959" y1="-6.327" x2="3.274" y2="-4.974" xlink:href="#linear-gradient-5"/>
    <linearGradient id="linear-gradient-18" x1="3.89" y1="-6.191" x2="3.204" y2="-4.838" xlink:href="#linear-gradient-5"/>
    <linearGradient id="linear-gradient-19" x1="13.629" y1="-24.359" x2="10.926" y2="-19.244" xlink:href="#linear-gradient-5"/>
    <linearGradient id="linear-gradient-20" x1="7.638" y1="-29.769" x2="6.22" y2="-23.753" xlink:href="#linear-gradient-5"/>
    <linearGradient id="linear-gradient-21" x1="-554.701" y1="-50.008" x2="-554.149" y2="-48.931" xlink:href="#linear-gradient-6"/>
    <linearGradient id="linear-gradient-22" x1="-2165.779" y1="0.5" x2="-2164.778" y2="0.5" gradientUnits="objectBoundingBox">
      <stop offset="0" stop-color="#0f005b"/>
      <stop offset="1" stop-color="#1e168c"/>
    </linearGradient>
    <linearGradient id="linear-gradient-23" x1="-1567.187" y1="1.602" x2="-1566.151" y2="-1.187" xlink:href="#linear-gradient-6"/>
    <linearGradient id="linear-gradient-24" x1="-1335.886" y1="0.5" x2="-1334.896" y2="0.5" xlink:href="#linear-gradient-22"/>
    <linearGradient id="linear-gradient-25" x1="-699.239" y1="1.698" x2="-698.776" y2="-1.193" xlink:href="#linear-gradient-6"/>
    <linearGradient id="linear-gradient-26" x1="-2051.328" y1="1.856" x2="-2051.068" y2="0.807" xlink:href="#linear-gradient-6"/>
    <linearGradient id="linear-gradient-27" x1="-1423.803" y1="-113.598" x2="-1422.272" y2="-115.853" xlink:href="#linear-gradient-6"/>
    <linearGradient id="linear-gradient-28" x1="-5376.339" y1="-361.131" x2="-5370.554" y2="-368.285" xlink:href="#linear-gradient-6"/>
    <linearGradient id="linear-gradient-29" x1="-1604.55" y1="-139.057" x2="-1602.966" y2="-136.047" xlink:href="#linear-gradient-6"/>
    <linearGradient id="linear-gradient-30" x1="0" y1="0.499" x2="1.002" y2="0.499" xlink:href="#linear-gradient-6"/>
    <linearGradient id="linear-gradient-31" x1="-0.799" y1="1.008" x2="1.026" y2="0.358" xlink:href="#linear-gradient-6"/>
  </defs>
  <g id="Grupo_135475" data-name="Grupo 135475" transform="translate(-180 -7000)">
    <path id="Trazado_194626" data-name="Trazado 194626" d="M18,0H1222c9.941,0,18,11.152,18,24.909V667c0,13.757-8.059,24.909-18,24.909H18c-9.941,0-18-11.152-18-24.909V24.909C0,11.152,8.059,0,18,0Z" transform="translate(180 7000)" fill="#f3f9ff"/>
    <g id="Grupo_134859" data-name="Grupo 134859" transform="translate(0 6935.144)">
      <g id="Grupo_134797" data-name="Grupo 134797" transform="translate(30.333)">
        <g id="Rectángulo_44198" data-name="Rectángulo 44198" transform="translate(285.333 162.816)" fill="#fff" stroke="#6677d6" stroke-width="2">
          <rect width="454.191" height="241.886" rx="31" stroke="none"/>
          <rect x="1" y="1" width="452.191" height="239.886" rx="30" fill="none"/>
        </g>
        <g id="Rectángulo_44200" data-name="Rectángulo 44200" transform="translate(285.333 462.44)" fill="#fff" stroke="#b0a2cd" stroke-width="2">
          <rect width="454.191" height="241.886" rx="32" stroke="none"/>
          <rect x="1" y="1" width="452.191" height="239.886" rx="31" fill="none"/>
        </g>
        <g id="Rectángulo_44201" data-name="Rectángulo 44201" transform="translate(800.333 463.633)" fill="#fff" stroke="#6677d6" stroke-width="2">
          <rect width="454.191" height="241.886" rx="31" stroke="none"/>
          <rect x="1" y="1" width="452.191" height="239.886" rx="30" fill="none"/>
        </g>
        <g id="Rectángulo_44202" data-name="Rectángulo 44202" transform="translate(800.333 162.816)" fill="#fff" stroke="#b0a2cd" stroke-width="2">
          <rect width="454.191" height="241.886" rx="31" stroke="none"/>
          <rect x="1" y="1" width="452.191" height="239.886" rx="30" fill="none"/>
        </g>
        <path id="Trazado_194160" data-name="Trazado 194160" d="M53.157,9H91.578A69.878,69.878,0,0,1,21.7,78.878V40.409A31.433,31.433,0,0,1,53.157,9Z" transform="translate(263.3 154.518)" fill="#6677d6"/>
        <path id="Trazado_194157" data-name="Trazado 194157" d="M208.476,206.375H79.69a10.231,10.231,0,0,1-10.207-10.9A149.654,149.654,0,0,1,207.808,57.15a10.207,10.207,0,0,1,10.8,10.184V196.119A10.208,10.208,0,0,1,208.476,206.375Z" transform="translate(541.75 220.418)" fill="#4e2e8e"/>
        <path id="Trazado_194158" data-name="Trazado 194158" d="M140.2,196.157V67.371a10.207,10.207,0,0,1,10.9-10.207A149.7,149.7,0,0,1,289.424,195.489a10.231,10.231,0,0,1-10.207,10.9H150.431A10.207,10.207,0,0,1,140.2,196.157Z" transform="translate(639.718 220.429)" fill="#b0a2cd"/>
        <path id="Trazado_194159" data-name="Trazado 194159" d="M150.421,127.24H279.207a10.231,10.231,0,0,1,10.207,10.9A149.7,149.7,0,0,1,151.089,276.465a10.208,10.208,0,0,1-10.9-10.208V137.471a10.207,10.207,0,0,1,10.231-10.231Z" transform="translate(639.704 317.511)" fill="#4e2e8e"/>
        <path id="Trazado_194164" data-name="Trazado 194164" d="M218.653,137.451V266.237a10.207,10.207,0,0,1-10.875,10.207A149.654,149.654,0,0,1,69.453,138.119a10.231,10.231,0,0,1,10.207-10.9H208.446a10.184,10.184,0,0,1,10.207,10.231Z" transform="translate(541.709 317.484)" fill="#b0a2cd"/>
        <circle id="Elipse_17708" data-name="Elipse 17708" cx="132.348" cy="132.348" r="132.348" transform="translate(637.816 300.599)" fill="#fff"/>
        <path id="Trazado_194161" data-name="Trazado 194161" d="M291.164,40.409V78.878A69.854,69.854,0,0,1,221.31,9h38.445a31.409,31.409,0,0,1,31.409,31.409Z" transform="translate(963.027 153.759)" fill="#b0a2cd"/>
        <path id="Trazado_194163" data-name="Trazado 194163" d="M21.71,245.735V207.29a69.854,69.854,0,0,1,69.854,69.854H53.143A31.409,31.409,0,0,1,21.71,245.735Z" transform="translate(263.29 428.375)" fill="#b0a2cd"/>
        <path id="Trazado_194162" data-name="Trazado 194162" d="M259.755,277.144H221.31a69.854,69.854,0,0,1,69.854-69.854v38.445a31.386,31.386,0,0,1-31.409,31.41Z" transform="translate(963.027 427.182)" fill="#6677d6"/>
        <g id="ILUSTRACION_INFOGRA-13" data-name="ILUSTRACION INFOGRA-13" transform="translate(621.135 273.4)">
          <path id="Trazado_194359" data-name="Trazado 194359" d="M244.351,241.464a93.689,93.689,0,0,1-16.467,13.365c-42.65,28.479-91.406,20.264-106.471,17.46-24.322-4.492-44.847-7.719-62.48-23.652C18.851,212.427,20.8,136.954,51.487,90.11c3.636-5.547,34.212-50.878,83.067-57.256,1.241-.161,2.085-.248,2.867-.335,7.557-.794,54.389-4.964,92.585,26.978a114.338,114.338,0,0,1,22.423,25.439C282.236,131.01,282.236,202.351,244.351,241.464Z" transform="translate(0 0.219)" fill="#e7eaf8"/>
          <path id="Trazado_194360" data-name="Trazado 194360" d="M101.481,138.036a38.679,38.679,0,0,1,29.782-21.1l.881-55.494a.856.856,0,0,0-.856-.856c-36.2.347-68.052,22.845-82.943,56.176a.931.931,0,0,0,.521,1.241Z" transform="translate(4.731 7.129)" fill="#cdc9d7"/>
          <path id="Trazado_194361" data-name="Trazado 194361" d="M164.112,144.39a1.65,1.65,0,0,0-1.626,1.166c-.62,1.973-1.75,5.783-1.936,6.2a50.876,50.876,0,0,1-3.2,6.813,37.811,37.811,0,0,1-8.873,10.7c-9.2,7.445-22.411,8.823-33.5,5.137q-.459-.149-.931-.335a1.241,1.241,0,0,0-1.514.571L84.78,225.41c13.5,6.763,26.208,8.538,42.191,7.52,46.311-2.978,82.682-40.578,86.715-87.2Z" transform="translate(13.527 27.317)" fill="#daaba3"/>
          <path id="Trazado_194364" data-name="Trazado 194364" d="M84.475,223.1l28.678-49.016a1.514,1.514,0,0,0-.31-1.9,40.28,40.28,0,0,1-13.452-30.378,42.516,42.516,0,0,1,.955-8.955L47.4,113.009a.794.794,0,0,0-1.03.509,101.4,101.4,0,0,0-4.207,28.963C42.16,176.83,59.123,206.376,84.475,223.1Z" transform="translate(3.259 19.746)" fill="#b0a2cd"/>
          <path id="Trazado_194365" data-name="Trazado 194365" d="M123.32,124.28c16.417,2.755,29.149,16.566,31.308,33.84a1.861,1.861,0,0,0,1.8,1.663l79.419,2.656.62-.6C236.219,95.428,188.6,38.532,124.784,31Z" transform="translate(22.812)" fill="#b0a5c6"/>
          <circle id="Elipse_17709" data-name="Elipse 17709" cx="19.209" cy="19.209" r="19.209" transform="translate(173.432 54.019)" fill="#6677d6"/>
          <circle id="Elipse_17710" data-name="Elipse 17710" cx="17.472" cy="17.472" r="17.472" transform="translate(174.983 55.818)" fill="#fff"/>
          <g id="Grupo_134793" data-name="Grupo 134793" transform="translate(175.083 55.955)" clip-path="url(#clip-path)">
            <path id="Trazado_194366" data-name="Trazado 194366" d="M154.333,80.919c.273-1.241.484-2.122.484-2.122l-4.852-8.227s-1.576,1.6-2.482,8.525a1.613,1.613,0,0,0,1.588,1.824Z" transform="translate(-146.453 -46.422)" fill="#b8bee0"/>
            <path id="Trazado_194367" data-name="Trazado 194367" d="M175.461,79.131a21.629,21.629,0,0,0-3.723-8.811L168.71,80.4s.087.2.223.583h5.1a1.514,1.514,0,0,0,1.427-1.849Z" transform="translate(-141.335 -46.482)" fill="#b8bee0"/>
            <path id="Trazado_194368" data-name="Trazado 194368" d="M153.853,81.773c4.964,1.837,11.776,1.576,19.693,0a25.454,25.454,0,0,1,.769-2.482l2.085-8.116a17.373,17.373,0,0,0-8.686-3.723,21.754,21.754,0,0,0-7.979-.112A19.855,19.855,0,0,0,149.46,71.5l.584,1.329,3.027,6.886A17.966,17.966,0,0,1,153.853,81.773Z" transform="translate(-145.973 -47.276)" fill="#515fab"/>
            <path id="Trazado_194369" data-name="Trazado 194369" d="M158.364,64l-.124,4.1a.943.943,0,0,0,.62.906,8.215,8.215,0,0,0,5.274.2.931.931,0,0,0,.608-1.018l-.6-4.182Z" transform="translate(-143.858 -48.005)" fill="url(#linear-gradient)"/>
            <path id="Trazado_194370" data-name="Trazado 194370" d="M157.12,59.136s.236,5.547,1.241,7.706a3.934,3.934,0,0,0,3.574,2.172,5.534,5.534,0,0,0,3.611-2.407c1.241-1.923,1.688-8.19,1.688-8.19a8.686,8.686,0,0,0-5.063-2.643C159.292,55.525,157.12,57.933,157.12,59.136Z" transform="translate(-144.128 -49.991)" fill="url(#linear-gradient-2)"/>
            <path id="Trazado_194371" data-name="Trazado 194371" d="M164.515,60.326s1.1-1.65,1.663-1.1-.558,4.145-1.663,4.145S164.515,60.326,164.515,60.326Z" transform="translate(-142.464 -49.182)" fill="url(#linear-gradient-3)"/>
            <path id="Trazado_194372" data-name="Trazado 194372" d="M158.138,60.609s-1.377-1.936-1.923-1.39.819,4.145,1.923,4.145Z" transform="translate(-144.376 -49.18)" fill="url(#linear-gradient-4)"/>
            <path id="Trazado_194373" data-name="Trazado 194373" d="M168.258,58.743V57.5a9.355,9.355,0,0,1,.074-1.315,1.911,1.911,0,0,0-2.383-1.948.459.459,0,0,1-.285,0c-.112,0-.161-.161-.2-.273a3.338,3.338,0,0,0-3.611-2.159,3.9,3.9,0,0,0-3.04,2.209.245.245,0,0,1-.124.174.36.36,0,0,1-.2,0,3.338,3.338,0,0,0-1.948.273,1.973,1.973,0,0,0-.844,1.452,3.723,3.723,0,0,0,.521,1.824,1.377,1.377,0,0,1,.211,1.1c0,.112-.112.211-.161.323-.6,1.241.968,2.333,1.241,3.388l.658,2.407a5.437,5.437,0,0,0,.074-1.551,20.984,20.984,0,0,1-.223-2.147,3.611,3.611,0,0,1,.372-1.477c.236-.447.645-.645.956-1.03a1.961,1.961,0,0,0,.993.608,1.638,1.638,0,0,0,.732-.1c.36-.112.869-.509,1.241-.534s.459.335.695.521a2.581,2.581,0,0,0,2.482.36c-.174.074.856,2.01.893,2.184a21.576,21.576,0,0,1,.347,3.1.209.209,0,0,0,.2-.161,20.508,20.508,0,0,0,.372-2.122,14.789,14.789,0,0,1,.72-2.321A5.063,5.063,0,0,0,168.258,58.743Z" transform="translate(-144.47 -50.95)" fill="#12263f"/>
          </g>
          <circle id="Elipse_17712" data-name="Elipse 17712" cx="17.609" cy="17.609" r="17.609" transform="translate(213.117 45.916)" fill="#6677d6"/>
          <circle id="Elipse_17713" data-name="Elipse 17713" cx="16.008" cy="16.008" r="16.008" transform="translate(214.556 47.579)" fill="#fff"/>
          <g id="Grupo_134794" data-name="Grupo 134794" transform="translate(214.643 47.703)" clip-path="url(#clip-path-2)">
            <path id="Trazado_194374" data-name="Trazado 194374" d="M189.107,56.194c-1.018,0-2.06.137-2.482-1.092a6.751,6.751,0,0,1,2.556-6.986,7.073,7.073,0,0,1,2.283-.757,3.586,3.586,0,0,1,2.569.211c.782.422,1.526-.248,2.333.285a4.964,4.964,0,0,1,1.564,1.886,12.137,12.137,0,0,1,.931,3.015,1.762,1.762,0,0,1,0,.72,1.637,1.637,0,0,1-.261.534,4.12,4.12,0,0,1-3.537,2.184Z" transform="translate(-176.624 -43.797)" fill="#12263f"/>
            <path id="Trazado_194375" data-name="Trazado 194375" d="M190.112,51.19s.174.385-1.018.98c-.658.335-1.961.831-2.122,2.283-.1.745-.385,2.581-1.092,2.693-1.775.285-4.157,1.39-4.38,3.537-.248,2.482.459,3.723,1.712,4.07.918.236,1.154.484.968,1.452s.521,4.281,2.072,5.137c3.45,1.948,6.465-6.738,6.465-6.738l.707-11.23Z" transform="translate(-177.826 -42.839)" fill="#12263f"/>
            <path id="Trazado_194376" data-name="Trazado 194376" d="M195.468,50.4s-.2.41,1.018,1.042a3.2,3.2,0,0,1,2.172,2.407c.087.794.3,1.9,1.03,2.023,1.8.3,3.884,2.048,4.318,5.448.347,2.606-.4,5.386-1.675,5.733-.931.248-.869-.248-.67.782s-.248.608-1.824,1.5c-3.512,2.035-7.036-4.79-7.036-4.79l-.72-11.913Z" transform="translate(-175.266 -43.029)" fill="#12263f"/>
            <path id="Trazado_194377" data-name="Trazado 194377" d="M191.412,60.512s2.68-.695,3.239.161c.285,1.415.434,2.817.434,2.817l-3.077.583-2.023-.41-.484-.285-.211-2a7.6,7.6,0,0,1,2.122-.869Z" transform="translate(-175.938 -40.657)" fill="url(#linear-gradient-5)"/>
            <path id="Trazado_194378" data-name="Trazado 194378" d="M188.669,54.881s-.434-1.241-1.08-.856.968,3.164.968,3.164Z" transform="translate(-176.384 -42.174)" fill="url(#linear-gradient-6)"/>
            <path id="Trazado_194379" data-name="Trazado 194379" d="M193.62,54.93s0-1.936,1.08-.856-1.08,2.581-1.08,2.581Z" transform="translate(-174.895 -42.223)" fill="url(#linear-gradient-7)"/>
            <path id="Trazado_194380" data-name="Trazado 194380" d="M202.857,70.389c-.906-4.343-2.2-7.731-2.606-7.929l-2.482,6.031a15.859,15.859,0,0,0-.459,4.033h3.723a1.775,1.775,0,0,0,1.824-2.134Z" transform="translate(-174.068 -40.124)" fill="#c6412a"/>
            <path id="Trazado_194381" data-name="Trazado 194381" d="M187.487,72.266a23.627,23.627,0,0,0,0-3.164L184.05,63.53a48.223,48.223,0,0,0-.869,6.2c0,.211,0,.422,0,.645a1.725,1.725,0,0,0,1.725,1.874Z" transform="translate(-177.411 -39.866)" fill="#c6412a"/>
            <path id="Trazado_194382" data-name="Trazado 194382" d="M190.762,73.864h3.723L195.5,63.192s-.869-.223-1.241-1.725a29.864,29.864,0,0,1-.645-4.517l-3.872.869s.434,4.083-.434,6.018Z" transform="translate(-175.933 -41.451)" fill="url(#linear-gradient-8)"/>
            <path id="Trazado_194383" data-name="Trazado 194383" d="M197.363,71.888l.534-6.738c-3.921,2.345-7.954,2.234-12.037.993l1.154,5.745Z" transform="translate(-176.764 -39.475)" fill="#3d4780"/>
            <path id="Trazado_194384" data-name="Trazado 194384" d="M192.976,72.849c-1.154-5.6-2.395-11.739-2.395-11.739l-.633,1.241-6.018,1.725c.285,1.377,1.241,5.15,2.1,8.686Z" transform="translate(-177.292 -40.449)" fill="#c6412a"/>
            <path id="Trazado_194385" data-name="Trazado 194385" d="M199.559,72.965c.323-1.712.608-3.053.608-3.053l1.241-7.011c-.41-.41-6.825-1.241-6.825-1.241l-.695-1.03s-.856,6.2-1.588,12.409Z" transform="translate(-175.275 -40.564)" fill="#c6412a"/>
            <path id="Trazado_194386" data-name="Trazado 194386" d="M188.086,52.75s-.211,5.15.434,6.006,1.5,2.8,3,3.015,3.909-4.083,3.909-4.294-.211-5.807-.211-5.807S190.668,48.023,188.086,52.75Z" transform="translate(-176.236 -43.046)" fill="url(#linear-gradient-9)"/>
            <path id="Trazado_194387" data-name="Trazado 194387" d="M187.416,52.065s-.856,2.581,1.725,1.725l2.569-.856s2.581-1.514,3.015-.869a11.081,11.081,0,0,1,.856,2.234s.856-2.234,0-3.524S189.414,48.417,187.416,52.065Z" transform="translate(-176.422 -43.23)" fill="#12263f"/>
          </g>
          <circle id="Elipse_17715" data-name="Elipse 17715" cx="19.892" cy="19.892" r="19.892" transform="translate(180.704 96.136)" fill="#6677d6"/>
          <circle id="Elipse_17716" data-name="Elipse 17716" cx="18.093" cy="18.093" r="18.093" transform="translate(182.317 97.997)" fill="#fff"/>
          <g id="Grupo_134795" data-name="Grupo 134795" transform="translate(182.429 98.134)" clip-path="url(#clip-path-3)">
            <circle id="Elipse_17717" data-name="Elipse 17717" cx="5.907" cy="5.907" r="5.907" transform="translate(12.57 4.244)" fill="#12263f"/>
            <path id="Trazado_194388" data-name="Trazado 194388" d="M163.7,92c-2.594,8.984-4.368,17.137-4.083,19.433l7.57-.794.881-16.6Z" transform="translate(-150.88 -83.438)" fill="#12263f"/>
            <path id="Trazado_194389" data-name="Trazado 194389" d="M169.852,91.285l-1.042,20.289,8.562,4.554C177.2,109.2,173.65,91.384,172.2,90.9Z" transform="translate(-148.658 -83.703)" fill="#12263f"/>
            <path id="Trazado_194390" data-name="Trazado 194390" d="M170.708,100.06l.248,5.535-5.361.807-.335-5.807Z" transform="translate(-149.513 -81.496)" fill="url(#linear-gradient-10)"/>
            <path id="Trazado_194391" data-name="Trazado 194391" d="M173.8,98.806s-1.241,5.733-4.765,6.428-4.5-4.715-4.691-5.1c0,0-.769.36-.956-.41s-1.08-2.718.645-2.68a5.112,5.112,0,0,1,.261-2.879c.6-.943,1.8-3.226,4.281-2.594S175.039,94.3,173.8,98.806Z" transform="translate(-150.06 -83.567)" fill="url(#linear-gradient-11)"/>
            <path id="Trazado_194392" data-name="Trazado 194392" d="M171.582,103l3.4,1.8-4.455,4.889-8.227-5.175a22,22,0,0,1,3.611-1.241Z" transform="translate(-150.226 -80.788)" fill="url(#linear-gradient-12)"/>
            <path id="Trazado_194393" data-name="Trazado 194393" d="M164.119,92.1c-1.166,1.613-.248,3.065-.571,4.232a24.372,24.372,0,0,1,6.068-.918,7.445,7.445,0,0,0-.459-3.09,10.66,10.66,0,0,1,1.166,3.214,5.684,5.684,0,0,1,2.941.794l-1.34-4.691C168.884,90.24,166.3,90.426,164.119,92.1Z" transform="translate(-149.935 -83.75)" fill="#12263f"/>
            <path id="Trazado_194394" data-name="Trazado 194394" d="M169.311,87.788c0,1.117-1.067,2.383-1.824,2.383a2.73,2.73,0,0,1-1.824-2.383,1.837,1.837,0,1,1,3.648,0Z" transform="translate(-149.419 -84.946)" fill="#12263f"/>
            <path id="Trazado_194395" data-name="Trazado 194395" d="M178.2,117.053l1.874-10.349a34.163,34.163,0,0,0-7.718-3.623c-.869,1.812-4.84,1.626-5.671.223a25.1,25.1,0,0,0-7.582,3.4l2.556,10.3Z" transform="translate(-150.997 -80.768)" fill="#c6412a"/>
            <path id="Trazado_194396" data-name="Trazado 194396" d="M179.8,114.5c-1.514-6.478-3.251-8.5-3.251-8.5l-2.8,8.513s.335.683.782,1.9h3.822A1.5,1.5,0,0,0,179.8,114.5Z" transform="translate(-147.47 -80.065)" fill="#c6412a"/>
            <path id="Trazado_194397" data-name="Trazado 194397" d="M162.351,116.337a25.45,25.45,0,0,1,1.241-3.487l-4.008-6.8A25.1,25.1,0,0,0,157,114.674a1.5,1.5,0,0,0,1.489,1.688Z" transform="translate(-151.505 -80.053)" fill="#c6412a"/>
            <path id="Trazado_194398" data-name="Trazado 194398" d="M170.11,91.54c1.985,4.964,2.978,19.185,1.762,26.667,1.9-6.527,4.269-14.891.658-25.972Z" transform="translate(-148.344 -83.548)" fill="#12263f"/>
          </g>
          <circle id="Elipse_17719" data-name="Elipse 17719" cx="17.894" cy="17.894" r="17.894" transform="translate(224.359 83.317)" fill="#6677d6"/>
          <circle id="Elipse_17720" data-name="Elipse 17720" cx="16.281" cy="16.281" r="16.281" transform="translate(225.799 84.98)" fill="#fff"/>
          <g id="Grupo_134796" data-name="Grupo 134796" transform="translate(225.898 85.104)" clip-path="url(#clip-path-4)">
            <path id="Trazado_194399" data-name="Trazado 194399" d="M209.729,104.514a1.65,1.65,0,0,0,1.638-1.65c0-2.594-.074-4.877-.2-6.143-.3-3.214-2.01-4.232-2.01-4.232l-.869,12.024Z" transform="translate(-182.615 -70.29)" fill="#6677d6"/>
            <path id="Trazado_194400" data-name="Trazado 194400" d="M209.219,104.89c-.137-6.738-.261-12.31-.261-12.31-3.04-1.874-14.308-1.638-14.308-1.638L193,104.89Z" transform="translate(-186.299 -70.665)" fill="#c6412a"/>
            <path id="Trazado_194401" data-name="Trazado 194401" d="M191.268,105.151h10.473c-.335-3.251-3.04-15.3-3.04-15.3l-8.4,2.569s.658,7.445.658,9.853C190.958,102.818,191.169,103.86,191.268,105.151Z" transform="translate(-186.95 -70.926)" fill="#6677d6"/>
            <path id="Trazado_194402" data-name="Trazado 194402" d="M192.471,104.649c0-3.971,0-11.292-1.241-12.719,0,0-1.626.831-3.264,6.2-.484,1.551-.906,3.028-1.315,4.442a1.613,1.613,0,0,0,1.551,2.048Z" transform="translate(-187.843 -70.425)" fill="#6677d6"/>
            <path id="Trazado_194403" data-name="Trazado 194403" d="M210.744,104.967c.3-5.708.558-11.8.31-12.049a51.564,51.564,0,0,0-6.105-2.308s-3.723,11.168-4.529,14.357Z" transform="translate(-184.511 -70.743)" fill="#6677d6"/>
            <path id="Trazado_194404" data-name="Trazado 194404" d="M197.35,92.414l1.415-4.964h5.162l.707,5.634S200.167,94.337,197.35,92.414Z" transform="translate(-185.251 -71.504)" fill="url(#linear-gradient-13)"/>
            <path id="Trazado_194405" data-name="Trazado 194405" d="M197.35,82.881a32.784,32.784,0,0,0,1.3,6.552,3.338,3.338,0,0,0,3.077,1.849,4.678,4.678,0,0,0,3.065-2.048c1.018-1.638,1.427-6.949,1.427-6.949A7.445,7.445,0,0,0,201.879,80C199.472,79.828,197.35,81.863,197.35,82.881Z" transform="translate(-185.251 -73.301)" fill="url(#linear-gradient-14)"/>
            <path id="Trazado_194406" data-name="Trazado 194406" d="M203.861,83.9s.943-1.415,1.415-.943-.472,3.524-1.415,3.524S203.861,83.9,203.861,83.9Z" transform="translate(-183.783 -72.609)" fill="url(#linear-gradient-15)"/>
            <path id="Trazado_194407" data-name="Trazado 194407" d="M198.449,84.144s-1.166-1.65-1.638-1.241.695,3.524,1.638,3.524Z" transform="translate(-185.407 -72.615)" fill="url(#linear-gradient-16)"/>
            <path id="Trazado_194408" data-name="Trazado 194408" d="M207.987,82.753a4.293,4.293,0,0,0,.236-2.06,7.818,7.818,0,0,0-1.452-3.723c.223.223-1.886,1.1-2.209,1.08.633-.521,1.415-1.1,1.452-2.01a6.2,6.2,0,0,1-2.482.831c-2.172.385-4.5.3-6.2,1.936a3.226,3.226,0,0,0-.993,2.742c.124.72,1.241,1.477.546,2.147-.472.459.943,1.315,1.241,2.656a1.316,1.316,0,0,0,0,.285c0-.683-.285-1.415-.273-2.085,0-1.353,2.085-1.452,3.09-1.539a8.1,8.1,0,0,0,3.934-.893c.472-.31.769,2.246.794,2.37a7.21,7.21,0,0,1,.124,2.246h.323c.1-.856,0-1.688.645-2.308a6.936,6.936,0,0,0,.856-.968,3.212,3.212,0,0,0,.372-.707Z" transform="translate(-185.501 -74.253)" fill="#12263f"/>
            <path id="Trazado_194409" data-name="Trazado 194409" d="M199.091,88.192a14.42,14.42,0,0,1-.583,2.631,10.8,10.8,0,0,0,0,3.226c0,1.377,1.092,2.891.856,4.244-.6-1.688-2.482-2.991-3.35-4.567s-1.576-2.767-.521-4.219C196.076,88.6,199.1,88.105,199.091,88.192Z" transform="translate(-185.826 -71.328)" fill="#6677d6"/>
            <path id="Trazado_194410" data-name="Trazado 194410" d="M202.911,92.612c.137,2.867-.434,3.45-.881,6.341.608-1.948,1.985-2.978,3.065-4.728s1.415-3.859-.335-4.964c-.112-.087-1.812-.869-1.8-.707C202.986,88.927,202.861,91.371,202.911,92.612Z" transform="translate(-184.124 -71.243)" fill="#6677d6"/>
          </g>
          <circle id="Elipse_17722" data-name="Elipse 17722" cx="12.273" cy="12.273" r="12.273" transform="translate(68.389 101.633)" fill="url(#linear-gradient-17)"/>
          <circle id="Elipse_17723" data-name="Elipse 17723" cx="11.863" cy="11.863" r="11.863" transform="translate(68.798 102.042)" fill="#daaba3"/>
          <path id="Trazado_194411" data-name="Trazado 194411" d="M61.769,97.763h0a.112.112,0,0,1-.1-.124,10.6,10.6,0,0,1,.161-1.39.112.112,0,1,1,.211,0,12.411,12.411,0,0,0-.149,1.365.112.112,0,0,1-.124.149Z" transform="translate(7.959 15.684)" fill="#fff" opacity="0.7"/>
          <path id="Trazado_194412" data-name="Trazado 194412" d="M62.687,95.139h0a.1.1,0,0,1,0-.149,11.007,11.007,0,0,1,9.927-6.081,11.95,11.95,0,0,1,2,.174.112.112,0,0,1,.087.137.1.1,0,0,1-.124.087,11.517,11.517,0,0,0-1.961-.174,10.784,10.784,0,0,0-9.679,5.956.127.127,0,0,1-.248.05Z" transform="translate(8.196 13.951)" fill="#fff" opacity="0.7"/>
          <circle id="Elipse_17724" data-name="Elipse 17724" cx="10.039" cy="10.039" r="10.039" transform="translate(70.883 104.127)" fill="#e0cbc8"/>
          <path id="Trazado_194413" data-name="Trazado 194413" d="M74.457,95.6a3.1,3.1,0,1,1-3.1-3.1A3.115,3.115,0,0,1,74.457,95.6Z" transform="translate(9.542 14.816)" fill="#c6412a"/>
          <path id="Trazado_194414" data-name="Trazado 194414" d="M68.117,104.161h7.445A1.824,1.824,0,0,0,77.3,102.92l.4-1.241A1.8,1.8,0,0,0,76.6,99.42a14,14,0,0,0-9.456.1,1.812,1.812,0,0,0-1.166,2.2l.31,1.154a1.824,1.824,0,0,0,1.824,1.291Z" transform="translate(8.983 16.297)" fill="#c6412a"/>
          <circle id="Elipse_17725" data-name="Elipse 17725" cx="12.273" cy="12.273" r="12.273" transform="translate(90.527 82.572)" fill="#9e3421"/>
          <circle id="Elipse_17726" data-name="Elipse 17726" cx="11.863" cy="11.863" r="11.863" transform="translate(90.936 82.982)" fill="#daaba3"/>
          <path id="Trazado_194415" data-name="Trazado 194415" d="M79.612,82.376h0a.1.1,0,0,1-.112-.087,10.127,10.127,0,0,1,.161-1.39.112.112,0,0,1,.124-.1.124.124,0,0,1,.1.137,10,10,0,0,0-.161,1.365A.112.112,0,0,1,79.612,82.376Z" transform="translate(12.255 11.997)" fill="#fff" opacity="0.7"/>
          <path id="Trazado_194416" data-name="Trazado 194416" d="M80.526,79.782h0a.112.112,0,0,1,0-.149,11.019,11.019,0,0,1,9.927-6.093,10.783,10.783,0,0,1,2,.186.1.1,0,0,1,.087.124.112.112,0,0,1-.124.1,10.386,10.386,0,0,0-1.961-.186,10.821,10.821,0,0,0-9.679,5.969.127.127,0,0,1-.248.05Z" transform="translate(12.495 10.249)" fill="#fff" opacity="0.7"/>
          <circle id="Elipse_17727" data-name="Elipse 17727" cx="10.039" cy="10.039" r="10.039" transform="translate(93.021 85.067)" fill="#e0cbc8"/>
          <path id="Trazado_194417" data-name="Trazado 194417" d="M92.295,80.2a3.1,3.1,0,1,1-3.1-3.1A3.1,3.1,0,0,1,92.295,80.2Z" transform="translate(13.843 11.106)" fill="#c6412a"/>
          <path id="Trazado_194418" data-name="Trazado 194418" d="M85.945,88.787H93.39a1.812,1.812,0,0,0,1.737-1.241l.41-1.241a1.824,1.824,0,0,0-1.1-2.271,14,14,0,0,0-9.394.136,1.812,1.812,0,0,0-1.166,2.2l.31,1.142a1.837,1.837,0,0,0,1.762,1.278Z" transform="translate(13.293 12.597)" fill="#c6412a"/>
          <circle id="Elipse_17728" data-name="Elipse 17728" cx="12.273" cy="12.273" r="12.273" transform="translate(95.056 110.952)" fill="url(#linear-gradient-18)"/>
          <circle id="Elipse_17729" data-name="Elipse 17729" cx="11.863" cy="11.863" r="11.863" transform="translate(95.465 111.362)" fill="#daaba3"/>
          <path id="Trazado_194419" data-name="Trazado 194419" d="M83.259,105.251h0a.1.1,0,0,1-.1-.112,10.124,10.124,0,0,1,.161-1.39.1.1,0,0,1,.124-.1.112.112,0,0,1,.087.137,12.519,12.519,0,0,0-.149,1.353A.137.137,0,0,1,83.259,105.251Z" transform="translate(13.137 17.502)" fill="#fff" opacity="0.7"/>
          <path id="Trazado_194420" data-name="Trazado 194420" d="M84.177,102.652h0a.1.1,0,0,1,0-.149A10.994,10.994,0,0,1,94.1,96.41a10.783,10.783,0,0,1,2,.186.1.1,0,0,1,.087.124.124.124,0,0,1-.124.1,10.385,10.385,0,0,0-1.961-.186,10.771,10.771,0,0,0-9.679,5.969.127.127,0,0,1-.248.05Z" transform="translate(13.374 15.758)" fill="#fff" opacity="0.7"/>
          <circle id="Elipse_17730" data-name="Elipse 17730" cx="10.039" cy="10.039" r="10.039" transform="translate(97.55 113.447)" fill="#e0cbc8"/>
          <path id="Trazado_194421" data-name="Trazado 194421" d="M95.947,103.072a3.1,3.1,0,1,1-3.1-3.1,3.115,3.115,0,0,1,3.1,3.1Z" transform="translate(14.72 16.616)" fill="url(#linear-gradient-19)"/>
          <path id="Trazado_194422" data-name="Trazado 194422" d="M89.608,111.662h7.445a1.824,1.824,0,0,0,1.737-1.241l.4-1.241a1.824,1.824,0,0,0-1.092-2.271,14,14,0,0,0-9.456.112,1.8,1.8,0,0,0-1.166,2.2l.31,1.142A1.812,1.812,0,0,0,89.608,111.662Z" transform="translate(14.16 18.103)" fill="url(#linear-gradient-20)"/>
          <path id="Trazado_194423" data-name="Trazado 194423" d="M112.689,104.93s-3.388,1.638-4.008,3.537c-.509,1.526-4.256,1.712-4.629,4.7a3.412,3.412,0,0,1-2.867,3.015c-3.822.583-9.729,2.581-10.672,9.22-.72,5.075,1.861,7,4.579,7.669a3.834,3.834,0,0,1,2.916,4.442c-.385,1.923.186,4.157,3.537,5.919,7.446,3.959,14.978-9.369,14.978-9.369l1.539-23.255Z" transform="translate(14.879 17.811)" fill="#12263f"/>
          <path id="Trazado_194424" data-name="Trazado 194424" d="M147.59,100.48s-14.965,23.677-32.76,28.243c0,0,3.462,9.927,6.2,11.007,0,0,21.89-18.266,27.511-35.887Z" transform="translate(20.767 16.739)" fill="url(#linear-gradient-21)"/>
          <path id="Trazado_194425" data-name="Trazado 194425" d="M85.187,222.776l-.484,4a1.638,1.638,0,0,1-1.415,1.439,25.341,25.341,0,0,1-5.336.087,1.427,1.427,0,0,1-1.241-1.837,14.7,14.7,0,0,1,2.68-5.212H83.81a1.365,1.365,0,0,1,1.377,1.526Z" transform="translate(11.569 45.834)" fill="url(#linear-gradient-22)"/>
          <path id="Trazado_194426" data-name="Trazado 194426" d="M113.106,184.84l.745,4.393s-2.482,25.327-2.941,35.453a7.843,7.843,0,0,0,1.179,4.517l4.343,7.061-11.044-6.527-.223-1.34,1.812-2.482-2.37-28.367a8.687,8.687,0,0,1,.993-4.815l2.283-4.294Z" transform="translate(18.296 37.063)" fill="url(#linear-gradient-23)"/>
          <path id="Trazado_194427" data-name="Trazado 194427" d="M117.211,229.136h-3.537a2.1,2.1,0,0,1-1.675-.819c-1.1-1.427-3.375-4.219-4.467-4.294-1.464-.1-1.241,5.113-1.241,5.113h-.819l-1.042-6.478a3.847,3.847,0,0,1,2.01-4.008,5.423,5.423,0,0,0,2.147,3.574c1.824,1.1,7.446,5.026,7.446,5.026a4.966,4.966,0,0,1,1.439,0,.952.952,0,1,1-.261,1.886Z" transform="translate(18.249 45.208)" fill="url(#linear-gradient-24)"/>
          <path id="Trazado_194428" data-name="Trazado 194428" d="M104.4,186.884s-14.655,27.772-16.976,34.088a59.961,59.961,0,0,0-3.2,12.173c0,.782-1.018,1.526-3.723,1.526a2.594,2.594,0,0,1-2.395-1.092,1.564,1.564,0,0,1,0-1.514c.856-1.712,3.537-7.2,4.529-9.679,1.241-2.966,3.723-16.417,5.15-21.1s2.991-9.741,9.1-14.407C96.858,186.884,101.052,182.777,104.4,186.884Z" transform="translate(11.873 37.115)" fill="url(#linear-gradient-25)"/>
          <path id="Trazado_194429" data-name="Trazado 194429" d="M107.835,156.342c3.785-16.008-5.8-25.067-5.8-25.067,6.043-5.8,17.05-8.426,17.05-8.426s10.5,7.669,9.245,13.65c-.72,3.524-7.371,21.1-7.371,21.1a14.606,14.606,0,0,1-13.129-1.253Z" transform="translate(17.685 22.128)" fill="#c6412a"/>
          <path id="Trazado_194430" data-name="Trazado 194430" d="M101.723,157.769c1.539-4.629,8.376-7.929,8.376-7.929a14.606,14.606,0,0,0,13.129,1.241,26.32,26.32,0,0,1,.422,10.176c-.956,4.889-6.924,36.371-6.924,36.371-9.406,1.911-23.875-1.911-23.875-1.911C98.794,185.107,100.134,162.448,101.723,157.769Z" transform="translate(15.471 28.631)" fill="#515fab"/>
          <path id="Trazado_194431" data-name="Trazado 194431" d="M110.857,114.575l-3.077,13.8c-.3,1.241.819,1.018,2.048.782,2.01-.372,4.6-1.154,5.472-2.718a1.564,1.564,0,0,0,.149-.521l1.328-9.567a1.737,1.737,0,0,0-1.005-1.812l-2.556-1.129a1.712,1.712,0,0,0-2.358,1.166Z" transform="translate(19.056 19.818)" fill="url(#linear-gradient-26)"/>
          <path id="Trazado_194432" data-name="Trazado 194432" d="M116.559,104.286s3.264,2.209,4.666,7.843-.869,7.656-3.214,7.532a10.808,10.808,0,0,1-8.686-4.889C106.383,110.727,112.253,101.569,116.559,104.286Z" transform="translate(19.249 17.536)" fill="url(#linear-gradient-27)"/>
          <path id="Trazado_194433" data-name="Trazado 194433" d="M113.057,113.437s-1.241-8.078,5.51-6.837l1.353,1.4s3.288-3.723-.347-6.49-8.686-2.072-11.466,3.015-3.8,8.686-1.464,11.826,4.1.447,4.1.447-1.067-2.742-.174-3.909,2.035.683,2.035.683Z" transform="translate(18.482 16.601)" fill="#12263f"/>
          <path id="Trazado_194434" data-name="Trazado 194434" d="M111.495,111.987s-.6-4.157-2.718-2.966.769,3.872,1.923,4.79Z" transform="translate(19.126 18.745)" fill="url(#linear-gradient-28)"/>
          <path id="Trazado_194435" data-name="Trazado 194435" d="M141.6,107.065c0,.484-1.762.819-2.345-1.241.161-.906.447-4.864,1.129-5.485a73.028,73.028,0,0,1,10.275-6.949,1.353,1.353,0,0,1-.223,1.861l-3.288,2.209a12.967,12.967,0,0,1,.893,3.437,3.8,3.8,0,0,1-.968,2.693,32.5,32.5,0,0,1-2.32,2.482A3.834,3.834,0,0,1,141.6,107.065Z" transform="translate(26.65 15.031)" fill="url(#linear-gradient-29)"/>
          <path id="Trazado_194436" data-name="Trazado 194436" d="M142.994,104.423l-.5-.211a27.188,27.188,0,0,1,2.407-4.79,1.142,1.142,0,0,0,.41-.769.534.534,0,0,0-.161-.335l-2.668,1.415-1.166,1.837-.459-.285,1.241-1.961,3.1-1.663.149.112a1.241,1.241,0,0,1,.5.844,1.588,1.588,0,0,1-.571,1.179,27.722,27.722,0,0,0-2.283,4.629Z" transform="translate(27.038 16.059)" fill="url(#linear-gradient-30)"/>
          <path id="Trazado_194437" data-name="Trazado 194437" d="M109.709,157.132h27.449a1.241,1.241,0,1,0,0-2.482H109.721a1.241,1.241,0,0,0-.012,2.482Z" transform="translate(19.237 29.789)" fill="#4e2e8e"/>
          <path id="Trazado_194438" data-name="Trazado 194438" d="M158.762,136.78H135.916a4.38,4.38,0,0,0-3.946,2.482l-10.56,22.175h28.4a2.643,2.643,0,0,0,2.482-1.663l8.19-20.512a1.812,1.812,0,0,0-1.725-2.482Z" transform="translate(22.352 25.484)" fill="#4e2e8e"/>
          <ellipse id="Elipse_17731" data-name="Elipse 17731" cx="2.904" cy="1.799" rx="2.904" ry="1.799" transform="translate(164.113 176.369) rotate(-71.76)" fill="#99b0f6"/>
          <path id="Trazado_194439" data-name="Trazado 194439" d="M103.312,129.67c-3.723,3.785-8.488,20.525-6.13,23.317,2.072,3.264,9.133,7.694,15.859,7.706h9.927c-4.169-4.442-7.036-5.559-10.461-2.482-2.718-1.166-6.2-5.659-8.575-7.669a2.482,2.482,0,0,1-.534-3.164c1.874-3.164,4.207-6.416,4.964-9.555C108.524,134.162,105.794,129.931,103.312,129.67Z" transform="translate(16.363 23.771)" fill="url(#linear-gradient-31)"/>
          <path id="Trazado_194440" data-name="Trazado 194440" d="M143.9,245.881a1.018,1.018,0,0,1-.695-.347c-2.544-2.941-21.182-26.059-.484-50.009,19.644-22.746,28.938-27.821,29.286-40.342a1.464,1.464,0,0,1,2.718-.695c5.559,9.419,14.792,31.668-8.959,48.507-26.2,18.614-22.585,36.533-20.872,41.571a.993.993,0,0,1-.993,1.315Z" transform="translate(25.161 29.579)" fill="#515fab"/>
          <path id="Trazado_194441" data-name="Trazado 194441" d="M145.008,234.155a1.4,1.4,0,0,1-1.241-1.092c-.98-4.194-3.723-19.855,7.582-24.98,12.5-5.6,23.764,5.584,32.5-4.48a.72.72,0,0,1,1.241.534c-.472,4.964-3.363,16.566-19.855,20.09-17.633,3.723-19.495,5.981-18.936,8.488a1.241,1.241,0,0,1-1.241,1.439Z" transform="translate(27.494 41.529)" fill="#515fab"/>
          <path id="Trazado_194442" data-name="Trazado 194442" d="M171.722,165.269a19.11,19.11,0,0,1-.645,2.705,27.287,27.287,0,0,1-.968,2.606,32.62,32.62,0,0,1-2.618,4.9,38.753,38.753,0,0,1-7.321,8.339,50.882,50.882,0,0,1-4.405,3.35,42.739,42.739,0,0,0-4.182,3.288,46.672,46.672,0,0,0-7.073,7.929,39.71,39.71,0,0,0-7.3,19.743,36.88,36.88,0,0,0,.745,10.622,43.756,43.756,0,0,0,3.586,10.126.335.335,0,0,1-.161.459.347.347,0,0,1-.459-.137,42.054,42.054,0,0,1-4.145-10.175,36.851,36.851,0,0,1-.98-5.448,35.987,35.987,0,0,1-.149-5.547,37.525,37.525,0,0,1,2.172-10.883,43,43,0,0,1,5.075-9.927,45.914,45.914,0,0,1,7.334-8.339,43.738,43.738,0,0,1,4.368-3.45,52.5,52.5,0,0,0,4.281-3.189,43.024,43.024,0,0,0,7.284-7.731,37.677,37.677,0,0,0,2.842-4.5,28.007,28.007,0,0,0,2.1-4.964h0a.31.31,0,0,1,.385-.223.323.323,0,0,1,.236.447Z" transform="translate(25.771 32.237)" fill="#b8bee0"/>
          <path id="Trazado_194443" data-name="Trazado 194443" d="M143.831,230.705a1.353,1.353,0,0,0,0-.447v-.434l-.074-.869c0-.583-.074-1.166-.087-1.75v-3.5a26.32,26.32,0,0,1,1.241-6.912,12.409,12.409,0,0,1,3.921-5.882,9.505,9.505,0,0,1,3.226-1.613,12.31,12.31,0,0,1,3.561-.459c4.678.2,9.294.745,13.9,1.117a24.2,24.2,0,0,0,6.837-.174,10.387,10.387,0,0,0,1.6-.5,8.464,8.464,0,0,0,1.477-.794,10.572,10.572,0,0,0,2.42-2.345h0a.285.285,0,1,1,.447.347,11.279,11.279,0,0,1-2.482,2.482,10.2,10.2,0,0,1-1.564.893,12.045,12.045,0,0,1-1.712.571,25.389,25.389,0,0,1-7.048.261c-2.333-.149-4.641-.409-6.949-.608s-4.629-.385-6.924-.484a11.169,11.169,0,0,0-3.326.4,8.873,8.873,0,0,0-2.978,1.452,11.739,11.739,0,0,0-3.785,5.5,25.216,25.216,0,0,0-1.365,6.726c-.087,1.154-.112,2.308-.1,3.462v3.028a1,1,0,0,0,.1.422.262.262,0,0,1-.447.273.223.223,0,0,1,0-.2Z" transform="translate(27.715 42.162)" fill="#b8bee0"/>
        </g>
      </g>
    </g>
    <text id="Segmentación_conductual" data-name="Segmentación conductual" transform="translate(395.333 7149.803)" fill="#12263f" font-size="20" font-family="Roboto-Black, Roboto" font-weight="800"><tspan x="0" y="0">Segmentación conductual</tspan></text>
    <text id="Se_tiene_en_cuenta_el_comportamiento_de_los_usuarios_sus_necesidades_específicas_y_su_respuesta_frente_a_un_determinado_producto." data-name="Se tiene en cuenta el comportamiento de los usuarios, sus necesidades específicas y su respuesta frente a un determinado producto." transform="translate(339.173 7194.234)" fill="#12263f" font-size="14" font-family="Roboto-Regular, Roboto"><tspan x="56.217" y="15">Se tiene en cuenta el comportamiento de los </tspan><tspan x="1.105" y="33">usuarios, sus necesidades específicas y su respuesta </tspan><tspan x="120.83" y="51">frente a un determinado producto.</tspan></text>
    <text id="Es_uno_de_los_enfoques_más_comunes_al_momento_de_realizar_la_segmentación_se_tiene_en_cuenta_la_edad_religión_etnia_profesión_cultura_sexo_entre_otros." data-name="Es uno de los enfoques más comunes al momento de realizar la segmentación; se  tiene en cuenta la edad, religión, etnia, profesión, cultura, sexo, entre otros." transform="translate(327.104 7489.96)" fill="#12263f" font-size="14" font-family="Roboto-Regular, Roboto"><tspan x="14.379" y="15">Es uno de los enfoques más comunes al momento de </tspan><tspan x="20.75" y="33" xml:space="preserve">realizar la segmentación; se  tiene en cuenta la edad, </tspan><tspan x="37.197" y="51">religión, etnia, profesión, cultura, sexo, entre otros.</tspan></text>
    <text id="Hace_referencia_a_la_opinión_estilo_de_vida_personalidad_intereses_y_valores_del_público_objetivo." data-name="Hace referencia a la opinión, estilo de vida, personalidad, intereses y valores del público objetivo." transform="translate(925.333 7485.96)" fill="#12263f" font-size="14" font-family="Roboto-Regular, Roboto"><tspan x="0" y="15">Hace referencia a la opinión, estilo de vida, </tspan><tspan x="0" y="33">personalidad, intereses y valores del público </tspan><tspan x="0" y="51">objetivo.</tspan></text>
    <text id="Hace_referencia_al_país_región_comunidad_provincia_ciudad_pueblo_área_hasta_donde_la_empresa_tiene_alcance." data-name="Hace referencia al país, región, comunidad, provincia, ciudad, pueblo, área, hasta donde la empresa tiene alcance." transform="translate(925.333 7190.643)" fill="#12263f" font-size="14" font-family="Roboto-Regular, Roboto"><tspan x="0" y="15">Hace referencia al país, región, comunidad, </tspan><tspan x="0" y="33">provincia, ciudad, pueblo, área, hasta donde la </tspan><tspan x="0" y="51">empresa tiene alcance.</tspan></text>
    <text id="Segmentación_geográfica" data-name="Segmentación geográfica" transform="translate(965.849 7149.854)" fill="#12263f" font-size="20" font-family="Roboto-Black, Roboto" font-weight="800"><tspan x="0" y="0">Segmentación geográfica</tspan></text>
    <text id="Segmentación_demográfica" data-name="Segmentación demográfica" transform="translate(381.333 7448.96)" fill="#12263f" font-size="20" font-family="Roboto-Black, Roboto" font-weight="800"><tspan x="0" y="0">Segmentación demográfica</tspan></text>
    <text id="Segmentación_psicográfica" data-name="Segmentación psicográfica" transform="translate(965.849 7445.083)" fill="#12263f" font-size="20" font-family="Roboto-Black, Roboto" font-weight="800"><tspan x="0" y="0">Segmentación psicográfica</tspan></text>
    <text id="Los_4_tipos_de_segmentación_" data-name="Los 4 tipos de segmentación
" transform="translate(636.333 7032.96)" fill="#12263f" font-size="24" font-family="Roboto-Black, Roboto" font-weight="800"><tspan x="0" y="25">Los 4 tipos de segmentación</tspan></text>
    <g id="publico-objetivo" transform="translate(500 7262)">
      <g id="Grupo_135115" data-name="Grupo 135115" transform="translate(0 0)">
        <path id="Trazado_196628" data-name="Trazado 196628" d="M30.24,50.833v1.12a.89.89,0,0,0,.381.73,21.046,21.046,0,0,0,3.264,1.867.891.891,0,1,0,.742-1.619,19.247,19.247,0,0,1-2.606-1.45v-.648a10.663,10.663,0,0,1,21.326,0v.649a19.382,19.382,0,0,1-15.009,2.712.891.891,0,1,0-.4,1.736,21.158,21.158,0,0,0,16.81-3.246.891.891,0,0,0,.381-.73v-1.12A12.46,12.46,0,0,0,46.839,39.1a8.5,8.5,0,0,0,4.137-5.427.891.891,0,1,0-1.73-.423,6.754,6.754,0,1,1-.053-3.431.891.891,0,0,0,1.716-.479,8.537,8.537,0,1,0-12.36,9.76A12.463,12.463,0,0,0,30.24,50.833Z" transform="translate(-12.286 -9.385)" fill="#6677d6"/>
        <path id="Trazado_196629" data-name="Trazado 196629" d="M58.124,27.726H54.892A24.642,24.642,0,0,0,33.07,5.9V2.672a2.672,2.672,0,0,0-5.343,0V5.9A24.515,24.515,0,0,0,10.068,16.474a.891.891,0,1,0,1.469,1.008A22.743,22.743,0,0,1,27.726,7.7V9.8a2.672,2.672,0,0,0,5.343,0V7.7A22.992,22.992,0,0,1,53.1,27.726H51a2.672,2.672,0,1,0,0,5.343h2.1A22.992,22.992,0,0,1,33.07,53.1V51a2.672,2.672,0,0,0-5.343,0v2.1A22.992,22.992,0,0,1,7.7,33.07H9.8a2.672,2.672,0,1,0,0-5.343h-2.1a22.66,22.66,0,0,1,1.765-6.51A.891.891,0,0,0,7.828,20.5,24.437,24.437,0,0,0,5.9,27.726H2.672a2.672,2.672,0,1,0,0,5.343H5.9A24.642,24.642,0,0,0,27.726,54.892v3.232a2.672,2.672,0,0,0,5.343,0V54.892A24.642,24.642,0,0,0,54.892,33.07h3.232a2.672,2.672,0,1,0,0-5.343ZM31.288,9.8a.891.891,0,0,1-1.781,0V2.672a.891.891,0,0,1,1.781,0ZM1.781,30.4a.891.891,0,0,1,.891-.891H9.8a.891.891,0,1,1,0,1.781H2.672A.891.891,0,0,1,1.781,30.4ZM31.288,58.124a.891.891,0,0,1-1.781,0V51a.891.891,0,0,1,1.781,0ZM58.124,31.288H51a.891.891,0,0,1,0-1.781h7.125a.891.891,0,0,1,0,1.781Z" transform="translate(0 0)" fill="#6677d6"/>
      </g>
    </g>
    <g id="tierra" transform="translate(1055 7262)">
      <g id="Grupo_135116" data-name="Grupo 135116">
        <path id="Trazado_196630" data-name="Trazado 196630" d="M34.9,19.754a5.13,5.13,0,0,0-4.077,3.413,10.092,10.092,0,0,1-1.075,2.358,1.941,1.941,0,0,0,1.086,2.938,8.343,8.343,0,0,0,2.284.363,3.35,3.35,0,0,0,3.476-2.392,2.846,2.846,0,0,1,.838-1.311,3.127,3.127,0,0,0,1.126-2.228A3,3,0,0,0,37.7,20.62a3.043,3.043,0,0,0-2.807-.866Zm1.528,2.106a1.24,1.24,0,0,1,.352.939,1.342,1.342,0,0,1-.486.954,4.592,4.592,0,0,0-1.387,2.11c-.177.522-.591,1.746-3.582.887a.161.161,0,0,1-.091-.244,11.836,11.836,0,0,0,1.279-2.78A3.336,3.336,0,0,1,35.255,21.5a1.3,1.3,0,0,1,.259-.026A1.268,1.268,0,0,1,36.426,21.86Z" transform="translate(-11.954 -8)" fill="#4e2e8e"/>
        <path id="Trazado_196631" data-name="Trazado 196631" d="M30.4,0A30.4,30.4,0,1,0,51.377,52.4a.891.891,0,0,0-1.229-1.289,28.616,28.616,0,0,1-30.123,5.961,5.974,5.974,0,0,0-.579-4.8c-1.159-2.14-1.237-3.251-.381-5.406a.891.891,0,1,0-1.655-.658,6.986,6.986,0,0,0,.47,6.912,4.251,4.251,0,0,1,.5,3.248A28.615,28.615,0,0,1,21.205,3.3c.125,1.605-.077,3.754-1.688,5.1a16.553,16.553,0,0,1-2.9,1.836c-2.324,1.25-4.519,2.43-4.707,6.565-.1,2.1-1.2,2.64-2.589,3.327-1.486.733-3.336,1.645-3.189,4.672.157,3.239,2.529,4.177,4.622,5,1.634.646,3.178,1.257,3.932,2.855A7.2,7.2,0,0,0,18.7,35.991c1.148.524,1.863.877,2.087,1.5s-.011,1.673-.7,3.1c-.29.594-.562,1.145-.816,1.658l-.064.13a.89.89,0,1,0,1.6.789l.064-.13c.255-.516.528-1.069.82-1.666.939-1.923,1.187-3.346.781-4.478-.489-1.362-1.777-1.951-3.024-2.52A5.618,5.618,0,0,1,16.3,31.892c-1.055-2.235-3.091-3.04-4.888-3.751-2.17-.858-3.4-1.44-3.5-3.434-.09-1.861.82-2.31,2.2-2.989,1.532-.755,3.438-1.7,3.581-4.844.142-3.126,1.586-3.9,3.771-5.077A18.248,18.248,0,0,0,20.657,9.76C23,7.807,23.166,4.8,22.944,2.768a28.426,28.426,0,0,1,4.392-.823,4.612,4.612,0,0,0,2.658,3.036C32.126,6.065,34.14,7.089,34.4,8a1.135,1.135,0,0,1-.242.94,3.048,3.048,0,0,0-.278,3.406,3.317,3.317,0,0,0,3.276,1.274,8.3,8.3,0,0,0,2.885-1.258c1.749-1.017,3.048-1.682,3.842-.978A5.094,5.094,0,0,1,45.684,15.3c-.067.377-.226.439-.294.466a9.529,9.529,0,0,1-2.246-.118c-3-.341-8.008-.912-9.655,3.23-1.361,3.424-1.506,6.419-.42,8.661A7.235,7.235,0,0,0,37.8,31.252a21.926,21.926,0,0,0,4.629.821,5.05,5.05,0,0,1,1.915.366c.207.134.462.431.6,1.547a6.334,6.334,0,0,1-.883,3.943,7.637,7.637,0,0,0-1.019,4.409c.312,3,.535,5.887,2.252,6.621a2.745,2.745,0,0,0,2.742-.667c3.193-2.476,7.994-10.828,8.24-15.34.031-.574.044-1.162.056-1.731.06-2.793.114-5.253,2.042-6.82a28.628,28.628,0,0,1-5.518,23.725.891.891,0,1,0,1.4,1.1A30.4,30.4,0,0,0,30.4,0ZM55.143,16.038a5.553,5.553,0,0,1-2.856.194,1.2,1.2,0,0,1-.909-.983c-.031-.542.438-1.362,1.789-2.164a28.727,28.727,0,0,1,1.976,2.954ZM49.6,15.351a2.954,2.954,0,0,0,2.092,2.56,7.894,7.894,0,0,0,4.325-.254,28.417,28.417,0,0,1,1.9,4.885c-3.218,2.038-3.294,5.535-3.36,8.641-.012.554-.024,1.127-.054,1.672-.216,3.956-4.754,11.859-7.553,14.029-.554.429-.858.477-.95.437-.037-.016-.366-.188-.662-1.42a31.357,31.357,0,0,1-.518-3.75,5.925,5.925,0,0,1,.852-3.449,8.077,8.077,0,0,0,1.046-4.941c-.4-3.13-2.044-3.277-4.128-3.463a20.071,20.071,0,0,1-4.279-.754,5.536,5.536,0,0,1-3.639-2.781c-1.09-2.249-.345-5.171.472-7.226.732-1.84,2.509-2.339,4.7-2.339a28.042,28.042,0,0,1,3.1.221,7.347,7.347,0,0,0,3.1.006,2.272,2.272,0,0,0,1.4-1.813c.3-1.7-.721-4.092-2.378-5.56-1.819-1.611-4.092-.29-5.918.772a7.646,7.646,0,0,1-2.2,1.029,1.632,1.632,0,0,1-1.564-.46c-.209-.33-.1-.88.287-1.511a2.9,2.9,0,0,0,.445-2.359c-.466-1.668-2.6-2.754-5.31-4.13A3.16,3.16,0,0,1,29.155,1.81c.212-.009.486-.018.56-.02.227-.005.455-.009.683-.009a28.556,28.556,0,0,1,21.639,9.91c-1.637,1.041-2.513,2.34-2.437,3.66Z" fill="#4e2e8e"/>
      </g>
    </g>
    <g id="demografico" transform="translate(500 7557)">
      <g id="Grupo_135117" data-name="Grupo 135117" transform="translate(0 0)">
        <path id="Trazado_196632" data-name="Trazado 196632" d="M51.89,8.9A30.474,30.474,0,0,0,19.107,2.166a.891.891,0,1,0,.662,1.653C37.957-3.628,58.578,9.857,59,29.506H52.925C52.346,10.54,28.946.772,15.1,13.843l-4.3-4.3a28.762,28.762,0,0,1,4.889-3.7.891.891,0,1,0-.917-1.527A30.531,30.531,0,0,0,8.9,8.9l0,0C-10.173,27.913,3.471,60.841,30.4,60.794,57.377,60.769,70.951,28,51.89,8.9ZM51.161,30.4c-1.044,27.51-40.491,27.5-41.531,0A20.625,20.625,0,0,1,15.719,15.72C28.549,2.664,51.28,12.1,51.161,30.4Zm-49.382,0A28.416,28.416,0,0,1,9.54,10.8l4.3,4.3C.767,28.952,10.547,52.35,29.5,52.926V59C14.475,58.842,1.47,45.444,1.779,30.4ZM50.631,50.632A28.416,28.416,0,0,1,31.286,59V52.926A22.577,22.577,0,0,0,52.925,31.287H59A28.416,28.416,0,0,1,50.631,50.632Z" transform="translate(-0.004 0)" fill="#4e2e8e"/>
        <path id="Trazado_196633" data-name="Trazado 196633" d="M24.548,46.107a2.907,2.907,0,0,0,2.74,3.724h4.585a9.244,9.244,0,0,0-.523,1.3,2.907,2.907,0,0,0,2.74,3.724h5.987a.891.891,0,0,0,0-1.781H34.091a1.087,1.087,0,0,1-1.042-1.407,7.671,7.671,0,0,1,4.632-4.854.891.891,0,0,0,.249-1.531,3.822,3.822,0,1,1,6.2-3.151A3.793,3.793,0,0,1,42.7,45.285a.89.89,0,0,0,.249,1.531,7.671,7.671,0,0,1,4.632,4.854,1.087,1.087,0,0,1-1.042,1.407H44.933a.891.891,0,0,0,0,1.781h1.608a2.907,2.907,0,0,0,2.74-3.724,9.245,9.245,0,0,0-.523-1.3h4.585a2.907,2.907,0,0,0,2.74-3.724,9.472,9.472,0,0,0-4.507-5.442,5.632,5.632,0,0,0,1.14-3.632,5.722,5.722,0,0,0-5.6-5.361,5.654,5.654,0,0,0-5.586,5.16,5.633,5.633,0,0,0-2.433,0,5.6,5.6,0,1,0-10.046,3.837,9.473,9.473,0,0,0-4.5,5.441ZM43.3,37.275a3.822,3.822,0,0,1,7.641-.167A3.793,3.793,0,0,1,49.5,40.259a.89.89,0,0,0,.249,1.531,7.671,7.671,0,0,1,4.632,4.854,1.087,1.087,0,0,1-1.042,1.407H47.615a9.5,9.5,0,0,0-2.841-2.36,5.632,5.632,0,0,0,1.14-3.632,5.707,5.707,0,0,0-2.606-4.488q-.011-.147-.011-.3ZM30.879,41.79a.891.891,0,0,0,.249-1.531,3.835,3.835,0,0,1,2.386-6.806,3.882,3.882,0,0,1,3.811,4.107,5.652,5.652,0,0,0-1.47,8.132,9.5,9.5,0,0,0-2.838,2.358H27.289a1.087,1.087,0,0,1-1.042-1.407,7.67,7.67,0,0,1,4.632-4.854Z" transform="translate(-9.924 -12.868)" fill="#4e2e8e"/>
      </g>
    </g>
    <g id="cerebro" transform="translate(1055 7561)">
      <g id="Grupo_135114" data-name="Grupo 135114" transform="translate(0 0)">
        <path id="Trazado_196597" data-name="Trazado 196597" d="M59.87,36.11a.891.891,0,0,0-1.048.7,9.95,9.95,0,0,1-9.37,7.981c-.067,0-.319.01-.384.01a9.866,9.866,0,0,1-7.149-3.032.891.891,0,1,0-1.28,1.238,11.619,11.619,0,0,0,7.2,3.511,11.668,11.668,0,0,1-1.827,1.851.891.891,0,0,0-.311.874l1.495,7.177a.891.891,0,0,1-.872,1.072H41.782a21.336,21.336,0,0,0-8.375-7.807,11.608,11.608,0,0,1-1.605-1,13.33,13.33,0,0,0,2.057-1.18.891.891,0,1,0-1.021-1.459,11.661,11.661,0,0,1-12.089.755.919.919,0,0,0-.084-.052,5.109,5.109,0,0,1-2.078-6.265,4.8,4.8,0,0,1,3.195-2.795,4.925,4.925,0,0,1,4.285.8,8.953,8.953,0,0,0,5.4,1.792,10.322,10.322,0,0,0,5.314-1.1c1.686-1.006,2.78-2.766,3.345-5.376a14.393,14.393,0,0,1,1-3.03,8.661,8.661,0,0,1,7.58-5.193,14.665,14.665,0,0,1,5.051.506,9.9,9.9,0,0,1,5.072,6.866.891.891,0,1,0,1.748-.339,11.659,11.659,0,0,0-5.473-7.81A11.732,11.732,0,0,0,40.122,11.559a11.72,11.72,0,0,0-17.393-1.186,11.733,11.733,0,0,0-7.092-.123.891.891,0,0,0,.509,1.707,9.947,9.947,0,0,1,6.49.277l.035.011a9.921,9.921,0,0,1,1.321.643,8.129,8.129,0,0,1,2,1.533,6.109,6.109,0,0,1-.174,8.691,13.36,13.36,0,0,0-4.113.759.891.891,0,0,0,.594,1.679,11.6,11.6,0,0,1,3.881-.664,15.3,15.3,0,0,1,3.762.5,10.582,10.582,0,0,0,2.443.37,5.384,5.384,0,0,0,4.6-2.531,5.74,5.74,0,0,0,.129-5.66.891.891,0,0,0-1.6.783,3.948,3.948,0,0,1-.04,3.935,3.613,3.613,0,0,1-3.092,1.693,9.134,9.134,0,0,1-2.04-.323,20.976,20.976,0,0,0-2.288-.433,7.65,7.65,0,0,0,1.448-4.385,8.288,8.288,0,0,0-2.191-5.6,9.819,9.819,0,0,0-2.426-1.879q-.178-.1-.36-.2a9.825,9.825,0,0,1,6.363-2.306,9.959,9.959,0,0,1,8.169,4.275c.005.008.012.014.018.021a9.889,9.889,0,0,1,1.759,5.649,10.013,10.013,0,0,1-.261,2.277,19.6,19.6,0,0,0-.249,7.489,12.234,12.234,0,0,0-.81,1.458,16.177,16.177,0,0,0-1.132,3.409c-.923,4.266-3.144,5.075-6.919,5.075a7.186,7.186,0,0,1-4.333-1.437,6.693,6.693,0,0,0-5.823-1.086,6.567,6.567,0,0,0-4.368,3.832,6.776,6.776,0,0,0-.485,3.08q-.064-.1-.126-.2h.008a11.62,11.62,0,0,1-.952-10.506c.006-.015.012-.029.017-.044a11.619,11.619,0,0,1,3.487-4.683.891.891,0,1,0-1.118-1.387,13.42,13.42,0,0,0-3.588,4.446,13.7,13.7,0,0,1-5.141-9.08,8.129,8.129,0,0,1,.082-1.22c.036-.287.087-.575.149-.858,0-.01.006-.019.008-.029a9.982,9.982,0,0,1,3.471-5.586.891.891,0,1,0-1.119-1.386,11.781,11.781,0,0,0-3.986,6.151A13.491,13.491,0,0,0,15.1,44.063,13.422,13.422,0,0,0,29.859,49.41a13.415,13.415,0,0,0,2.735,1.86,19.557,19.557,0,0,1,7.678,7.168,1.75,1.75,0,0,0,1.5.835h4.552a2.672,2.672,0,0,0,2.616-3.216L47.551,49.4A13.4,13.4,0,0,0,50,46.541a11.731,11.731,0,0,0,10.567-9.384.89.89,0,0,0-.7-1.047ZM53.5,22.773a9.911,9.911,0,0,1-.1,1.381,16.388,16.388,0,0,0-4.786-.356A10.714,10.714,0,0,0,41.9,26.645a17.453,17.453,0,0,1,.405-5.172,11.738,11.738,0,0,0,.247-3.87A4.895,4.895,0,0,1,46.9,18.958.89.89,0,1,0,48.161,17.7a6.671,6.671,0,0,0-5.915-1.851,11.622,11.622,0,0,0-1.087-2.726A9.944,9.944,0,0,1,53.5,22.773Zm-51.722,7.9a11.72,11.72,0,0,1,5.5-9.929,6.485,6.485,0,0,0-.018.8A15.483,15.483,0,0,0,13.48,32.2q-.116.344-.214.695a4.608,4.608,0,0,1-1.708.324,4.676,4.676,0,0,1-4.446-3.3.891.891,0,0,0-1.7.516,6.43,6.43,0,0,0,7.466,4.426,13.566,13.566,0,0,0-.1,1.648,13.312,13.312,0,0,0,1.345,5.845c-.209.011-.419.019-.627.019A11.722,11.722,0,0,1,1.781,30.669Z" transform="translate(0 -7.062)" fill="#6677d6"/>
        <path id="Trazado_196598" data-name="Trazado 196598" d="M25.284,23.457a5.068,5.068,0,0,1,7.1,0,.891.891,0,0,0,1.247-1.271,6.849,6.849,0,0,0-9.6,0,.891.891,0,0,0,1.247,1.271Z" transform="translate(-9.657 -12.41)" fill="#6677d6"/>
        <path id="Trazado_196599" data-name="Trazado 196599" d="M76.643,53.709a4.5,4.5,0,0,1-3.165-1.291.89.89,0,1,0-1.245,1.273,6.308,6.308,0,0,0,8.92-8.92.891.891,0,0,0-1.273,1.245,4.527,4.527,0,0,1-3.236,7.693Z" transform="translate(-29.239 -22.274)" fill="#6677d6"/>
        <path id="Trazado_196600" data-name="Trazado 196600" d="M46.609,50.08a6.676,6.676,0,0,0,5.909-3.558.891.891,0,1,0-1.574-.835,4.9,4.9,0,0,1-8.671,0,.891.891,0,1,0-1.574.835A6.676,6.676,0,0,0,46.609,50.08Z" transform="translate(-16.494 -22.563)" fill="#6677d6"/>
      </g>
    </g>
  </g>
</svg>
