<svg xmlns="http://www.w3.org/2000/svg" width="91.924" height="124.595" viewBox="0 0 91.924 124.595">
  <g id="Grupo_135370" data-name="Grupo 135370" transform="translate(-1293.038 -347.518)">
    <g id="Grupo_114642" data-name="Grupo 114642" transform="translate(-184.334 -75.027)">
      <path id="Trazado_163577" data-name="Trazado 163577" d="M1413.036,996.118V953.585l3.226-35.06v51.209Z" transform="translate(64.336 -470.377)" fill="#3f2572"/>
      <g id="Grupo_114641" data-name="Grupo 114641" transform="translate(11679.333 12451)">
        <path id="Trazado_163573" data-name="Trazado 163573" d="M1497.676,985.9V969.48l-37.064-21.4-37.065,21.4V985.9h-7.284l-3.226,26.383,37.064,21.4,37.065-21.4L1504.96,985.9Z" transform="translate(-11614.997 -12937.537)" fill="#4e2e8e"/>
        <path id="Trazado_163574" data-name="Trazado 163574" d="M1497.675,985.9V969.48l-37.064-21.4-37.065,21.4V985.9h-7.284l-3.226,26.383,37.065,21.4,37.065-21.4,17.794-26.383Z" transform="translate(-11614.997 -12937.537)" fill="#030403" opacity="0.2" style="mix-blend-mode: multiply;isolation: isolate"/>
        <path id="Trazado_163575" data-name="Trazado 163575" d="M1464.5,862.029l-44.348,25.6v51.209l44.348,25.6,44.349-25.6V887.633Z" transform="translate(-11618.891 -12890.483)" fill="#4e2e8e"/>
        <path id="Trazado_163576" data-name="Trazado 163576" d="M1473.292,880.587l-37.065,21.4v42.8l37.065,21.4,37.065-21.4v-42.8Z" transform="translate(-11627.678 -12900.632)" fill="#fff"/>
      </g>
    </g>
    <g id="objetivo_2_" data-name="objetivo (2)" transform="translate(1314.333 371.9)">
      <path id="Trazado_194606" data-name="Trazado 194606" d="M54.992,46.129a5.1,5.1,0,0,0-3.147-1.318,4.5,4.5,0,0,0-3.461,1.317l-6.263,6.2a4.157,4.157,0,0,0-.424-.6A4.06,4.06,0,0,0,38.526,50.3H29.759a17.981,17.981,0,0,1-4.793-.637,11.793,11.793,0,0,0-11,2.328A16,16,0,0,0,11.1,55.068L9.528,53.543a1.117,1.117,0,0,0-.775-.315H8.746a1.12,1.12,0,0,0-.795.341L.31,61.5a1.109,1.109,0,0,0,.034,1.571L13.268,75.379a1.108,1.108,0,0,0,1.558-.029l7.57-7.767a1.114,1.114,0,0,0-.022-1.577l-.659-.639,1.509-.17a23.979,23.979,0,0,1,2.76-.16H39.322a10.014,10.014,0,0,0,5.472-1.409l.036-.024a7.384,7.384,0,0,0,1.413-1.283l8.989-10.575a3.87,3.87,0,0,0-.24-5.618ZM14,73.02,2.679,62.237l6.1-6.333L20.038,66.829Zm39.54-22.707L44.555,60.888a5.179,5.179,0,0,1-.973.886,7.879,7.879,0,0,1-4.26,1.049H25.983A26.162,26.162,0,0,0,22.972,63l-3.316.372-6.944-6.739a13.819,13.819,0,0,1,2.655-2.921A9.537,9.537,0,0,1,24.375,51.8a20.194,20.194,0,0,0,5.384.717h8.767a2,2,0,0,1,1.995,2.17A2.4,2.4,0,0,1,40,56.225a1.883,1.883,0,0,1-1.511.634H30.859a1.108,1.108,0,0,0,0,2.216h7.632a4.109,4.109,0,0,0,3.2-1.415,4.55,4.55,0,0,0,1.044-2.823L49.947,47.7a2.594,2.594,0,0,1,3.542.059,1.669,1.669,0,0,1,.054,2.554Zm0,0" transform="translate(0 -20.116)" fill="#4e2e8e"/>
      <path id="Trazado_194607" data-name="Trazado 194607" d="M48.034,67.5a1.108,1.108,0,1,0-2.157.506l.01.045a1.109,1.109,0,0,0,1.078.855,1.121,1.121,0,0,0,.254-.029,1.108,1.108,0,0,0,.826-1.332Zm0,0" transform="translate(-20.63 -29.943)" fill="#4e2e8e"/>
      <path id="Trazado_194608" data-name="Trazado 194608" d="M11.421,23.476h10.8a2.666,2.666,0,0,0,1.574-.513,2.666,2.666,0,0,0,1.574.513h10.8a2.666,2.666,0,0,0,1.574-.513,2.666,2.666,0,0,0,1.574.513h10.8a2.686,2.686,0,0,0,2.682-2.683V15.759a5.809,5.809,0,0,0-3.16-5.194,6.391,6.391,0,1,0-9.841,0,5.8,5.8,0,0,0-2.052,1.759,5.793,5.793,0,0,0-2.052-1.759,6.391,6.391,0,1,0-9.841,0,5.793,5.793,0,0,0-2.052,1.759,5.8,5.8,0,0,0-2.052-1.76,6.391,6.391,0,1,0-9.841,0,5.81,5.81,0,0,0-3.16,5.194v5.034a2.686,2.686,0,0,0,2.683,2.683ZM44.709,2.316a4.175,4.175,0,1,1-4.175,4.175A4.18,4.18,0,0,1,44.709,2.316Zm-2.879,9.879a6.368,6.368,0,0,0,5.756,0,3.6,3.6,0,0,1,2.986,3.564v5.034a.467.467,0,0,1-.467.467h-10.8a.467.467,0,0,1-.466-.467V15.759a3.6,3.6,0,0,1,2.986-3.564ZM30.764,2.316a4.175,4.175,0,1,1-4.175,4.175A4.18,4.18,0,0,1,30.764,2.316Zm-2.878,9.879a6.368,6.368,0,0,0,5.756,0,3.6,3.6,0,0,1,2.986,3.564v5.034a.467.467,0,0,1-.467.467h-10.8a.467.467,0,0,1-.467-.467V15.759a3.6,3.6,0,0,1,2.986-3.564ZM16.819,2.316a4.175,4.175,0,1,1-4.175,4.175A4.18,4.18,0,0,1,16.819,2.316ZM10.954,15.759a3.6,3.6,0,0,1,2.986-3.564,6.368,6.368,0,0,0,5.756,0,3.6,3.6,0,0,1,2.986,3.564v5.034a.467.467,0,0,1-.467.467h-10.8a.467.467,0,0,1-.467-.467Zm0,0" transform="translate(-3.932 0)" fill="#4e2e8e"/>
    </g>
  </g>
</svg>
