<svg xmlns="http://www.w3.org/2000/svg" width="91.924" height="124.595" viewBox="0 0 91.924 124.595">
  <g id="Grupo_135411" data-name="Grupo 135411" transform="translate(-961.386 -99.554)">
    <g id="Grupo_114644" data-name="Grupo 114644">
      <path id="Trazado_163579" data-name="Trazado 163579" d="M816.213,985.9V969.48l37.065-21.4,37.065,21.4V985.9h7.284l3.226,26.383-37.065,21.4-37.065-21.4L808.929,985.9Z" transform="translate(152.457 -809.528)" fill="#c6412a"/>
      <path id="Trazado_163581" data-name="Trazado 163581" d="M853.278,862.029l44.348,25.6v51.209l-44.348,25.6-44.348-25.6V887.633Z" transform="translate(152.457 -762.475)" fill="#c6412a"/>
      <path id="Trazado_163582" data-name="Trazado 163582" d="M862.066,880.587l37.065,21.4v42.8l-37.065,21.4L825,944.785v-42.8Z" transform="translate(143.669 -772.623)" fill="#fff"/>
      <path id="Trazado_163583" data-name="Trazado 163583" d="M1007.868,996.118V953.585l-3.226-35.06v51.209Z" transform="translate(45.442 -793.367)" fill="#c6412a"/>
      <path id="Trazado_163600" data-name="Trazado 163600" d="M897.627,987.513l3.226,26.383-37.065,21.4-37.065-21.4L808.93,987.513l45.4,26.383Z" transform="translate(152.456 -811.146)" fill="#030403" opacity="0.2" style="mix-blend-mode: multiply;isolation: isolate"/>
      <path id="Trazado_163601" data-name="Trazado 163601" d="M1007.868,996.118V953.585l-3.226-35.06v51.209Z" transform="translate(45.442 -793.367)" fill="#030403" opacity="0.1" style="mix-blend-mode: multiply;isolation: isolate"/>
    </g>
    <g id="mercadeo-en-linea" transform="translate(977.89 119.104)">
      <path id="Trazado_194595" data-name="Trazado 194595" d="M14.191,52.059a1.148,1.148,0,0,1-.609-.174A28.12,28.12,0,1,1,55.668,20.953a1.153,1.153,0,1,1-2.232.576A25.815,25.815,0,1,0,14.8,49.929a1.153,1.153,0,0,1-.611,2.131Z" transform="translate(0 0)" fill="#c6412a"/>
      <path id="Trazado_194596" data-name="Trazado 194596" d="M13.395,39.724a1.153,1.153,0,0,1-.752-.279c-4.613-3.968-5.189-4.77-5.336-5.083a11.826,11.826,0,0,0-2.171-1.605C4.3,32.342.794,28.362.4,26.014l2.274-.379c.247,1.482,2.967,4.639,3.58,5.112.464.27,2.579,1.549,3.1,2.567.313.4,1.89,1.85,3.544,3.3a8.221,8.221,0,0,0,.5-2.04c-.617-.844-1.987-2.56-2.249-2.814-.442-.4-1.779-2.284-1.676-3.6a1.6,1.6,0,0,1,.792-1.3c.846-.483,2.305-.346,4.127-.119.209.026.457.057.607.071a5.29,5.29,0,0,0,2.153-2.24c.586-1.908,2.944-4.255,5.366-5.346,2.131-.959,2.685-1.092,3.581-1.109a8.042,8.042,0,0,0,1.131-2.3,3.722,3.722,0,0,0,.26-2.387,9.258,9.258,0,0,0-2.545-1.714c-1.532-.838-2.979-1.629-3.43-2.81-.412-1.081-.4-3.642.044-7.616l2.291.254c-.476,4.288-.338,6.129-.181,6.541a8.343,8.343,0,0,0,2.381,1.608,10.01,10.01,0,0,1,3.315,2.4c1.422,1.991-.467,5.8-.687,6.227-.738,1.436-1.46,2.1-2.271,2.1-.749,0-.927,0-2.945.909a8.463,8.463,0,0,0-4.109,3.922c-.553,1.8-3.045,3.875-4.253,3.875a9.264,9.264,0,0,1-1-.1c-.459-.058-1.471-.184-2.158-.193a6.349,6.349,0,0,0,.736,1.206,41.675,41.675,0,0,1,2.683,3.32c.231.325.937,1.312-.914,5.658a1.153,1.153,0,0,1-1.06.7Zm-3.981-6.3v0Zm1.738-1.661c.013.012.024.021.034.029l-.034-.03ZM6.167,30.694l.088.05a.61.61,0,0,0-.088-.05Zm6.459-.7c.016.013.033.028.052.045a.613.613,0,0,0-.052-.044Z" transform="translate(0.012 0.213)" fill="#c6412a"/>
      <path id="Trazado_194597" data-name="Trazado 194597" d="M35.952,20.584a2.506,2.506,0,0,1-1.071-.277c-.787-.374-2.118-1.373-2.118-2.74,0-.84,0-2.533-.071-3.255a2.5,2.5,0,0,1-.8-2.246,1.821,1.821,0,0,1,.675-1.293c1.206-1.01,3.931-.838,5.046-.718a10.428,10.428,0,0,1,3.6.73,5,5,0,0,1,1.309,1.591c.175.279.357.568.537.812a2.04,2.04,0,0,1,.294,1.8,3.807,3.807,0,0,1-1.948,2.229,8.86,8.86,0,0,1-1.373.348,10.085,10.085,0,0,0-1.992.54c-.148.08-.352.65-.438.894a2.657,2.657,0,0,1-.738,1.268,1.414,1.414,0,0,1-.914.314Zm-.884-3.052a1.417,1.417,0,0,0,.444.473,3.366,3.366,0,0,1,1.432-1.923,10.462,10.462,0,0,1,2.624-.771c.354-.073.839-.174.972-.226a1.79,1.79,0,0,0,.576-.653c-.2-.275-.372-.557-.543-.83a6.851,6.851,0,0,0-.6-.873,12.689,12.689,0,0,0-2.475-.375l-.124-.006a9.235,9.235,0,0,0-3.176.123.66.66,0,0,0,.013.1c.018.019.049.047.073.069a1.977,1.977,0,0,1,.683,1.234,36.559,36.559,0,0,1,.106,3.659Z" transform="translate(4.818 1.537)" fill="#c6412a"/>
      <path id="Trazado_194598" data-name="Trazado 194598" d="M17.1,35.77a1.168,1.168,0,0,1-1.1-.8c-.346-1.039-.113-4.654,1.773-5.371a3.911,3.911,0,0,0,.527-.289,3.841,3.841,0,0,1,4.7.014c1.023.682,1.308.524,1.7.307a2.43,2.43,0,0,1,.894-.334,1.787,1.787,0,0,1,1.972,1.4l.017.045a1.153,1.153,0,0,1-2.039,1.049c-.692.344-1.916.724-3.827-.55a1.634,1.634,0,0,0-2.223.038,5.872,5.872,0,0,1-.834.446,4.794,4.794,0,0,0-.469,2.536A1.15,1.15,0,0,1,17.1,35.771Z" transform="translate(2.372 4.369)" fill="#c6412a"/>
      <path id="Trazado_194599" data-name="Trazado 194599" d="M19.954,48.941a3.5,3.5,0,0,1-3.146-1.977l-2.351-4.88a3.493,3.493,0,0,1,1.629-4.657L24.5,33.375a1.153,1.153,0,0,1,1.539.538L30.417,43a1.153,1.153,0,0,1-.538,1.539l-8.413,4.052A3.477,3.477,0,0,1,19.954,48.941Zm4.508-12.99L17.087,39.5a1.185,1.185,0,0,0-.553,1.58l2.351,4.88a1.184,1.184,0,0,0,1.58.553l7.374-3.552Z" transform="translate(2.104 5.093)" fill="#c6412a"/>
      <path id="Trazado_194600" data-name="Trazado 194600" d="M28.089,46.535a1.153,1.153,0,0,1-.4-2.235c.517-.19,11.467-4.169,18.7-3.323L38.565,24.726C34.717,30.91,24.779,36.991,24.309,37.277a1.153,1.153,0,1,1-1.2-1.971c.122-.074,12.25-7.5,14.38-13.585a1.153,1.153,0,0,1,2.127-.12l9.873,20.5a1.153,1.153,0,0,1-1.419,1.588c-6.089-2.131-19.452,2.726-19.587,2.775a1.149,1.149,0,0,1-.4.071Z" transform="translate(3.394 3.214)" fill="#c6412a"/>
      <path id="Trazado_194601" data-name="Trazado 194601" d="M42.647,35.832a1.153,1.153,0,0,1-.5-2.191,2.413,2.413,0,1,0-2.094-4.348,1.153,1.153,0,1,1-1-2.077,4.718,4.718,0,0,1,4.095,8.5,1.148,1.148,0,0,1-.5.115Z" transform="translate(5.812 4.099)" fill="#c6412a"/>
      <path id="Trazado_194602" data-name="Trazado 194602" d="M27.249,52.724a1.153,1.153,0,0,1-1.039-.653l-3.469-7.2a1.153,1.153,0,0,1,.538-1.539l4.3-2.07a1.153,1.153,0,0,1,1.539.538L32.585,49a1.153,1.153,0,0,1-.538,1.539l-4.3,2.07a1.148,1.148,0,0,1-.5.114Zm-1.931-7.815,2.468,5.125,2.221-1.07-2.468-5.125Z" transform="translate(3.404 6.297)" fill="#c6412a"/>
      <path id="Trazado_194603" data-name="Trazado 194603" d="M46.8,29.508a1.153,1.153,0,0,1-.5-2.191l3.235-1.558a1.153,1.153,0,0,1,1,2.077L47.3,29.393A1.148,1.148,0,0,1,46.8,29.508Z" transform="translate(6.919 3.931)" fill="#c6412a"/>
      <path id="Trazado_194604" data-name="Trazado 194604" d="M43.06,26.405a1.153,1.153,0,0,1-1.088-1.533l1.186-3.389a1.153,1.153,0,1,1,2.176.761l-1.185,3.389A1.153,1.153,0,0,1,43.06,26.405Z" transform="translate(6.347 3.177)" fill="#c6412a"/>
      <path id="Trazado_194605" data-name="Trazado 194605" d="M50.474,35.5a1.153,1.153,0,0,1-.381-.065L46.7,34.248a1.153,1.153,0,1,1,.761-2.176l3.389,1.186a1.153,1.153,0,0,1-.381,2.241Z" transform="translate(6.962 4.902)" fill="#c6412a"/>
    </g>
  </g>
</svg>
