<svg xmlns="http://www.w3.org/2000/svg" width="88.698" height="124.596" viewBox="0 0 88.698 124.596">
  <g id="Grupo_135369" data-name="Grupo 135369" transform="translate(-909.771 -385.403)">
    <g id="Grupo_114643" data-name="Grupo 114643">
      <path id="Trazado_163569" data-name="Trazado 163569" d="M1195.956,1032.494v-16.416l-37.065-21.4-37.064,21.4v16.416h-7.284l7.284,26.383,37.064,21.4,37.065-21.4,7.284-26.383Z" transform="translate(-204.771 -570.276)" fill="#ffef0f"/>
      <path id="Trazado_163571" data-name="Trazado 163571" d="M1158.891,908.627l-44.348,25.6v51.209l44.348,25.6,44.348-25.6V934.231Z" transform="translate(-204.771 -523.224)" fill="#ffef0f"/>
      <path id="Trazado_163572" data-name="Trazado 163572" d="M1167.679,927.185l-37.065,21.4v42.8l37.065,21.4,37.064-21.4v-42.8Z" transform="translate(-213.559 -533.37)" fill="#fff"/>
      <path id="Trazado_163731" data-name="Trazado 163731" d="M1114.542,1032.494l7.284,26.383,37.064,21.4,37.065-21.4,7.284-26.383-44.348,26.383Z" transform="translate(-204.771 -570.276)" fill="#030403" opacity="0.2" style="mix-blend-mode: multiply;isolation: isolate"/>
    </g>
    <g id="medallas" transform="translate(927.127 405.6)">
      <g id="Line" transform="translate(1.206 0.4)">
        <path id="Trazado_194592" data-name="Trazado 194592" d="M4.635,15.4l1.948,1.41a1.343,1.343,0,0,1,.5,1.5l-.752,2.3a4.03,4.03,0,0,0,6.26,4.5c1.142-.685,2.364-2.284,3.533-1.41l1.84,1.41a4.03,4.03,0,0,0,6.206-4.5l-.7-2.3a1.343,1.343,0,0,1,.5-1.5l1.948-1.41A4.03,4.03,0,0,0,23.549,8.1H21.131a1.343,1.343,0,0,1-1.276-.927l-.752-2.3a4.03,4.03,0,0,0-7.657,0l-.752,2.3A1.343,1.343,0,0,1,9.417,8.1H7A4.03,4.03,0,0,0,4.635,15.4Zm1.088-3.681A1.343,1.343,0,0,1,7,10.79H9.417a4.03,4.03,0,0,0,3.828-2.781L14,5.712a1.343,1.343,0,0,1,2.552,0l.752,2.3a4.03,4.03,0,0,0,3.828,2.781h2.418a1.343,1.343,0,0,1,.779,2.431l-1.948,1.41a4.03,4.03,0,0,0-1.464,4.514l.739,2.3A1.343,1.343,0,0,1,19.6,22.879c-1.182-.833-2.794-2.31-4.325-2.19-1.531-.121-3.143,1.343-4.325,2.19a1.343,1.343,0,0,1-2.055-1.491l.739-2.3a4.03,4.03,0,0,0-1.464-4.514L6.22,13.167A1.343,1.343,0,0,1,5.723,11.716Z" transform="translate(8.868 9.36)" fill="#ffef0f"/>
        <path id="Trazado_194593" data-name="Trazado 194593" d="M20.806,38.813A18.806,18.806,0,1,0,2,20.006,18.806,18.806,0,0,0,20.806,38.813Zm0-34.926a16.12,16.12,0,1,1-16.12,16.12,16.12,16.12,0,0,1,16.12-16.12Z" transform="translate(3.336 4.173)" fill="#ffef0f"/>
        <path id="Trazado_194594" data-name="Trazado 194594" d="M9.376,42.688,4.244,47.806A1.343,1.343,0,0,0,5.2,50.1h8.06v8.06a1.343,1.343,0,0,0,2.3.954l9.793-9.806,9.793,9.806a1.352,1.352,0,0,0,2.3-.954V50.1H45.5a1.343,1.343,0,0,0,.954-2.3L41.32,42.688A24.18,24.18,0,0,0,25.348.4C3.116.4-7.2,28.247,9.376,42.688ZM14.6,47.416H8.435L11.5,44.367a23.978,23.978,0,0,0,10.747,4.178l-6.3,6.381V48.759A1.343,1.343,0,0,0,14.6,47.416Zm27.659,0H36.094a1.343,1.343,0,0,0-1.343,1.343v6.166l-6.367-6.381A23.978,23.978,0,0,0,39.2,44.367ZM25.348,3.087A21.493,21.493,0,0,1,46.841,24.58c-1.182,28.519-41.8,28.505-42.986,0A21.493,21.493,0,0,1,25.348,3.087Z" transform="translate(-1.206 -0.4)" fill="#ffef0f"/>
      </g>
    </g>
  </g>
</svg>
