<svg xmlns="http://www.w3.org/2000/svg" width="1242.966" height="1354.519" viewBox="0 0 1242.966 1354.519">
  <g id="Grupo_135475" data-name="Grupo 135475" transform="translate(-181.333 -498)">
    <g id="Grupo_134792" data-name="Grupo 134792">
      <path id="Trazado_175080" data-name="Trazado 175080" d="M6.75,0H249.763a6.522,6.522,0,0,1,6.75,6.267V45.752a6.522,6.522,0,0,1-6.75,6.267H6.75A6.522,6.522,0,0,1,0,45.752V6.267A6.522,6.522,0,0,1,6.75,0Z" transform="translate(711.335 498)" fill="#6677d6"/>
      <line id="Línea_347" data-name="Línea 347" y2="46.876" transform="translate(839.594 545.229)" fill="none" stroke="#6677d6" stroke-width="3"/>
      <line id="Línea_347-2" data-name="Línea 347" y2="46.876" transform="translate(839.594 758.835)" fill="none" stroke="#6677d6" stroke-width="3"/>
      <path id="Trazado_175100" data-name="Trazado 175100" d="M23.438,11.719H0L11.719,0Z" transform="translate(851.311 680.497) rotate(180)" fill="#6677d6"/>
      <line id="Línea_347-3" data-name="Línea 347" y2="46.876" transform="translate(839.594 628.104)" fill="none" stroke="#6677d6" stroke-width="3"/>
      <path id="Trazado_175100-2" data-name="Trazado 175100" d="M23.438,11.719H0L11.719,0Z" transform="translate(851.311 894.104) rotate(180)" fill="#6677d6"/>
      <line id="Línea_347-4" data-name="Línea 347" y2="46.876" transform="translate(839.594 841.711)" fill="none" stroke="#6677d6" stroke-width="3"/>
      <rect id="Rectángulo_44193" data-name="Rectángulo 44193" width="303" height="71" rx="5" transform="translate(688.335 687.835)" fill="#cdc9d7" stroke="#6677d6" stroke-miterlimit="10" stroke-width="2"/>
      <rect id="Rectángulo_42407" data-name="Rectángulo 42407" width="168.934" height="48" rx="5" transform="translate(755.535 910.13)" fill="#fff" stroke="#4752e3" stroke-miterlimit="10" stroke-width="2"/>
      <g id="Grupo_134758" data-name="Grupo 134758" transform="translate(-317.613 316.886)">
        <line id="Línea_347-5" data-name="Línea 347" y2="46.876" transform="translate(686.334 821.506)" fill="none" stroke="#6677d6" stroke-width="3"/>
      </g>
      <g id="Grupo_134765" data-name="Grupo 134765" transform="translate(-317.613 579.166)">
        <line id="Línea_347-6" data-name="Línea 347" y2="46.876" transform="translate(686.334 821.506)" fill="none" stroke="#6677d6" stroke-width="3"/>
      </g>
      <g id="Grupo_134759" data-name="Grupo 134759" transform="translate(-317.613 396.985)">
        <path id="Trazado_175100-3" data-name="Trazado 175100" d="M23.438,11.719H0L11.719,0Z" transform="translate(698.051 873.898) rotate(180)" fill="#6677d6"/>
        <line id="Línea_347-7" data-name="Línea 347" y2="46.876" transform="translate(686.334 821.506)" fill="none" stroke="#6677d6" stroke-width="3"/>
      </g>
      <g id="Grupo_134764" data-name="Grupo 134764" transform="translate(-317.613 650.913)">
        <path id="Trazado_175100-4" data-name="Trazado 175100" d="M23.438,11.719H0L11.719,0Z" transform="translate(698.051 873.898) rotate(180)" fill="#6677d6"/>
        <line id="Línea_347-8" data-name="Línea 347" y2="46.876" transform="translate(686.334 821.506)" fill="none" stroke="#6677d6" stroke-width="3"/>
      </g>
      <rect id="Rectángulo_42407-2" data-name="Rectángulo 42407" width="210" height="144" rx="5" transform="translate(263.718 1270.884)" fill="#fff" stroke="#4752e3" stroke-miterlimit="10" stroke-width="2"/>
      <rect id="Rectángulo_42407-3" data-name="Rectángulo 42407" width="210" height="147" rx="5" transform="translate(263.718 1528.683)" fill="#fff" stroke="#4752e3" stroke-miterlimit="10" stroke-width="2"/>
      <rect id="Rectángulo_42406" data-name="Rectángulo 42406" width="248.133" height="68.997" rx="5" transform="translate(246.778 1071.543)" fill="#fff" stroke="#4752e3" stroke-miterlimit="10" stroke-width="2"/>
      <g id="Elipse_16043" data-name="Elipse 16043" transform="translate(181.333 1049.63)" fill="#fff" stroke="#c6412a" stroke-width="6">
        <circle cx="53" cy="53" r="53" stroke="none"/>
        <circle cx="53" cy="53" r="50" fill="none"/>
      </g>
      <g id="Grupo_134784" data-name="Grupo 134784" transform="translate(152.508 316.886)">
        <line id="Línea_347-9" data-name="Línea 347" y2="46.876" transform="translate(686.334 821.506)" fill="none" stroke="#6677d6" stroke-width="3"/>
      </g>
      <g id="Grupo_134785" data-name="Grupo 134785" transform="translate(152.51 396.985)">
        <path id="Trazado_175100-5" data-name="Trazado 175100" d="M23.438,11.719H0L11.719,0Z" transform="translate(698.051 873.898) rotate(180)" fill="#6677d6"/>
        <line id="Línea_347-10" data-name="Línea 347" y2="46.876" transform="translate(686.334 821.506)" fill="none" stroke="#6677d6" stroke-width="3"/>
      </g>
      <rect id="Rectángulo_42407-4" data-name="Rectángulo 42407" width="244.21" height="128" rx="5" transform="translate(716.737 1270.884)" fill="#fff" stroke="#4752e3" stroke-miterlimit="10" stroke-width="2"/>
      <rect id="Rectángulo_42406-2" data-name="Rectángulo 42406" width="248.133" height="68.997" rx="5" transform="translate(703.778 1071.543)" fill="#fff" stroke="#4752e3" stroke-miterlimit="10" stroke-width="2"/>
      <g id="Elipse_16043-2" data-name="Elipse 16043" transform="translate(638.333 1049.63)" fill="#fff" stroke="#c6412a" stroke-width="6">
        <circle cx="53" cy="53" r="53" stroke="none"/>
        <circle cx="53" cy="53" r="50" fill="none"/>
      </g>
      <g id="Grupo_134786" data-name="Grupo 134786" transform="translate(614.859 316.886)">
        <line id="Línea_347-11" data-name="Línea 347" y2="46.876" transform="translate(686.334 821.506)" fill="none" stroke="#6677d6" stroke-width="3"/>
      </g>
      <g id="Grupo_134787" data-name="Grupo 134787" transform="translate(614.859 396.985)">
        <path id="Trazado_175100-6" data-name="Trazado 175100" d="M23.438,11.719H0L11.719,0Z" transform="translate(698.051 873.898) rotate(180)" fill="#6677d6"/>
        <line id="Línea_347-12" data-name="Línea 347" y2="46.876" transform="translate(686.334 821.506)" fill="none" stroke="#6677d6" stroke-width="3"/>
      </g>
      <rect id="Rectángulo_42407-5" data-name="Rectángulo 42407" width="244.21" height="128" rx="5" transform="translate(1179.089 1270.884)" fill="#fff" stroke="#4752e3" stroke-miterlimit="10" stroke-width="2"/>
      <rect id="Rectángulo_42406-3" data-name="Rectángulo 42406" width="248.133" height="68.997" rx="5" transform="translate(1169.778 1071.543)" fill="#fff" stroke="#4752e3" stroke-miterlimit="10" stroke-width="2"/>
      <g id="Elipse_16043-3" data-name="Elipse 16043" transform="translate(1104.333 1049.63)" fill="#fff" stroke="#c6412a" stroke-width="6">
        <circle cx="53" cy="53" r="53" stroke="none"/>
        <circle cx="53" cy="53" r="50" fill="none"/>
      </g>
      <g id="Grupo_134788" data-name="Grupo 134788" transform="translate(151.282 757.221)">
        <line id="Línea_347-13" data-name="Línea 347" y2="46.876" transform="translate(686.334 821.506)" fill="none" stroke="#6677d6" stroke-width="3"/>
      </g>
      <g id="Grupo_134789" data-name="Grupo 134789" transform="translate(151.282 828.968)">
        <path id="Trazado_175100-7" data-name="Trazado 175100" d="M23.438,11.719H0L11.719,0Z" transform="translate(698.051 873.898) rotate(180)" fill="#6677d6"/>
        <line id="Línea_347-14" data-name="Línea 347" y2="46.876" transform="translate(686.334 821.506)" fill="none" stroke="#6677d6" stroke-width="3"/>
      </g>
      <rect id="Rectángulo_42407-6" data-name="Rectángulo 42407" width="244.21" height="146" rx="5" transform="translate(715.511 1705.519)" fill="#fff" stroke="#4752e3" stroke-miterlimit="10" stroke-width="2"/>
      <rect id="Rectángulo_42406-4" data-name="Rectángulo 42406" width="248.133" height="68.997" rx="5" transform="translate(704.778 1520.528)" fill="#fff" stroke="#4752e3" stroke-miterlimit="10" stroke-width="2"/>
      <g id="Elipse_16043-4" data-name="Elipse 16043" transform="translate(639.333 1498.615)" fill="#fff" stroke="#c6412a" stroke-width="6">
        <circle cx="53" cy="53" r="53" stroke="none"/>
        <circle cx="53" cy="53" r="50" fill="none"/>
      </g>
      <g id="Grupo_134790" data-name="Grupo 134790" transform="translate(611.825 757.221)">
        <line id="Línea_347-15" data-name="Línea 347" y2="46.876" transform="translate(686.334 821.506)" fill="none" stroke="#6677d6" stroke-width="3"/>
      </g>
      <g id="Grupo_134791" data-name="Grupo 134791" transform="translate(611.825 828.968)">
        <path id="Trazado_175100-8" data-name="Trazado 175100" d="M23.438,11.719H0L11.719,0Z" transform="translate(698.051 873.898) rotate(180)" fill="#6677d6"/>
        <line id="Línea_347-16" data-name="Línea 347" y2="46.876" transform="translate(686.334 821.506)" fill="none" stroke="#6677d6" stroke-width="3"/>
      </g>
      <rect id="Rectángulo_42407-7" data-name="Rectángulo 42407" width="244.21" height="102" rx="5" transform="translate(1176.053 1702.866)" fill="#fff" stroke="#4752e3" stroke-miterlimit="10" stroke-width="2"/>
      <rect id="Rectángulo_42406-5" data-name="Rectángulo 42406" width="248.133" height="68.997" rx="5" transform="translate(1169.778 1520.528)" fill="#fff" stroke="#4752e3" stroke-miterlimit="10" stroke-width="2"/>
      <g id="Elipse_16043-5" data-name="Elipse 16043" transform="translate(1104.333 1498.615)" fill="#fff" stroke="#c6412a" stroke-width="6">
        <circle cx="53" cy="53" r="53" stroke="none"/>
        <circle cx="53" cy="53" r="50" fill="none"/>
      </g>
      <path id="Trazado_194144" data-name="Trazado 194144" d="M463.092,44.948V4.809l-449.608-.2L0,0" transform="translate(840.522 996.286)" fill="none" stroke="#6677d6" stroke-linecap="round" stroke-linejoin="round" stroke-width="3"/>
      <path id="Trazado_194145" data-name="Trazado 194145" d="M0,44.948V5.5l456.823-.226L470.522,0" transform="translate(370 996.286)" fill="none" stroke="#6677d6" stroke-linecap="round" stroke-linejoin="round" stroke-width="3"/>
      <line id="Línea_481" data-name="Línea 481" y2="38" transform="translate(840.835 958.13)" fill="none" stroke="#6677d6" stroke-width="3"/>
      <line id="Línea_483" data-name="Línea 483" y2="104" transform="translate(605.333 1002.63)" fill="none" stroke="#6677d6" stroke-width="3"/>
      <line id="Línea_488" data-name="Línea 488" y2="336" transform="translate(605.333 1105.13)" fill="none" stroke="#6677d6" stroke-width="3"/>
      <line id="Línea_491" data-name="Línea 491" x1="236" transform="translate(603.833 1440.897)" fill="none" stroke="#6677d6" stroke-width="3"/>
      <line id="Línea_492" data-name="Línea 492" x1="0.052" y2="440.813" transform="translate(1068.781 1000.317)" fill="none" stroke="#6677d6" stroke-width="3"/>
      <line id="Línea_493" data-name="Línea 493" x1="236" transform="translate(1067.281 1440.897)" fill="none" stroke="#6677d6" stroke-width="3"/>
      <path id="Trazado_175100-9" data-name="Trazado 175100" d="M23.438,11.719H0L11.719,0Z" transform="translate(851.552 1493.29) rotate(180)" fill="#6677d6"/>
      <line id="Línea_347-17" data-name="Línea 347" y2="46.876" transform="translate(839.835 1440.897)" fill="none" stroke="#6677d6" stroke-width="3"/>
      <path id="Trazado_175100-10" data-name="Trazado 175100" d="M23.438,11.719H0L11.719,0Z" transform="translate(1315 1493.29) rotate(180)" fill="#6677d6"/>
      <line id="Línea_347-18" data-name="Línea 347" y2="46.876" transform="translate(1303.283 1440.897)" fill="none" stroke="#6677d6" stroke-width="3"/>
      <path id="Trazado_175100-11" data-name="Trazado 175100" d="M23.438,11.719H0L11.719,0Z" transform="translate(852.554 1048.522) rotate(180)" fill="#6677d6"/>
      <line id="Línea_347-19" data-name="Línea 347" y2="46.876" transform="translate(840.837 996.13)" fill="none" stroke="#6677d6" stroke-width="3"/>
      <path id="Trazado_194146" data-name="Trazado 194146" d="M23.438,11.719H0L11.719,0Z" transform="translate(381.719 1049.63) rotate(180)" fill="#6677d6"/>
      <path id="Trazado_194147" data-name="Trazado 194147" d="M23.438,11.719H0L11.719,0Z" transform="translate(1315 1049.63) rotate(180)" fill="#6677d6"/>
      <rect id="Rectángulo_44194" data-name="Rectángulo 44194" width="54" height="71" transform="translate(1086.333 727.816)" fill="#fff"/>
    </g>
    <text id="Proceso_del_mercado" data-name="Proceso del mercado" transform="translate(733.835 510.5)" fill="#fff" font-size="22" font-family="Roboto-Black, Roboto" font-weight="800"><tspan x="0" y="23">Proceso del mercado</tspan></text>
    <text id="Consiste_en" data-name="Consiste en" transform="translate(772.476 597.104)" fill="#12263f" font-size="20" font-family="Roboto-Regular, Roboto"><tspan x="15.202" y="21">Consiste en</tspan></text>
    <text id="Selección_del_mercado_objetivo" data-name="Selección del mercado objetivo" transform="translate(751.512 1083.757)" fill="#12263f" font-size="16" font-family="Roboto-Bold, Roboto" font-weight="700"><tspan x="9.454" y="17">Selección del mercado </tspan><tspan x="62.372" y="41">objetivo</tspan></text>
    <text id="Se_compone_de" data-name="Se compone de" transform="translate(764.005 810.711)" fill="#12263f" font-size="20" font-family="Roboto-Regular, Roboto"><tspan x="7.046" y="21">Se compone de</tspan></text>
    <text id="Segmentar_el_mercado_crear_estrategias_y_controlar_procesos" data-name="Segmentar el mercado, crear estrategias y controlar procesos" transform="translate(699.502 699.335)" fill="#12263f" font-size="18" font-family="Roboto-Regular, Roboto"><tspan x="28.539" y="19">Segmentar el mercado, crear </tspan><tspan x="14.969" y="43">estrategias y controlar procesos</tspan></text>
    <text id="Fases_del_proceso" data-name="Fases del proceso" transform="translate(766.535 922.13)" fill="#12263f" font-size="18" font-family="Roboto-Regular, Roboto"><tspan x="0.821" y="19">Fases del proceso</tspan></text>
    <text id="Se_realizan" data-name="Se realizan" transform="translate(322.607 1193.138)" fill="#12263f" font-size="16" font-family="Roboto-Regular, Roboto"><tspan x="7.237" y="17">Se realizan</tspan></text>
    <text id="Objetivo" transform="translate(329.106 1451.419)" fill="#12263f" font-size="16" font-family="Roboto-Regular, Roboto"><tspan x="10.542" y="17">Objetivo</tspan></text>
    <text id="Estrategias_de_mercadeo_y_marketing_enfocadas_en_las_necesidades_del_consumidor_sus_preferencias_y_hábitos." data-name="Estrategias de mercadeo y marketing, enfocadas en las necesidades del consumidor, sus preferencias y hábitos." transform="translate(274.718 1282.884)" fill="#12263f" font-size="16" font-family="Roboto-Regular, Roboto"><tspan x="5.609" y="17">Estrategias de mercadeo </tspan><tspan x="1.434" y="41">y </tspan><tspan y="41" font-family="Roboto-Italic, Roboto" font-style="italic">marketing</tspan><tspan y="41">, enfocadas en </tspan><tspan x="24.047" y="65">las necesidades del </tspan><tspan x="35.836" y="89">consumidor, sus </tspan><tspan x="13.324" y="113">preferencias y hábitos.</tspan></text>
    <text id="Descubrir_las_necesidades_del_mercado_percepción_de_marca_tendencias_deseos_insatisfechos_entre_otros." data-name="Descubrir las necesidades del mercado, percepción de marca, tendencias, deseos insatisfechos, entre otros." transform="translate(274.718 1540.683)" fill="#12263f" font-size="16" font-family="Roboto-Regular, Roboto"><tspan x="0.688" y="17">Descubrir las necesidades </tspan><tspan x="6.902" y="41">del mercado, percepción </tspan><tspan x="16.578" y="65">de marca, tendencias, </tspan><tspan x="16.84" y="89">deseos insatisfechos, </tspan><tspan x="53.211" y="113">entre otros.</tspan></text>
    <text id="Análisis_y_oportunidades_de_marketing" data-name="Análisis y oportunidades de marketing" transform="translate(294.512 1083.757)" fill="#12263f" font-size="16" font-family="Roboto-Bold, Roboto" font-weight="700"><tspan x="2.391" y="17">Análisis y oportunidades </tspan><tspan x="44.469" y="41">de</tspan><tspan y="41" xml:space="preserve" font-family="Roboto-BoldItalic, Roboto" font-style="italic"> marketing</tspan></text>
    <text id="De_acuerdo_con" data-name="De acuerdo con" transform="translate(779.91 1189.138)" fill="#12263f" font-size="16" font-family="Roboto-Regular, Roboto"><tspan x="9.528" y="17">De acuerdo con</tspan></text>
    <text id="La_investigación_de_mercado_se_determina_el_perfil_del_cliente_para_conocer_sus_preferencias_y_necesidades." data-name="La investigación de mercado, se determina el perfil del cliente para conocer sus preferencias y necesidades." transform="translate(727.737 1282.884)" fill="#12263f" font-size="16" font-family="Roboto-Regular, Roboto"><tspan x="7.597" y="17">La investigación de mercado, </tspan><tspan x="24.117" y="41">se determina el perfil del </tspan><tspan x="24.328" y="65">cliente para conocer sus </tspan><tspan x="11.957" y="89">preferencias y necesidades.</tspan></text>
    <text id="Se_identifican" data-name="Se identifican" transform="translate(1236.088 1190.028)" fill="#12263f" font-size="16" font-family="Roboto-Regular, Roboto"><tspan x="17.098" y="17">Se identifican</tspan></text>
    <text id="Fortalezas_y_debilidades_de_la_empresa_y_de_igual_forma_fortalezas_y_oportunidades_del_mercado." data-name="Fortalezas y debilidades de la empresa y, de igual forma, fortalezas y oportunidades del mercado." transform="translate(1190.089 1282.884)" fill="#12263f" font-size="16" font-family="Roboto-Regular, Roboto"><tspan x="6.164" y="17">Fortalezas y debilidades de la </tspan><tspan x="17.804" y="41">empresa y, de igual forma, </tspan><tspan x="3.226" y="65">fortalezas y oportunidades del </tspan><tspan x="77.503" y="89">mercado.</tspan></text>
    <text id="Análisis_del_mercado" data-name="Análisis del mercado" transform="translate(1217.512 1094.899)" fill="#12263f" font-size="16" font-family="Roboto-Bold, Roboto" font-weight="700"><tspan x="16.055" y="17">Análisis del mercado</tspan></text>
    <text id="Consiste_en-2" data-name="Consiste en" transform="translate(772.508 1628.255)" fill="#12263f" font-size="16" font-family="Roboto-Regular, Roboto"><tspan x="23.247" y="17">Consiste en</tspan></text>
    <text id="Definir_cómo_se_van_a_lograr_los_objetivos_y_cómo_ayudan_a_coordinar_los_diferentes_aspectos_implicados_en_una_campaña." data-name="Definir cómo se van a lograr los objetivos y cómo ayudan a coordinar los diferentes aspectos implicados en una campaña." transform="translate(726.511 1717.519)" fill="#12263f" font-size="16" font-family="Roboto-Regular, Roboto"><tspan x="12.003" y="17">Definir cómo se van a lograr </tspan><tspan x="4.031" y="41">los objetivos y cómo ayudan a </tspan><tspan x="26.765" y="65">coordinar los diferentes </tspan><tspan x="11.66" y="89">aspectos implicados en una </tspan><tspan x="75.843" y="113">campaña.</tspan></text>
    <text id="Formulación_de_estrategias_de_marketing" data-name="Formulación de estrategias de marketing" transform="translate(752.512 1532.742)" fill="#12263f" font-size="16" font-family="Roboto-Bold, Roboto" font-weight="700"><tspan x="35.458" y="17">Formulación de </tspan><tspan x="2.11" y="41">estrategias de </tspan><tspan y="41" font-family="Roboto-BoldItalic, Roboto" font-style="italic">marketing</tspan></text>
    <text id="Consiste_en-3" data-name="Consiste en" transform="translate(1233.052 1628.255)" fill="#12263f" font-size="16" font-family="Roboto-Regular, Roboto"><tspan x="23.247" y="17">Consiste en</tspan></text>
    <text id="Realizar_evaluación_y_control_para_determinar_si_el_proceso_es_viable_o_no." data-name="Realizar evaluación y control para determinar si el proceso es viable o no." transform="translate(1187.053 1714.866)" fill="#12263f" font-size="16" font-family="Roboto-Regular, Roboto"><tspan x="9.882" y="17">Realizar evaluación y control </tspan><tspan x="7.667" y="41">para determinar si el proceso </tspan><tspan x="60.32" y="65">es viable o no.</tspan></text>
    <text id="Control_y_evaluación" data-name="Control y evaluación" transform="translate(1217.512 1541.884)" fill="#12263f" font-size="16" font-family="Roboto-Bold, Roboto" font-weight="700"><tspan x="18.04" y="17">Control y evaluación</tspan></text>
    <g id="marketing-global" transform="translate(203.334 1069.15)">
      <g id="Grupo_135031" data-name="Grupo 135031" transform="translate(0 0)">
        <g id="Grupo_135026" data-name="Grupo 135026" transform="translate(0.947 19.641)">
          <g id="Grupo_135025" data-name="Grupo 135025">
            <g id="Grupo_135024" data-name="Grupo 135024">
              <g id="Grupo_135023" data-name="Grupo 135023">
                <path id="Trazado_196451" data-name="Trazado 196451" d="M6.358,79.942H62.994v6.231H6.358Z" transform="translate(-3.29 -50.148)" fill="#3d4780"/>
                <path id="Trazado_196452" data-name="Trazado 196452" d="M89.684,79.943H93.7v6.23H89.684Z" transform="translate(-33.996 -50.149)" fill="#3d4780"/>
                <path id="Trazado_196453" data-name="Trazado 196453" d="M62.994,35.29V63.735H6.358V35.29a2.526,2.526,0,0,1,2.526-2.526H60.468A2.526,2.526,0,0,1,62.994,35.29Z" transform="translate(-3.29 -32.763)" fill="#eff5f6"/>
                <path id="Trazado_196456" data-name="Trazado 196456" d="M62.994,35.29V39.1H6.358V35.29a2.526,2.526,0,0,1,2.526-2.526H60.468A2.526,2.526,0,0,1,62.994,35.29Z" transform="translate(-3.29 -32.763)" fill="#b8bee0"/>
                <path id="Trazado_196457" data-name="Trazado 196457" d="M57.431,32.764A14.877,14.877,0,0,1,55.746,39.1H29.193a14.877,14.877,0,0,1-1.685-6.339Z" transform="translate(-11.084 -32.763)" fill="#b8bee0"/>
                <path id="Trazado_196458" data-name="Trazado 196458" d="M92.225,35.289V39.1H88.21V35.289a2.526,2.526,0,0,0-2.526-2.526H89.7A2.526,2.526,0,0,1,92.225,35.289Z" transform="translate(-32.522 -32.763)" fill="#b8bee0"/>
                <g id="Grupo_135022" data-name="Grupo 135022" transform="translate(0 35.014)">
                  <path id="Trazado_196459" data-name="Trazado 196459" d="M1.5,88.841v3.236a.632.632,0,0,0,.632.632H6.414l1.574,2.2a.631.631,0,0,0,.514.264H57.686a.631.631,0,0,0,.514-.264l1.574-2.2H63.64a.632.632,0,0,0,.632-.632V88.841a.632.632,0,0,0-.632-.632H2.132A.632.632,0,0,0,1.5,88.841Z" transform="translate(-1.5 -88.209)" fill="#d1d4e2"/>
                  <path id="Trazado_196460" data-name="Trazado 196460" d="M94.761,88.841v3.236a.632.632,0,0,1-.632.632H90.263l-1.574,2.2a.634.634,0,0,1-.514.264H84.24a.631.631,0,0,0,.513-.264l1.575-2.2h3.865a.631.631,0,0,0,.632-.632V88.841a.631.631,0,0,0-.632-.632h3.937a.632.632,0,0,1,.632.632Z" transform="translate(-31.99 -88.209)" fill="#d1d4e2"/>
                </g>
                <path id="Trazado_196461" data-name="Trazado 196461" d="M52.734,91.334H36.744l-3.077-3.125H55.811Z" transform="translate(-13.353 -53.195)" fill="#7da2b0"/>
              </g>
            </g>
          </g>
        </g>
        <g id="Grupo_135027" data-name="Grupo 135027" transform="translate(10.629 31.105)">
          <ellipse id="Elipse_18206" data-name="Elipse 18206" cx="5.573" cy="5.573" rx="5.573" ry="5.573" transform="translate(32.262)" fill="#b8bee0"/>
          <ellipse id="Elipse_18207" data-name="Elipse 18207" cx="5.573" cy="5.573" rx="5.573" ry="5.573" fill="#b8bee0"/>
        </g>
        <g id="Grupo_135028" data-name="Grupo 135028" transform="translate(26.76 34.797)">
          <ellipse id="Elipse_18208" data-name="Elipse 18208" cx="5.573" cy="5.573" rx="5.573" ry="5.573" fill="#daaba3"/>
          <path id="Trazado_196462" data-name="Trazado 196462" d="M48.448,62.825v3.192a.4.4,0,0,0,.609.345l2.672-1.6a.4.4,0,0,0,0-.691l-2.672-1.6a.4.4,0,0,0-.609.345Z" transform="translate(-44.613 -58.848)" fill="#daaba3"/>
        </g>
        <g id="Grupo_135030" data-name="Grupo 135030">
          <ellipse id="Elipse_18209" data-name="Elipse 18209" cx="14.975" cy="14.975" rx="14.975" ry="14.975" transform="translate(17.358 0.947)" fill="#6677d6"/>
          <path id="Trazado_196463" data-name="Trazado 196463" d="M65.026,18.135A14.981,14.981,0,0,1,48.083,32.981a14.976,14.976,0,0,0,0-29.691A14.981,14.981,0,0,1,65.026,18.135Z" transform="translate(-17.718 -2.214)" fill="#6677d6"/>
          <g id="Grupo_135029" data-name="Grupo 135029">
            <path id="Trazado_196464" data-name="Trazado 196464" d="M5.805,31.114a.947.947,0,0,0,.947-.947V28.588H22.411a.952.952,0,0,0,.2-.021,15.9,15.9,0,0,0,23.014.017c.026,0,.052,0,.079,0H61.494V41.87a.947.947,0,1,0,1.895,0V23.828a3.477,3.477,0,0,0-3.473-3.473H49.8a15.922,15.922,0,1,0-31.359,0H8.331a3.477,3.477,0,0,0-3.473,3.473v6.338a.947.947,0,0,0,.947.947ZM22.419,9.86a.947.947,0,0,0,.165.015h3.281a24.908,24.908,0,0,0-1.139,6.76h-4.6A13.936,13.936,0,0,1,22.419,9.86Zm23.407,0a13.937,13.937,0,0,1,2.291,6.776h-4.6a24.9,24.9,0,0,0-1.139-6.76h3.281a.947.947,0,0,0,.165-.015Zm0,15.446a.947.947,0,0,0-.165-.015H42.381a24.922,24.922,0,0,0,1.139-6.76h4.6a13.936,13.936,0,0,1-2.291,6.776ZM33.176,27.185v4.309c-1.748-.426-3.32-2.011-4.488-4.309Zm-5.3-1.895a22.7,22.7,0,0,1-1.255-6.76h6.555v6.76Zm7.195,6.2V27.185h4.493C38.395,29.485,36.821,31.069,35.07,31.495Zm0-6.2V18.53h6.555a22.72,22.72,0,0,1-1.251,6.76Zm6.555-8.655H35.07V9.875h5.31A22.757,22.757,0,0,1,41.625,16.636ZM35.07,7.981V3.671c1.756.425,3.331,2.008,4.5,4.31Zm-1.895-4.31v4.31h-4.5C29.845,5.678,31.42,4.1,33.176,3.671Zm0,6.2v6.76H26.621a22.755,22.755,0,0,1,1.245-6.76ZM20.128,18.53h4.6a24.929,24.929,0,0,0,1.139,6.76h-3.28a.947.947,0,0,0-.165.015,13.936,13.936,0,0,1-2.291-6.776Zm3.779,8.655h2.677q.269.608.574,1.175a13.611,13.611,0,0,0,1.369,2.084A14.088,14.088,0,0,1,23.908,27.185Zm15.812,3.259a13.586,13.586,0,0,0,1.35-2.048c.21-.388.407-.793.592-1.21h2.677a14.088,14.088,0,0,1-4.619,3.259Zm20.2-8.195a1.58,1.58,0,0,1,1.579,1.579v2.866H47.173a15.871,15.871,0,0,0,2.174-4.444ZM44.338,7.981H41.661c-.193-.435-.4-.856-.618-1.258a13.545,13.545,0,0,0-1.324-2,14.088,14.088,0,0,1,4.62,3.259ZM28.527,4.721a13.553,13.553,0,0,0-1.326,2c-.219.4-.424.822-.616,1.255H23.908a14.088,14.088,0,0,1,4.62-3.259ZM8.331,22.249H18.9a15.867,15.867,0,0,0,2.174,4.444H6.752V23.828a1.581,1.581,0,0,1,1.579-1.579Z" transform="translate(-1.79 -1.661)"/>
            <path id="Trazado_196465" data-name="Trazado 196465" d="M63.087,73.956H61.6v-9.2a.947.947,0,0,0-1.895,0v5.162H4.962V53.047a.947.947,0,1,0-1.895,0V73.956H1.579A1.58,1.58,0,0,0,0,75.534v3.236a1.58,1.58,0,0,0,1.579,1.579h3.8l1.291,1.806a1.582,1.582,0,0,0,1.284.66h6.7a.947.947,0,0,0,0-1.895H8.112l-1.48-2.07a.947.947,0,0,0-.771-.4H1.895v-2.6H20.864l2.8,2.842a.947.947,0,0,0,.675.283H40.328A.947.947,0,0,0,41,78.692l2.8-2.842H62.771v2.6h-3.55a.947.947,0,0,0-.771.4l-1.48,2.07H18.945a.947.947,0,0,0,0,1.895H57.133a1.582,1.582,0,0,0,1.284-.66l1.291-1.806h3.379a1.58,1.58,0,0,0,1.579-1.579V75.534A1.58,1.58,0,0,0,63.087,73.956ZM4.962,71.807H59.7v2.148H4.962ZM39.932,77.08h-15.2l-1.211-1.23h17.62Z" transform="translate(0 -20.248)"/>
            <path id="Trazado_196466" data-name="Trazado 196466" d="M66.419,55.936a6.52,6.52,0,1,0,6.52-6.52A6.527,6.527,0,0,0,66.419,55.936Zm11.145,0a4.625,4.625,0,1,1-4.625-4.625A4.631,4.631,0,0,1,77.565,55.936Z" transform="translate(-24.475 -19.259)"/>
            <path id="Trazado_196467" data-name="Trazado 196467" d="M75.348,55.723a.947.947,0,1,0-1.895,0V58.79a2.259,2.259,0,0,0,2.256,2.256h.953a.947.947,0,0,0,0-1.895h-.953a.362.362,0,0,1-.362-.361v-.612h.912a.947.947,0,0,0,0-1.895h-.912Z" transform="translate(-27.067 -21.234)"/>
            <path id="Trazado_196468" data-name="Trazado 196468" d="M25.571,54.88h-.726A1.947,1.947,0,0,0,22.9,56.825v.795a.946.946,0,0,0,0,1.69v.761a.947.947,0,0,0,1.895,0v-.659h.242a.947.947,0,0,0,0-1.895H24.8v-.693a.05.05,0,0,1,.05-.05h.726a.947.947,0,0,0,0-1.895Z" transform="translate(-8.247 -21.272)"/>
            <path id="Trazado_196469" data-name="Trazado 196469" d="M21.852,49.416a6.52,6.52,0,1,0,6.52,6.52,6.527,6.527,0,0,0-6.52-6.52Zm0,11.145a4.625,4.625,0,1,1,4.625-4.625A4.631,4.631,0,0,1,21.852,60.561Z" transform="translate(-5.65 -19.259)"/>
            <path id="Trazado_196470" data-name="Trazado 196470" d="M40.876,61.783a6.52,6.52,0,1,0,6.52-6.52A6.527,6.527,0,0,0,40.876,61.783Zm11.145,0A4.625,4.625,0,1,1,47.4,57.157,4.631,4.631,0,0,1,52.021,61.783Z" transform="translate(-15.063 -21.413)"/>
            <path id="Trazado_196471" data-name="Trazado 196471" d="M47.631,61.1a1.352,1.352,0,0,0-.684,1.174v3.192a1.35,1.35,0,0,0,2.041,1.159l2.672-1.6a1.349,1.349,0,0,0,0-2.317l-2.672-1.6a1.352,1.352,0,0,0-1.358-.015ZM48.842,64.5V63.233l1.064.636Z" transform="translate(-17.3 -23.499)"/>
          </g>
        </g>
      </g>
    </g>
    <g id="usuario" transform="translate(661 1070.964)">
      <g id="Grupo_135062" data-name="Grupo 135062">
        <g id="Grupo_135034" data-name="Grupo 135034" transform="translate(3.754 3.754)">
          <g id="Grupo_135032" data-name="Grupo 135032">
            <ellipse id="Elipse_18210" data-name="Elipse 18210" cx="5.103" cy="5.103" rx="5.103" ry="5.103" fill="#eee99a"/>
          </g>
          <g id="Grupo_135033" data-name="Grupo 135033" transform="translate(0.599 0.599)">
            <path id="Trazado_196472" data-name="Trazado 196472" d="M13.8,6.893a5.1,5.1,0,0,1-6.9,6.9,5.1,5.1,0,1,0,6.9-6.9Z" transform="translate(-6.893 -6.893)" fill="#eee99a"/>
          </g>
        </g>
        <g id="Grupo_135037" data-name="Grupo 135037" transform="translate(28.505 0.947)">
          <g id="Grupo_135035" data-name="Grupo 135035">
            <ellipse id="Elipse_18211" data-name="Elipse 18211" cx="3.828" cy="3.828" rx="3.828" ry="3.828" fill="#eee99a"/>
          </g>
          <g id="Grupo_135036" data-name="Grupo 135036" transform="translate(0.449 0.449)">
            <path id="Trazado_196473" data-name="Trazado 196473" d="M51.028,2.211A3.828,3.828,0,0,1,45.85,7.389a3.828,3.828,0,1,0,5.178-5.178Z" transform="translate(-45.85 -2.211)" fill="#eee99a"/>
          </g>
        </g>
        <g id="Grupo_135040" data-name="Grupo 135040" transform="translate(28.505 56.064)">
          <g id="Grupo_135038" data-name="Grupo 135038">
            <ellipse id="Elipse_18212" data-name="Elipse 18212" cx="3.828" cy="3.828" rx="3.828" ry="3.828" fill="#eee99a"/>
          </g>
          <g id="Grupo_135039" data-name="Grupo 135039" transform="translate(0.449 0.449)">
            <path id="Trazado_196474" data-name="Trazado 196474" d="M51.028,89.489a3.828,3.828,0,0,1-5.178,5.178,3.828,3.828,0,1,0,5.178-5.178Z" transform="translate(-45.85 -89.489)" fill="#eee99a"/>
          </g>
        </g>
        <g id="Grupo_135043" data-name="Grupo 135043" transform="translate(56.063 28.505)">
          <g id="Grupo_135041" data-name="Grupo 135041">
            <ellipse id="Elipse_18213" data-name="Elipse 18213" cx="3.828" cy="3.828" rx="3.828" ry="3.828" fill="#eee99a"/>
          </g>
          <g id="Grupo_135042" data-name="Grupo 135042" transform="translate(0.449 0.449)">
            <path id="Trazado_196475" data-name="Trazado 196475" d="M94.667,45.85a3.828,3.828,0,0,1-5.178,5.178,3.828,3.828,0,1,0,5.178-5.178Z" transform="translate(-89.489 -45.85)" fill="#eee99a"/>
          </g>
        </g>
        <g id="Grupo_135046" data-name="Grupo 135046" transform="translate(0.947 28.505)">
          <g id="Grupo_135044" data-name="Grupo 135044">
            <ellipse id="Elipse_18214" data-name="Elipse 18214" cx="3.828" cy="3.828" rx="3.828" ry="3.828" fill="#eee99a"/>
          </g>
          <g id="Grupo_135045" data-name="Grupo 135045" transform="translate(0.449 0.449)">
            <path id="Trazado_196476" data-name="Trazado 196476" d="M7.389,45.85a3.828,3.828,0,0,1-5.178,5.178A3.828,3.828,0,1,0,7.389,45.85Z" transform="translate(-2.211 -45.85)" fill="#eee99a"/>
          </g>
        </g>
        <g id="Grupo_135051" data-name="Grupo 135051" transform="translate(21.616 19.575)">
          <g id="Grupo_135047" data-name="Grupo 135047" transform="translate(4.338)">
            <ellipse id="Elipse_18215" data-name="Elipse 18215" cx="6.379" cy="6.379" rx="6.379" ry="6.379" fill="#f7e2df"/>
          </g>
          <g id="Grupo_135049" data-name="Grupo 135049" transform="translate(0 12.758)">
            <path id="Trazado_196478" data-name="Trazado 196478" d="M34.229,56.3v5.614H55.663V56.3a5.1,5.1,0,0,0-5.1-5.1H39.332A5.1,5.1,0,0,0,34.229,56.3Z" transform="translate(-34.229 -51.2)" fill="#c6412a"/>
          </g>
          <g id="Grupo_135050" data-name="Grupo 135050" transform="translate(13.269 12.758)">
            <path id="Trazado_196479" data-name="Trazado 196479" d="M58.3,51.2H55.241a5.1,5.1,0,0,1,5.1,5.1v5.614h3.062V56.3A5.1,5.1,0,0,0,58.3,51.2Z" transform="translate(-55.241 -51.2)" fill="#c6412a"/>
          </g>
        </g>
        <g id="Grupo_135054" data-name="Grupo 135054" transform="translate(50.705 3.754)">
          <g id="Grupo_135052" data-name="Grupo 135052">
            <ellipse id="Elipse_18216" data-name="Elipse 18216" cx="5.103" cy="5.103" rx="5.103" ry="5.103" fill="#eee99a"/>
          </g>
          <g id="Grupo_135053" data-name="Grupo 135053" transform="translate(0.599 0.599)">
            <path id="Trazado_196480" data-name="Trazado 196480" d="M88.145,6.893a5.1,5.1,0,0,1-6.9,6.9,5.1,5.1,0,1,0,6.9-6.9Z" transform="translate(-81.241 -6.893)" fill="#eee99a"/>
          </g>
        </g>
        <g id="Grupo_135057" data-name="Grupo 135057" transform="translate(50.705 50.705)">
          <g id="Grupo_135055" data-name="Grupo 135055">
            <ellipse id="Elipse_18217" data-name="Elipse 18217" cx="5.103" cy="5.103" rx="5.103" ry="5.103" fill="#eee99a"/>
          </g>
          <g id="Grupo_135056" data-name="Grupo 135056" transform="translate(0.599 0.599)">
            <path id="Trazado_196481" data-name="Trazado 196481" d="M88.145,81.241a5.1,5.1,0,0,1-6.9,6.9,5.1,5.1,0,1,0,6.9-6.9Z" transform="translate(-81.241 -81.241)" fill="#eee99a"/>
          </g>
        </g>
        <g id="Grupo_135060" data-name="Grupo 135060" transform="translate(3.754 50.705)">
          <g id="Grupo_135058" data-name="Grupo 135058">
            <ellipse id="Elipse_18218" data-name="Elipse 18218" cx="5.103" cy="5.103" rx="5.103" ry="5.103" fill="#eee99a"/>
          </g>
          <g id="Grupo_135059" data-name="Grupo 135059" transform="translate(0.599 0.599)">
            <path id="Trazado_196482" data-name="Trazado 196482" d="M13.8,81.241a5.1,5.1,0,0,1-6.9,6.9,5.1,5.1,0,1,0,6.9-6.9Z" transform="translate(-6.893 -81.241)" fill="#eee99a"/>
          </g>
        </g>
        <g id="Grupo_135061" data-name="Grupo 135061">
          <path id="Trazado_196483" data-name="Trazado 196483" d="M52.395,33.28h2.816a4.774,4.774,0,1,0,0-1.895H52.395a20.007,20.007,0,0,0-5.212-12.563l5.073-5.073a6.06,6.06,0,1,0-1.34-1.34l-5.073,5.073A20.007,20.007,0,0,0,33.28,12.271V9.455a4.775,4.775,0,1,0-1.895,0v2.816a20.008,20.008,0,0,0-12.563,5.212l-5.072-5.072a6.045,6.045,0,0,0-1.512-8.572.947.947,0,0,0-1.06,1.57,4.155,4.155,0,1,1-3.458-.552A.947.947,0,0,0,7.2,3.034a6.051,6.051,0,1,0,5.206,10.716l5.072,5.072a20.007,20.007,0,0,0-5.212,12.563H9.455a4.775,4.775,0,1,0,0,1.895h2.816a20.007,20.007,0,0,0,5.212,12.563l-5.073,5.073a6.06,6.06,0,1,0,1.34,1.34l5.073-5.073a20.007,20.007,0,0,0,12.563,5.212v2.816a4.775,4.775,0,1,0,1.895,0V52.395a20.008,20.008,0,0,0,12.563-5.212l5.072,5.072a6.047,6.047,0,1,0,10.634,1.636.947.947,0,1,0-1.8.6,4.154,4.154,0,1,1-2.423-2.551.947.947,0,0,0,.693-1.763,6.045,6.045,0,0,0-5.767.74l-5.072-5.072A20.009,20.009,0,0,0,52.395,33.28Zm7.5-3.828a2.88,2.88,0,1,1-2.88,2.88A2.883,2.883,0,0,1,59.891,29.453ZM55.808,4.7a4.156,4.156,0,1,1-4.156,4.156A4.161,4.161,0,0,1,55.808,4.7Zm-26.356.073a2.88,2.88,0,1,1,2.88,2.88,2.884,2.884,0,0,1-2.88-2.88ZM4.775,35.213a2.88,2.88,0,1,1,2.88-2.88A2.884,2.884,0,0,1,4.775,35.213ZM32.333,14.143a18.19,18.19,0,1,1-18.19,18.19,18.211,18.211,0,0,1,18.19-18.19ZM8.857,59.964a4.156,4.156,0,1,1,4.156-4.156A4.161,4.161,0,0,1,8.857,59.964Zm26.356-.073a2.88,2.88,0,1,1-2.88-2.88A2.884,2.884,0,0,1,35.213,59.891Z"/>
          <path id="Trazado_196484" data-name="Trazado 196484" d="M33.677,54.866h8.506a.947.947,0,0,0,0-1.895h-2.2v-1.6a.947.947,0,0,0-1.895,0v1.6H34.625V48.306A4.161,4.161,0,0,1,38.78,44.15H50.008a4.161,4.161,0,0,1,4.155,4.157v4.666H50.7v-1.6a.947.947,0,0,0-1.895,0v1.6H46.6a.947.947,0,0,0,0,1.895h8.506a.947.947,0,0,0,.947-.947V48.306a6.057,6.057,0,0,0-6.05-6.051h-.7a7.326,7.326,0,1,0-9.822,0h-.7a6.057,6.057,0,0,0-6.05,6.051v5.613a.947.947,0,0,0,.947.947Zm5.285-18.043a5.432,5.432,0,1,1,5.432,5.432A5.438,5.438,0,0,1,38.962,36.823Z" transform="translate(-12.061 -10.869)"/>
        </g>
      </g>
    </g>
    <g id="el-marketing-movil" transform="translate(1127 1070.966)">
      <g id="Grupo_135017" data-name="Grupo 135017" transform="translate(0 0)">
        <g id="Grupo_135015" data-name="Grupo 135015" transform="translate(0.947 0.947)">
          <path id="Trazado_196420" data-name="Trazado 196420" d="M58.113,64.842H16.276a3.082,3.082,0,0,1-3.081-3.081V6.135a3.082,3.082,0,0,1,3.081-3.081H58.113a3.082,3.082,0,0,1,3.081,3.081V61.761A3.082,3.082,0,0,1,58.113,64.842Z" transform="translate(-9.581 -2.072)" fill="#b8bee0"/>
          <path id="Trazado_196421" data-name="Trazado 196421" d="M85.93,6.135V61.761a3.082,3.082,0,0,1-3.082,3.082H80.32A3.082,3.082,0,0,0,83.4,61.761V6.135A3.082,3.082,0,0,0,80.32,3.053h2.528A3.082,3.082,0,0,1,85.93,6.135Z" transform="translate(-34.317 -2.072)" fill="#b8bee0"/>
          <path id="Trazado_196422" data-name="Trazado 196422" d="M58.22,58.525H21.509a1.069,1.069,0,0,1-1.069-1.069V9a1.069,1.069,0,0,1,1.069-1.069H58.22A1.069,1.069,0,0,1,59.289,9V57.456A1.069,1.069,0,0,1,58.22,58.525Z" transform="translate(-12.251 -3.871)" fill="#afafaf"/>
          <path id="Trazado_196423" data-name="Trazado 196423" d="M79.831,9V57.456a1.068,1.068,0,0,1-1.069,1.068H76.187a1.068,1.068,0,0,0,1.068-1.068V9a1.069,1.069,0,0,0-1.068-1.069h2.575A1.069,1.069,0,0,1,79.831,9Z" transform="translate(-32.794 -3.871)" fill="#636363"/>
          <path id="Trazado_196424" data-name="Trazado 196424" d="M7.473,28v4.176a2.511,2.511,0,0,0,4.943.621.08.08,0,0,1,.155,0,2.511,2.511,0,0,0,4.866,0,.08.08,0,0,1,.155,0,2.511,2.511,0,0,0,4.866,0,.08.08,0,0,1,.155,0,2.511,2.511,0,0,0,4.866,0,.08.08,0,0,1,.155,0,2.511,2.511,0,0,0,4.866,0,.08.08,0,0,1,.155,0,2.511,2.511,0,0,0,4.866,0,.08.08,0,0,1,.155,0,2.511,2.511,0,0,0,4.866,0,.08.08,0,0,1,.155,0,2.511,2.511,0,0,0,4.866,0,.08.08,0,0,1,.155,0,2.511,2.511,0,0,0,4.866,0,.08.08,0,0,1,.155,0,2.511,2.511,0,0,0,4.866,0,.08.08,0,0,1,.155,0,2.511,2.511,0,0,0,4.943-.621V28Z" transform="translate(-7.473 -11.265)" fill="#4e2e8e"/>
          <path id="Trazado_196425" data-name="Trazado 196425" d="M92.722,28v4.175a2.511,2.511,0,0,1-3.777,2.168,2.514,2.514,0,0,0,1.245-2.168V28Z" transform="translate(-37.495 -11.265)" fill="#0078c8"/>
          <path id="Trazado_196426" data-name="Trazado 196426" d="M57.263,1.5H12.909a1.8,1.8,0,0,0-1.752,1.382L7.473,18.234H62.7L59.016,2.882A1.8,1.8,0,0,0,57.263,1.5Z" transform="translate(-7.473 -1.5)" fill="#4e2e8e"/>
          <path id="Trazado_196427" data-name="Trazado 196427" d="M90.276,18.235H87.744L84.06,2.882A1.8,1.8,0,0,0,82.308,1.5H84.84a1.8,1.8,0,0,1,1.752,1.382Z" transform="translate(-35.049 -1.5)" fill="#4e2e8e"/>
        </g>
        <g id="Grupo_135016" data-name="Grupo 135016">
          <path id="Trazado_196431" data-name="Trazado 196431" d="M63.089,17.593a.946.946,0,0,0-.026-.151L59.384,2.108A2.741,2.741,0,0,0,56.71,0H49.244a.947.947,0,0,0,0,1.895H56.71a.852.852,0,0,1,.831.656l3.4,14.184H8.121l3.4-14.184a.852.852,0,0,1,.831-.656H44.825a.947.947,0,0,0,0-1.895H12.356A2.741,2.741,0,0,0,9.682,2.108L6,17.442a1.016,1.016,0,0,0-.031.24v4.176A3.461,3.461,0,0,0,9.43,25.315q.078,0,.156,0V60.636a4.033,4.033,0,0,0,4.029,4.029H55.451a4.033,4.033,0,0,0,4.029-4.029V25.311q.077,0,.156,0a3.461,3.461,0,0,0,3.457-3.457s0-4.264,0-4.265Zm-5.5,43.043a2.137,2.137,0,0,1-2.134,2.134H13.615a2.137,2.137,0,0,1-2.134-2.134V24.643a3.466,3.466,0,0,0,.46-.406A3.455,3.455,0,0,0,14.162,25.3V39.292a.947.947,0,1,0,1.895,0V24.921a3.465,3.465,0,0,0,.905-.684,3.462,3.462,0,0,0,5.02,0,3.462,3.462,0,0,0,5.02,0,3.462,3.462,0,0,0,5.02,0,3.462,3.462,0,0,0,5.02,0,3.462,3.462,0,0,0,5.02,0,3.462,3.462,0,0,0,5.02,0,3.462,3.462,0,0,0,5.02,0,3.46,3.46,0,0,0,.905.684V54.532a.122.122,0,0,1-.122.122H16.178a.122.122,0,0,1-.122-.122V43.707a.947.947,0,1,0-1.895,0V54.532a2.018,2.018,0,0,0,2.016,2.016H52.888A2.018,2.018,0,0,0,54.9,54.532V25.3a3.455,3.455,0,0,0,2.221-1.066,3.458,3.458,0,0,0,.46.406ZM61.2,21.857a1.563,1.563,0,0,1-3.078.387,1.027,1.027,0,0,0-1.991,0,1.565,1.565,0,0,1-1.908,1.126l-.033-.009A1.56,1.56,0,0,1,53.1,22.245a1.027,1.027,0,0,0-1.991,0,1.564,1.564,0,0,1-3.03,0,1.027,1.027,0,0,0-1.991,0,1.564,1.564,0,0,1-3.03,0,1.027,1.027,0,0,0-1.991,0,1.564,1.564,0,0,1-3.03,0,1.027,1.027,0,0,0-1.991,0,1.564,1.564,0,0,1-3.03,0,1.027,1.027,0,0,0-1.991,0,1.564,1.564,0,0,1-3.03,0,1.027,1.027,0,0,0-1.991,0,1.564,1.564,0,0,1-3.03,0,1.027,1.027,0,0,0-1.991,0,1.564,1.564,0,0,1-3.03,0,1.027,1.027,0,0,0-1.991,0,1.564,1.564,0,0,1-3.03,0,1.027,1.027,0,0,0-1.991,0,1.559,1.559,0,0,1-.805,1.006l-.044.022a1.564,1.564,0,0,1-2.228-1.415V18.629H61.2v3.228Z" transform="translate(-5.973 0)"/>
        </g>
      </g>
    </g>
    <g id="email" transform="translate(662 1519.719)">
      <g id="Grupo_135021" data-name="Grupo 135021" transform="translate(0 0)">
        <g id="Grupo_135019" data-name="Grupo 135019" transform="translate(0.947 0.947)">
          <path id="Trazado_196434" data-name="Trazado 196434" d="M36.9,14.336a3.992,3.992,0,0,0-4.485,0L6.316,32.058l26.1,17.722a3.992,3.992,0,0,0,4.485,0L63,32.058Z" transform="translate(-6.316 -5.976)" fill="#7a8c98"/>
          <path id="Trazado_196435" data-name="Trazado 196435" d="M57.6,53.474H18.155a2.4,2.4,0,0,1-2.4-2.4V3.9a2.4,2.4,0,0,1,2.4-2.4H57.6A2.4,2.4,0,0,1,60,3.9V51.07A2.4,2.4,0,0,1,57.6,53.474Z" transform="translate(-9.793 -1.5)" fill="#eee99a"/>
          <path id="Trazado_196436" data-name="Trazado 196436" d="M79.071,1.5H74.019a2.4,2.4,0,0,1,2.4,2.4V51.07a2.4,2.4,0,0,1-2.4,2.4h5.052a2.4,2.4,0,0,0,2.4-2.4V3.9a2.4,2.4,0,0,0-2.4-2.4Z" transform="translate(-31.265 -1.5)" fill="#eee99a"/>
          <path id="Trazado_196437" data-name="Trazado 196437" d="M36.9,60.523a3.992,3.992,0,0,1-4.485,0L6.316,42.8V76.965a2.526,2.526,0,0,0,2.526,2.526H60.478A2.526,2.526,0,0,0,63,76.965V42.8Z" transform="translate(-6.316 -16.719)" fill="#3e2471"/>
          <path id="Trazado_196438" data-name="Trazado 196438" d="M88.083,44.23l5.052-3.43-5.052-3.43Z" transform="translate(-36.447 -14.718)" fill="#596c76"/>
          <path id="Trazado_196439" data-name="Trazado 196439" d="M93.135,42.8l-5.052,3.43V79.491h2.526a2.526,2.526,0,0,0,2.526-2.526Z" transform="translate(-36.447 -16.719)" fill="#3e2471"/>
          <g id="Grupo_135018" data-name="Grupo 135018" transform="translate(15.85 16.812)">
            <path id="Trazado_196440" data-name="Trazado 196440" d="M35.579,41.876V28.123H31.415V41.876a2.052,2.052,0,0,0,2.05,2.052h.059a2.053,2.053,0,0,0,2.055-2.053Z" transform="translate(-31.415 -28.123)" fill="#9e3421"/>
          </g>
          <path id="Trazado_196441" data-name="Trazado 196441" d="M61.612,28.394H56.618V21.732h4.993a1.416,1.416,0,0,1,1.416,1.416v3.831A1.416,1.416,0,0,1,61.612,28.394Z" transform="translate(-24.853 -8.955)" fill="#b0a2cd"/>
          <path id="Trazado_196442" data-name="Trazado 196442" d="M35.187,29.365H28.27a5.671,5.671,0,0,1,0-11.341h6.918Z" transform="translate(-12.317 -7.589)" fill="#daaba3"/>
          <path id="Trazado_196443" data-name="Trazado 196443" d="M53.752,11.977l-11.22,3.808V27.125l11.22,3.808a.577.577,0,0,0,.762-.546V12.523a.577.577,0,0,0-.762-.546Z" transform="translate(-19.662 -5.349)" fill="#cdc9d7"/>
          <path id="Trazado_196444" data-name="Trazado 196444" d="M27.674,65.316,7.449,87.02a2.517,2.517,0,0,0,1.811.767H60.9a2.516,2.516,0,0,0,1.811-.767l-20.226-21.7-5.161,3.5a3.992,3.992,0,0,1-4.485,0Z" transform="translate(-6.734 -25.016)" fill="#b0a2cd"/>
          <path id="Trazado_196445" data-name="Trazado 196445" d="M92.421,96.969l-4.337-4.654v5.421H90.61a2.517,2.517,0,0,0,1.811-.767Z" transform="translate(-36.447 -34.965)" fill="#008b81"/>
        </g>
        <g id="Grupo_135020" data-name="Grupo 135020">
          <path id="Trazado_196446" data-name="Trazado 196446" d="M5.764,55.825a.947.947,0,0,0-.947.947v4.42A3.479,3.479,0,0,0,8.29,64.666H59.926A3.478,3.478,0,0,0,63.4,61.193V27.029a.957.957,0,0,0-.4-.775l-.011-.009-6.063-4.116V3.351A3.355,3.355,0,0,0,53.57,0H14.125a3.355,3.355,0,0,0-3.351,3.351V22.482c-.072.049-5.484,3.723-5.554,3.772-.014.009-.026.02-.039.03a.952.952,0,0,0-.365.745V52.352a.947.947,0,1,0,1.895,0V28.817L25.258,41.41,6.717,61.306c-.009-.125-.006.3-.006-4.534a.947.947,0,0,0-.947-.947ZM61.5,28.817c0,.254,0,32.365-.006,32.489L42.958,41.41,61.5,28.817Zm-.739-1.788-3.844,2.61v-5.22ZM12.669,3.351a1.458,1.458,0,0,1,1.457-1.457H53.57a1.458,1.458,0,0,1,1.457,1.457V30.926L35.818,43.967a3.044,3.044,0,0,1-3.421,0L12.669,30.572V3.351ZM10.774,24.772v4.514L7.45,27.029ZM31.333,45.535a4.914,4.914,0,0,0,5.549,0l4.489-3.048L60.244,62.739c-.283.058-52.051.046-52.273,0L26.844,42.487Z" transform="translate(-4.816 0)"/>
          <path id="Trazado_196447" data-name="Trazado 196447" d="M26.667,27.436v7.926a3,3,0,0,0,3,3h.062a3,3,0,0,0,3-3V27.52h1.753l4.444,1.508a.947.947,0,0,0,.609-1.794l-3.95-1.34V15.911l10.087-3.423v16.83l-1.951-.662a.947.947,0,1,0-.609,1.794l2.441.828a1.525,1.525,0,0,0,2.014-1.443V25.183h.96a2.366,2.366,0,0,0,2.363-2.363V18.989a2.366,2.366,0,0,0-2.363-2.363h-.96V11.97a1.523,1.523,0,0,0-2.014-1.443L34.478,14.284H27.717a6.618,6.618,0,0,0-1.05,13.151ZM48.523,18.52a.469.469,0,0,1,.469.469V22.82a.469.469,0,0,1-.469.469h-.96V18.52ZM30.831,35.362a1.1,1.1,0,0,1-1.106,1.105h-.06a1.107,1.107,0,0,1-1.1-1.105V27.52h2.269ZM27.717,16.179h5.97v9.446c-6.43,0-5.929,0-6.055,0h-.005a4.722,4.722,0,0,1,.09-9.444Z" transform="translate(-10.817 -3.849)"/>
          <path id="Trazado_196448" data-name="Trazado 196448" d="M71.791,27.4h3.767a.947.947,0,0,0,0-1.895H71.791a.947.947,0,0,0,0,1.895Z" transform="translate(-29.147 -9.399)"/>
          <path id="Trazado_196449" data-name="Trazado 196449" d="M73.261,17.427l2.664-2.164a.947.947,0,1,0-1.194-1.47l-2.664,2.164a.947.947,0,1,0,1.194,1.47Z" transform="translate(-29.469 -5.004)"/>
          <path id="Trazado_196450" data-name="Trazado 196450" d="M75.925,36.382l-2.664-2.164a.947.947,0,1,0-1.194,1.47l2.664,2.164a.947.947,0,1,0,1.194-1.47Z" transform="translate(-29.469 -12.531)"/>
        </g>
      </g>
    </g>
    <g id="blog" transform="translate(1133 1517.533)">
      <g id="Grupo_135014" data-name="Grupo 135014" transform="translate(0 0)">
        <g id="Grupo_135006" data-name="Grupo 135006" transform="translate(0.947 0.947)">
          <g id="Grupo_135000" data-name="Grupo 135000" transform="translate(0 8.165)">
            <path id="Trazado_196402" data-name="Trazado 196402" d="M48.45,14.431H1.5V66.484a2.552,2.552,0,0,0,2.552,2.552H45.9a2.552,2.552,0,0,0,2.552-2.552V14.431Z" transform="translate(-1.5 -14.431)" fill="#f9f6f9"/>
          </g>
          <g id="Grupo_135001" data-name="Grupo 135001" transform="translate(40.316 8.165)">
            <path id="Trazado_196403" data-name="Trazado 196403" d="M67.893,14.431V66.484a2.552,2.552,0,0,1-2.552,2.552h4.083a2.552,2.552,0,0,0,2.552-2.552V14.431Z" transform="translate(-65.341 -14.431)" fill="#cdc9d7"/>
          </g>
          <g id="Grupo_135002" data-name="Grupo 135002" transform="translate(0)">
            <path id="Trazado_196404" data-name="Trazado 196404" d="M45.9,1.5H4.052A2.552,2.552,0,0,0,1.5,4.052V9.666H48.45V4.052A2.552,2.552,0,0,0,45.9,1.5Z" transform="translate(-1.5 -1.501)" fill="#b0a2cd"/>
          </g>
          <g id="Grupo_135003" data-name="Grupo 135003" transform="translate(40.316)">
            <path id="Trazado_196405" data-name="Trazado 196405" d="M69.424,1.5H65.341a2.552,2.552,0,0,1,2.552,2.552V9.666h4.083V4.052A2.552,2.552,0,0,0,69.424,1.5Z" transform="translate(-65.341 -1.501)" fill="#3e2471"/>
          </g>
          <g id="Grupo_135005" data-name="Grupo 135005" transform="translate(4.338 13.141)">
            <g id="Grupo_135004" data-name="Grupo 135004">
              <path id="Trazado_196406" data-name="Trazado 196406" d="M0,0H17.1V38.275H0Z" transform="translate(38.275 0) rotate(90)" fill="#eee99a"/>
            </g>
          </g>
        </g>
        <g id="Grupo_135012" data-name="Grupo 135012" transform="translate(32.764 13.111)">
          <g id="Grupo_135007" data-name="Grupo 135007" transform="translate(21.754)">
            <path id="Trazado_196407" data-name="Trazado 196407" d="M93.4,29.214,86.33,25.132l1.786-3.094A2.552,2.552,0,0,1,91.6,21.1l2.652,1.531a2.552,2.552,0,0,1,.934,3.486Z" transform="translate(-86.33 -20.762)" fill="#daaba3"/>
          </g>
          <g id="Grupo_135008" data-name="Grupo 135008" transform="translate(26.394 0.47)">
            <path id="Trazado_196408" data-name="Trazado 196408" d="M96.962,22.909l-2.431-1.4a2.552,2.552,0,0,1,.934,3.486l-1.786,3.094,2.431,1.4L97.9,26.395A2.552,2.552,0,0,0,96.962,22.909Z" transform="translate(-93.679 -21.506)" fill="#daaba3"/>
          </g>
          <g id="Grupo_135009" data-name="Grupo 135009" transform="translate(0 7.906)">
            <path id="Trazado_196409" data-name="Trazado 196409" d="M57.565,72.3l-3.629,1.88a1.276,1.276,0,0,1-1.861-1.075l-.187-4.083a5.1,5.1,0,0,1,.678-2.785L71.595,33.281l7.071,4.083L59.638,70.322a5.1,5.1,0,0,1-2.073,1.98Z" transform="translate(-51.883 -33.281)" fill="#eee99a"/>
          </g>
          <g id="Grupo_135010" data-name="Grupo 135010" transform="translate(0.164 10.585)">
            <path id="Trazado_196410" data-name="Trazado 196410" d="M76.332,37.523,57.3,70.482a5.1,5.1,0,0,1-2.073,1.98l-3.087,1.6.028.609a1.276,1.276,0,0,0,1.861,1.075l3.629-1.88a5.1,5.1,0,0,0,2.073-1.98L78.762,38.927Z" transform="translate(-52.143 -37.523)" fill="#eee99a"/>
          </g>
          <g id="Grupo_135011" data-name="Grupo 135011" transform="translate(18.981 4.106)">
            <path id="Trazado_196411" data-name="Trazado 196411" d="M89.963,35.273,82.45,30.936a1.021,1.021,0,0,1-.374-1.394L83.1,27.774a1.021,1.021,0,0,1,1.394-.374L92,31.738a1.021,1.021,0,0,1,.374,1.394L91.358,34.9A1.021,1.021,0,0,1,89.963,35.273Z" transform="translate(-81.94 -27.263)" fill="#b0a2cd"/>
          </g>
        </g>
        <g id="Grupo_135013" data-name="Grupo 135013">
          <ellipse id="Elipse_18202" data-name="Elipse 18202" cx="1.021" cy="1.021" rx="1.021" ry="1.021" transform="translate(42.794 4.009)"/>
          <ellipse id="Elipse_18203" data-name="Elipse 18203" cx="1.021" cy="1.021" rx="1.021" ry="1.021" transform="translate(38.711 4.009)"/>
          <ellipse id="Elipse_18204" data-name="Elipse 18204" cx="1.021" cy="1.021" rx="1.021" ry="1.021" transform="translate(34.629 4.009)"/>
          <path id="Trazado_196412" data-name="Trazado 196412" d="M19.938,55.155a.947.947,0,0,0,0,1.895h8.676a.947.947,0,0,0,0-1.895Z" transform="translate(-6.998 -20.325)"/>
          <path id="Trazado_196413" data-name="Trazado 196413" d="M7.816,64.322H24.147a.947.947,0,0,0,0-1.895H7.816a.947.947,0,0,0,0,1.895Z" transform="translate(-2.531 -23.005)"/>
          <path id="Trazado_196414" data-name="Trazado 196414" d="M7.816,71.6H24.147a.947.947,0,0,0,0-1.895H7.816a.947.947,0,0,0,0,1.895Z" transform="translate(-2.531 -25.685)"/>
          <path id="Trazado_196415" data-name="Trazado 196415" d="M7.816,78.869H24.147a.947.947,0,0,0,0-1.895H7.816a.947.947,0,0,0,0,1.895Z" transform="translate(-2.531 -28.365)"/>
          <path id="Trazado_196416" data-name="Trazado 196416" d="M7.816,86.142H24.147a.947.947,0,0,0,0-1.895H7.816a.947.947,0,0,0,0,1.895Z" transform="translate(-2.531 -31.045)"/>
          <path id="Trazado_196417" data-name="Trazado 196417" d="M7.816,93.415H24.147a.947.947,0,0,0,0-1.895H7.816a.947.947,0,0,0,0,1.895Z" transform="translate(-2.531 -33.725)"/>
          <path id="Trazado_196418" data-name="Trazado 196418" d="M46.09,25.953a.947.947,0,0,0,.947-.947V21.758a.947.947,0,0,0-.947-.947H7.817a.947.947,0,0,0-.947.947v17.1a.947.947,0,0,0,.947.947H46.09a.947.947,0,0,0,.947-.947V29.427a.947.947,0,1,0-1.895,0v8.48H8.764V22.7H45.143v2.3A.947.947,0,0,0,46.09,25.953Z" transform="translate(-2.532 -7.669)"/>
          <path id="Trazado_196419" data-name="Trazado 196419" d="M64.545,16.289a3.477,3.477,0,0,0-1.63-2.125l-2.652-1.531a3.5,3.5,0,0,0-4.78,1.281L54.108,16.3a1.964,1.964,0,0,0-2.025.956l-1.021,1.768a1.964,1.964,0,0,0,.184,2.232l-2.4,4.159V3.5a3.5,3.5,0,0,0-3.5-3.5H3.5A3.5,3.5,0,0,0,0,3.5V15.668a.947.947,0,1,0,1.895,0V10.061H46.95V28.694l-3.543,6.136H27.229a.947.947,0,0,0,0,1.895H42.314l-1.558,2.7H27.229a.947.947,0,0,0,0,1.895H39.662l-1.558,2.7H27.229a.947.947,0,0,0,0,1.895H37.01l-1.558,2.7H27.229a.947.947,0,1,0,0,1.895h7.129L32.8,53.2H27.229a.947.947,0,1,0,0,1.895h4.759a6.043,6.043,0,0,0-.165,1.707l.045.992h-4.64a.947.947,0,0,0,0,1.895h4.726l.055,1.2a2.217,2.217,0,0,0,.394,1.168l-.414.717H3.5a1.606,1.606,0,0,1-1.6-1.6V20.089a.947.947,0,1,0-1.895,0V61.167a3.5,3.5,0,0,0,3.5,3.5H45.346a3.5,3.5,0,0,0,3.5-3.5V57.782a.947.947,0,1,0-1.895,0v3.385a1.606,1.606,0,0,1-1.6,1.6H35.227l.026-.012,3.629-1.88a6.04,6.04,0,0,0,2.457-2.347l5.611-9.718v4.548a.947.947,0,1,0,1.895,0V45.533L59.958,26.284a1.964,1.964,0,0,0,2.025-.957L63,23.56a1.964,1.964,0,0,0-.184-2.232L64.2,18.944a3.476,3.476,0,0,0,.349-2.655ZM3.5,1.9H45.346a1.606,1.606,0,0,1,1.6,1.6V8.166H1.895V3.5A1.606,1.606,0,0,1,3.5,1.9ZM57.124,14.861a1.607,1.607,0,0,1,2.192-.587l2.652,1.531A1.6,1.6,0,0,1,62.555,18L61.242,20.27l-5.431-3.135ZM39.7,57.585A4.149,4.149,0,0,1,38.011,59.2l-3.629,1.88A.329.329,0,0,1,33.9,60.8l-.187-4.083a4.149,4.149,0,0,1,.552-2.268L52.823,22.311l5.431,3.135ZM61.363,22.612,60.343,24.38a.074.074,0,0,1-.1.027l-7.513-4.338a.074.074,0,0,1-.027-.1L53.723,18.2a.074.074,0,0,1,.1-.027l7.513,4.338a.073.073,0,0,1,.027.1Z" transform="translate(0 -0.001)"/>
        </g>
      </g>
    </g>
  </g>
</svg>
