<svg xmlns="http://www.w3.org/2000/svg" width="102.4" height="100.85" viewBox="0 0 102.4 100.85">
  <g id="objetivo_3_" data-name="objetivo (3)" transform="translate(0 -0.1)">
    <path id="Trazado_196678" data-name="Trazado 196678" d="M75.888,62.05,89.384,48.7c5.041-5.041,14.735,1.319,9.5,7.48L82.54,75.4a11.464,11.464,0,0,1-2.186,1.984,16.3,16.3,0,0,1-8.863,2.245H47.239a45.507,45.507,0,0,0-5.249.3l-6.975.784L20.548,66.679s8.207-15.5,24.306-11.044a34.666,34.666,0,0,0,9.251,1.23H70.043c7.5,0,7.563,11.922-.062,11.922H56.105" fill="#ffcdac"/>
    <path id="Trazado_196679" data-name="Trazado 196679" d="M25.512,98.987l13.763-14.12a.01.01,0,0,0,0-.014L15.921,62.189a.011.011,0,0,0-.014,0L2.014,76.613Zm0,0" fill="#6677d6"/>
    <path id="Trazado_196680" data-name="Trazado 196680" d="M18.529,20.064a8.6,8.6,0,0,0-7.776,8.558v9.153a2.863,2.863,0,0,0,2.863,2.862H33.244a2.863,2.863,0,0,0,2.863-2.862V28.622a8.6,8.6,0,0,0-7.786-8.559" fill="#3d4780"/>
    <path id="Trazado_196681" data-name="Trazado 196681" d="M33.034,11.772a9.6,9.6,0,1,1-9.6-9.605A9.6,9.6,0,0,1,33.034,11.772Zm0,0" fill="#ffcdac"/>
    <path id="Trazado_196682" data-name="Trazado 196682" d="M43.883,20.064a8.6,8.6,0,0,0-7.777,8.558v9.153a2.863,2.863,0,0,0,2.863,2.862H58.6a2.863,2.863,0,0,0,2.862-2.862V28.622a8.6,8.6,0,0,0-7.786-8.559" fill="#c6412a"/>
    <path id="Trazado_196683" data-name="Trazado 196683" d="M58.388,11.772a9.605,9.605,0,1,1-9.6-9.605A9.6,9.6,0,0,1,58.388,11.772Zm0,0" fill="#ffcdac"/>
    <path id="Trazado_196684" data-name="Trazado 196684" d="M69.237,20.064a8.6,8.6,0,0,0-7.777,8.558v9.153a2.863,2.863,0,0,0,2.863,2.862H83.951a2.863,2.863,0,0,0,2.863-2.862V28.622a8.6,8.6,0,0,0-7.787-8.559" fill="#eee99a"/>
    <path id="Trazado_196685" data-name="Trazado 196685" d="M83.742,11.772a9.605,9.605,0,1,1-9.605-9.605A9.605,9.605,0,0,1,83.742,11.772Zm0,0" fill="#ffcdac"/>
    <path id="Trazado_196686" data-name="Trazado 196686" d="M99.98,47.213a9.275,9.275,0,0,0-5.721-2.4,8.189,8.189,0,0,0-6.292,2.4L76.581,58.478a7.558,7.558,0,0,0-.77-1.1A7.381,7.381,0,0,0,70.044,54.8H54.1a32.692,32.692,0,0,1-8.714-1.158,21.441,21.441,0,0,0-20,4.232,29.091,29.091,0,0,0-5.209,5.591l-2.858-2.773a2.032,2.032,0,0,0-1.409-.572H15.9a2.036,2.036,0,0,0-1.445.62L.563,75.162a2.016,2.016,0,0,0,.062,2.856l23.5,22.374a2.014,2.014,0,0,0,2.832-.052L40.718,86.22a2.025,2.025,0,0,0-.04-2.866l-1.2-1.163,2.743-.309a43.6,43.6,0,0,1,5.017-.291H71.49a18.206,18.206,0,0,0,9.948-2.562l.066-.044a13.424,13.424,0,0,0,2.57-2.333l16.342-19.226c2.8-3.29,2.622-7.4-.436-10.215ZM25.459,96.1,4.87,76.5,15.962,64.983,36.431,84.847ZM97.347,54.819,81,74.045a9.416,9.416,0,0,1-1.769,1.612,14.325,14.325,0,0,1-7.745,1.907H47.239a47.566,47.566,0,0,0-5.474.317l-6.03.677L23.11,66.306A25.124,25.124,0,0,1,27.938,61a17.34,17.34,0,0,1,16.379-3.47,36.715,36.715,0,0,0,9.788,1.3H70.044c2.863,0,3.627,2.48,3.627,3.945a4.362,4.362,0,0,1-.943,2.8,3.423,3.423,0,0,1-2.747,1.152H56.106a2.014,2.014,0,0,0,0,4.029H69.981A7.47,7.47,0,0,0,75.8,68.176a8.273,8.273,0,0,0,1.9-5.133L90.809,50.068a4.716,4.716,0,0,1,6.441.107c.847.781,1.986,2.423.1,4.644Zm0,0"/>
    <path id="Trazado_196687" data-name="Trazado 196687" d="M49.823,68.2a2.014,2.014,0,1,0-3.922.92l.019.082a2.016,2.016,0,0,0,1.959,1.555,2.038,2.038,0,0,0,.462-.053,2.014,2.014,0,0,0,1.5-2.421Zm0,0"/>
    <path id="Trazado_196688" data-name="Trazado 196688" d="M13.616,42.6H33.244a4.847,4.847,0,0,0,2.863-.933,4.847,4.847,0,0,0,2.862.933H58.6a4.847,4.847,0,0,0,2.862-.933,4.847,4.847,0,0,0,2.863.933H83.951a4.883,4.883,0,0,0,4.877-4.877V28.57a10.562,10.562,0,0,0-5.745-9.444,11.62,11.62,0,1,0-17.892,0,10.552,10.552,0,0,0-3.73,3.2,10.532,10.532,0,0,0-3.731-3.2,11.62,11.62,0,1,0-17.891,0,10.532,10.532,0,0,0-3.731,3.2,10.542,10.542,0,0,0-3.731-3.2,11.619,11.619,0,1,0-17.891,0A10.564,10.564,0,0,0,8.738,28.57v9.152A4.883,4.883,0,0,0,13.616,42.6ZM74.137,4.129a7.591,7.591,0,1,1-7.591,7.591A7.6,7.6,0,0,1,74.137,4.129ZM68.9,22.089a11.578,11.578,0,0,0,10.466,0,6.545,6.545,0,0,1,5.43,6.48v9.153a.849.849,0,0,1-.848.848H64.323a.849.849,0,0,1-.848-.848V28.57a6.545,6.545,0,0,1,5.429-6.48ZM48.783,4.129a7.591,7.591,0,1,1-7.591,7.591A7.6,7.6,0,0,1,48.783,4.129Zm-5.233,17.96a11.578,11.578,0,0,0,10.466,0,6.546,6.546,0,0,1,5.43,6.48v9.153a.849.849,0,0,1-.848.848H38.969a.849.849,0,0,1-.848-.848V28.57a6.546,6.546,0,0,1,5.43-6.48ZM23.43,4.129a7.591,7.591,0,1,1-7.591,7.591A7.6,7.6,0,0,1,23.43,4.129ZM12.767,28.57a6.546,6.546,0,0,1,5.43-6.48,11.578,11.578,0,0,0,10.466,0,6.545,6.545,0,0,1,5.43,6.48v9.153a.849.849,0,0,1-.848.848H13.616a.849.849,0,0,1-.848-.848Zm0,0"/>
  </g>
</svg>
