<svg xmlns="http://www.w3.org/2000/svg" xmlns:xlink="http://www.w3.org/1999/xlink" width="1030" height="451.124" viewBox="0 0 1030 451.124">
  <defs>
    <clipPath id="clip-path">
      <path id="Trazado_194534" data-name="Trazado 194534" d="M61.331,62.123c-6.083,10.783-14.1,22.316-17.616,36.022-3.95,15.8-27.649,134.767-29.505,163.68a60.507,60.507,0,0,0,15.8.276c10.072-28.873,40.8-118.494,45.107-136.545a2.37,2.37,0,0,1,4.661.671C77.328,147,83.292,207.436,83.292,264.471c2.607,1.3,14.022.355,17.063,0,3.318-35.548,21.882-155.82-4.582-199.5a195.682,195.682,0,0,0-34.442-2.844Z" transform="translate(-14.21 -62.119)" fill="none"/>
    </clipPath>
    <clipPath id="clip-path-2">
      <path id="Trazado_194553" data-name="Trazado 194553" d="M124.585,65.07l-36.3,3.673s-5.174,3.95-10.349,23.383c-6.28,23.9-15.8,69.833-19.078,159.454l23.462.711,19.749-120.548a1.74,1.74,0,0,1,3.436.553l6,121.5,23.146-.869s7.228-133.622,1.145-157A128.291,128.291,0,0,0,124.585,65.07Z" transform="translate(-58.86 -65.07)" fill="#3e2471"/>
    </clipPath>
  </defs>
  <g id="Grupo_135478" data-name="Grupo 135478" transform="translate(-285 -1996)">
    <text id="Para_crear_una_marca_es_necesario:" data-name="Para crear una marca es necesario:" transform="translate(588.615 1996)" fill="#12263f" font-size="24" font-family="Roboto-Black, Roboto" font-weight="800"><tspan x="0" y="25">Para crear una marca es necesario:</tspan></text>
    <g id="Grupo_135452" data-name="Grupo 135452">
      <g id="Grupo_135313" data-name="Grupo 135313" transform="translate(93.283)">
        <g id="Grupo_135306" data-name="Grupo 135306" transform="translate(955.781 2139.876)">
          <path id="Trazado_195809" data-name="Trazado 195809" d="M434.74,108.58l-15.17,21.79,15.17,21.79,15.17-21.79Z" transform="translate(-419.57 -108.58)" fill="#b8bee0"/>
        </g>
        <g id="Grupo_135312" data-name="Grupo 135312" transform="translate(191.717 2056.684)">
          <g id="Grupo_135300" data-name="Grupo 135300" transform="translate(555.652 31.667)">
            <path id="Trazado_195802" data-name="Trazado 195802" d="M275.32,204.08l52.934-59.337-6.939-61.867A9.572,9.572,0,0,1,330.9,73.33H465.241a9.572,9.572,0,0,1,9.6,9.547v121.2a9.572,9.572,0,0,1-9.6,9.547H284.9A9.572,9.572,0,0,1,275.32,204.08Z" transform="translate(-251.257 -66.854)" fill="#b8bee0"/>
            <path id="Trazado_195803" data-name="Trazado 195803" d="M287.187,118.369H260.413q1.074-23.323,14.62-36.716t34.889-13.38a47.285,47.285,0,0,1,23.2,5.534,41.458,41.458,0,0,1,16.039,15.988,41.918,41.918,0,0,1,6.032,21.227q0,12.844-7.31,27.643t-26.735,35l-16.179,17.061h51.4v25.445H256.49V202.984l44.614-45.5q16.179-16.371,21.521-26.326t5.342-17.994a18.556,18.556,0,0,0-5.534-13.777,19.54,19.54,0,0,0-14.275-5.431,18.876,18.876,0,0,0-14.7,6.569Q287.583,107.085,287.187,118.369Z" transform="translate(-256.49 -68.262)" fill="#b8bee0"/>
            <path id="Trazado_195804" data-name="Trazado 195804" d="M290.187,123.369H263.413q1.074-23.323,14.62-36.716t34.889-13.38a47.286,47.286,0,0,1,23.2,5.534,41.458,41.458,0,0,1,16.039,15.988,41.918,41.918,0,0,1,6.032,21.227q0,12.844-7.31,27.643t-26.735,35l-16.179,17.061h51.4v25.445H259.49V207.984l44.614-45.5q16.179-16.371,21.521-26.326t5.342-17.994a18.557,18.557,0,0,0-5.534-13.777,19.54,19.54,0,0,0-14.275-5.431,18.875,18.875,0,0,0-14.7,6.569Q290.583,112.085,290.187,123.369Z" transform="translate(-255.657 -66.872)" fill="#6677d6"/>
            <g id="Rectángulo_44447" data-name="Rectángulo 44447" transform="translate(105.348 23.649)" fill="#fff" stroke="#6677d6" stroke-width="3" opacity="0.9">
              <rect width="103" height="102" rx="51" stroke="none"/>
              <rect x="1.5" y="1.5" width="100" height="99" rx="49.5" fill="none"/>
            </g>
            <g id="manzana" transform="translate(128.87 36.174)">
              <path id="Trazado_196921" data-name="Trazado 196921" d="M50.32,52.831A6.625,6.625,0,0,0,54.19,62.86C51.162,73.874,42.716,83.343,30.613,80.042a7.361,7.361,0,0,0-1.592-.137h-.6a7.374,7.374,0,0,0-1.594.137C11.483,84.227,2.016,67.954,2.016,53.9c0-13.949,7.475-25.55,24.513-21.566a7.822,7.822,0,0,0,2.139.357h.053a8.424,8.424,0,0,0,2.192-.371c11.4-2.669,18.508,1.628,21.972,8.96A6.619,6.619,0,0,0,50.32,52.831Zm0,0" transform="translate(-0.442 -6.719)" fill="#6677d6"/>
              <path id="Trazado_196922" data-name="Trazado 196922" d="M26.071,3.5a9.819,9.819,0,0,1,7.485,11.546l-1.5,6.949L25.11,20.5A9.818,9.818,0,0,1,17.627,8.949L19.124,2Zm0,0" transform="translate(-3.727 -0.426)" fill="#4e2e8e"/>
              <g id="Grupo_135202" data-name="Grupo 135202" transform="translate(0 0)">
                <path id="Trazado_196923" data-name="Trazado 196923" d="M10.854,78.14a17.716,17.716,0,0,0,15.919,3A6.227,6.227,0,0,1,28,81.052h.6a6.206,6.206,0,0,1,1.221.093,19.7,19.7,0,0,0,5.16.711A17.546,17.546,0,0,0,46.385,77.6c4.048-3.367,7.208-8.608,8.9-14.752a1.573,1.573,0,0,0-1.119-1.939,5.053,5.053,0,0,1-2.951-7.645,1.573,1.573,0,0,0-.32-2.08,5.045,5.045,0,0,1,1.956-8.8,1.574,1.574,0,0,0,1.036-2.2,17.858,17.858,0,0,0-8.781-8.99c-4.17-1.9-9.208-2.18-14.972-.83l-.055.014a7.141,7.141,0,0,1-1.778.316h-.053a6.228,6.228,0,0,1-1.7-.3l-.076-.02c-7.433-1.738-13.811-.715-18.444,2.959-5.16,4.093-8,11.245-8,20.14A35.743,35.743,0,0,0,2.8,67.219a26.576,26.576,0,0,0,8.05,10.922ZM9.974,35.8a15.139,15.139,0,0,1,9.694-3.119,26.733,26.733,0,0,1,6.04.75,9.282,9.282,0,0,0,2.535.408h.053a9.841,9.841,0,0,0,2.579-.419c11.009-2.569,16.572,1.844,19.373,6.61a8.191,8.191,0,0,0-2.3,12.674,8.2,8.2,0,0,0,3.892,10.683,25.4,25.4,0,0,1-7.466,11.795A14.488,14.488,0,0,1,30.6,78.1l-.077-.019a8.883,8.883,0,0,0-1.93-.173H28a8.935,8.935,0,0,0-1.931.173l-.077.019a14.493,14.493,0,0,1-13.223-2.457c-5.743-4.386-9.6-13.293-9.6-22.164,0-7.913,2.419-14.19,6.811-17.673Zm0,0" transform="translate(-0.016 -6.293)"/>
                <path id="Trazado_196924" data-name="Trazado 196924" d="M24.352,21.608,31.3,23.1a1.574,1.574,0,0,0,1.87-1.207l1.5-6.949a.163.163,0,0,0,0-.017,11.393,11.393,0,0,0-8.695-13.4L19.029.035a1.575,1.575,0,0,0-1.87,1.207l-1.5,6.949,0,.015a11.391,11.391,0,0,0,8.693,13.4ZM18.741,8.846l1.164-5.4,5.4,1.162a8.246,8.246,0,0,1,6.287,9.688l-1.163,5.4-5.4-1.163a8.283,8.283,0,0,1-6.286-9.687Zm0,0" transform="translate(-3.3 0)"/>
              </g>
            </g>
          </g>
          <g id="Grupo_135307" data-name="Grupo 135307" transform="translate(325.602 35.306)">
            <path id="Trazado_195808" data-name="Trazado 195808" d="M244.7,108.84l-15.17,24.435L244.7,157.71l17.815-24.435Z" transform="translate(-33.936 -60.622)" fill="#e0cbc8"/>
            <g id="Grupo_135299" data-name="Grupo 135299" transform="translate(0 0)">
              <rect id="Rectángulo_44445" data-name="Rectángulo 44445" width="140.962" height="176.361" rx="8.28" transform="translate(210.743 2.173) rotate(90)" fill="#e0cbc8"/>
              <path id="Trazado_195800" data-name="Trazado 195800" d="M92.365,71.11H133.44V215.381H106.193V96.887H76.48Z" transform="translate(-76.48 -71.11)" fill="#e0cbc8"/>
              <path id="Trazado_195801" data-name="Trazado 195801" d="M95.365,75.11H136.44V219.381H109.193V100.887H79.48Z" transform="translate(-75.647 -69.998)" fill="#9e3421"/>
              <g id="Rectángulo_44448" data-name="Rectángulo 44448" transform="translate(80.398 20.01)" fill="#fff" stroke="#c6412a" stroke-width="3" opacity="0.9">
                <rect width="102" height="102" rx="51" stroke="none"/>
                <rect x="1.5" y="1.5" width="99" height="99" rx="49.5" fill="none"/>
              </g>
              <g id="publico-objetivo_1_" data-name="publico-objetivo (1)" transform="translate(98.33 37.829)">
                <g id="Grupo_135224" data-name="Grupo 135224" transform="translate(0)">
                  <g id="Grupo_135222" data-name="Grupo 135222" transform="translate(1.015 1.015)">
                    <g id="Grupo_135221" data-name="Grupo 135221">
                      <g id="Grupo_135217" data-name="Grupo 135217" transform="translate(4.168 4.168)">
                        <circle id="Elipse_18244" data-name="Elipse 18244" cx="27.304" cy="27.304" r="27.304" fill="#6677d6"/>
                      </g>
                      <g id="Grupo_135218" data-name="Grupo 135218">
                        <path id="Trazado_196994" data-name="Trazado 196994" d="M13.186,1.6H4.773A3.173,3.173,0,0,0,1.6,4.773v8.413a2.089,2.089,0,0,0,4.177,0V5.778h7.408a2.089,2.089,0,0,0,0-4.178Z" transform="translate(-1.6 -1.6)" fill="#ffef0f"/>
                        <path id="Trazado_196995" data-name="Trazado 196995" d="M81.337,1.6h8.413a3.173,3.173,0,0,1,3.173,3.173v8.413a2.089,2.089,0,1,1-4.177,0V5.778H81.338a2.089,2.089,0,0,1,0-4.178Z" transform="translate(-29.979 -1.6)" fill="#ffef0f"/>
                        <path id="Trazado_196996" data-name="Trazado 196996" d="M13.186,92.923H4.773A3.173,3.173,0,0,1,1.6,89.751V81.337a2.089,2.089,0,1,1,4.177,0v7.408h7.408a2.089,2.089,0,0,1,0,4.178Z" transform="translate(-1.6 -29.979)" fill="#ffef0f"/>
                        <path id="Trazado_196997" data-name="Trazado 196997" d="M81.337,92.923h8.413a3.173,3.173,0,0,0,3.173-3.173V81.337a2.089,2.089,0,1,0-4.177,0v7.408H81.338a2.089,2.089,0,0,0,0,4.178Z" transform="translate(-29.979 -29.979)" fill="#ffef0f"/>
                      </g>
                      <g id="Grupo_135219" data-name="Grupo 135219" transform="translate(0 0.947)">
                        <path id="Trazado_196998" data-name="Trazado 196998" d="M15.592,4.039H8.818a.635.635,0,0,0-.635.635v1.65h7.408A2.087,2.087,0,0,0,17.34,3.092a2.086,2.086,0,0,1-1.748.947Z" transform="translate(-4.006 -3.092)" fill="#ffef0f"/>
                        <path id="Trazado_196999" data-name="Trazado 196999" d="M3.689,18.348A2.089,2.089,0,0,1,1.6,16.26v2.284a2.089,2.089,0,0,0,4.177,0V16.26A2.089,2.089,0,0,1,3.689,18.348Z" transform="translate(-1.6 -7.905)" fill="#ffef0f"/>
                      </g>
                      <g id="Grupo_135220" data-name="Grupo 135220" transform="translate(49.269 0.947)">
                        <path id="Trazado_197000" data-name="Trazado 197000" d="M88.746,4.673a.635.635,0,0,0-.635-.635H81.337a2.086,2.086,0,0,1-1.748-.947,2.087,2.087,0,0,0,1.748,3.231h7.408Z" transform="translate(-79.249 -3.092)" fill="#ffef0f"/>
                        <path id="Trazado_197001" data-name="Trazado 197001" d="M96.3,18.348a2.089,2.089,0,0,1-2.089-2.089v2.284a2.089,2.089,0,0,0,4.178,0V16.26A2.089,2.089,0,0,1,96.3,18.348Z" transform="translate(-84.719 -7.905)" fill="#ffef0f"/>
                      </g>
                      <path id="Trazado_197002" data-name="Trazado 197002" d="M13.186,95.373H4.773A3.173,3.173,0,0,1,1.6,92.2v2.284a3.173,3.173,0,0,0,3.173,3.173h8.413a2.087,2.087,0,0,0,1.748-3.231,2.086,2.086,0,0,1-1.748.947Z" transform="translate(-1.6 -34.713)" fill="#ffef0f"/>
                      <path id="Trazado_197003" data-name="Trazado 197003" d="M89.751,95.373H81.337a2.086,2.086,0,0,1-1.748-.947,2.087,2.087,0,0,0,1.748,3.231h8.413a3.173,3.173,0,0,0,3.173-3.173V92.2a3.173,3.173,0,0,1-3.173,3.173Z" transform="translate(-29.979 -34.713)" fill="#ffef0f"/>
                    </g>
                    <path id="Trazado_197004" data-name="Trazado 197004" d="M55.845,33.648c1.7-4.111.495-8.749-1.995-10.578a6.367,6.367,0,0,0-4.505-1.09,7.382,7.382,0,0,0-5.115-1.915c-4.493,0-13.618,2.278-11.882,13.73" transform="translate(-12.759 -8.349)" fill="#af665a"/>
                    <path id="Trazado_197005" data-name="Trazado 197005" d="M43.976,74.99a19.546,19.546,0,0,0,12.542-4.53,16.446,16.446,0,0,0-8.562-7.76h0A8.985,8.985,0,0,1,40,62.7h0a16.446,16.446,0,0,0-8.562,7.76A19.545,19.545,0,0,0,43.976,74.99Z" transform="translate(-12.504 -23.931)" fill="#eef2f5"/>
                    <path id="Trazado_197006" data-name="Trazado 197006" d="M43.976,76.286A19.536,19.536,0,0,1,32.383,72.5c-.327.48-.645.993-.948,1.544a19.626,19.626,0,0,0,25.083,0c-.3-.551-.622-1.064-.948-1.544A19.535,19.535,0,0,1,43.976,76.286Z" transform="translate(-12.504 -27.512)" fill="#deeaf3"/>
                    <path id="Trazado_197007" data-name="Trazado 197007" d="M55.009,38.145v5.407a8.983,8.983,0,1,1-17.966,0V38.145c5.442-.635,11.91-5.8,11.91-5.8S52.111,36.842,55.009,38.145Z" transform="translate(-14.554 -12.837)" fill="#fdd4bb"/>
                    <path id="Trazado_197008" data-name="Trazado 197008" d="M46.026,55.389a8.983,8.983,0,0,1-8.983-8.983V48.69a8.983,8.983,0,0,0,17.966,0V46.406A8.983,8.983,0,0,1,46.026,55.389Z" transform="translate(-14.554 -17.976)" fill="#f7c4a8"/>
                    <path id="Trazado_197009" data-name="Trazado 197009" d="M65.357,41.308a3.006,3.006,0,1,1,0,5.4Z" transform="translate(-24.902 -16.001)" fill="#ebbaa1"/>
                    <path id="Trazado_197010" data-name="Trazado 197010" d="M34.549,41.308a3.006,3.006,0,1,0,0,5.4Z" transform="translate(-12.06 -16.001)" fill="#ebbaa1"/>
                    <path id="Trazado_197011" data-name="Trazado 197011" d="M66.681,45.8a2.993,2.993,0,0,1-1.324-.307v2.284a3.007,3.007,0,0,0,4.1-3.842A3.007,3.007,0,0,1,66.681,45.8Z" transform="translate(-24.902 -17.074)" fill="#e8a990"/>
                    <path id="Trazado_197012" data-name="Trazado 197012" d="M30.444,43.939a3.007,3.007,0,0,0,4.1,3.842V45.5a3.007,3.007,0,0,1-4.1-1.557Z" transform="translate(-12.06 -17.074)" fill="#e8a990"/>
                    <path id="Trazado_197013" data-name="Trazado 197013" d="M48.908,63.628A8.943,8.943,0,0,1,44.93,62.7h0l1.99,5.043H50.9l1.99-5.043h0a8.943,8.943,0,0,1-3.978.928Z" transform="translate(-17.436 -23.931)" fill="#c6412a"/>
                    <path id="Trazado_197014" data-name="Trazado 197014" d="M46.057,77.623a19.743,19.743,0,0,0,6.527,0L51.31,70.648H47.331Z" transform="translate(-17.848 -26.836)" fill="#c6412a"/>
                    <path id="Trazado_197015" data-name="Trazado 197015" d="M49.32,78.35a19.777,19.777,0,0,1-2.858-.208l-.405,2.221a19.742,19.742,0,0,0,6.527,0l-.405-2.221a19.777,19.777,0,0,1-2.858.208Z" transform="translate(-17.848 -29.575)" fill="#c6412a"/>
                  </g>
                  <g id="Grupo_135223" data-name="Grupo 135223">
                    <path id="Trazado_197016" data-name="Trazado 197016" d="M52.726,52.726A28.11,28.11,0,0,0,61,33.661h2.858a.954.954,0,1,0,0-1.907H61a28.305,28.305,0,0,0-27.34-27.34V1.555a.954.954,0,1,0-1.907,0V4.414a28.305,28.305,0,0,0-27.34,27.34H1.555a.954.954,0,0,0,0,1.907H4.414A28.305,28.305,0,0,0,31.754,61v2.858a.954.954,0,1,0,1.907,0V61a28.111,28.111,0,0,0,19.065-8.275ZM6.323,33.661H7.477a.954.954,0,1,0,0-1.907H6.323A26.435,26.435,0,0,1,31.753,6.322V7.477a.954.954,0,1,0,1.907,0V6.322A26.436,26.436,0,0,1,59.092,31.753H57.937a.954.954,0,1,0,0,1.907h1.154A26.436,26.436,0,0,1,33.661,59.092V57.937a.954.954,0,1,0-1.907,0v1.155A26.435,26.435,0,0,1,6.323,33.661Z" transform="translate(-0.22 -0.22)"/>
                    <path id="Trazado_197017" data-name="Trazado 197017" d="M3.046,15.609a3.05,3.05,0,0,0,3.047-3.046V6.093h6.469a3.047,3.047,0,0,0,0-6.093H4.132A4.137,4.137,0,0,0,0,4.132v8.43a3.05,3.05,0,0,0,3.046,3.046ZM1.907,4.132A2.228,2.228,0,0,1,4.132,1.907h8.43a1.139,1.139,0,0,1,0,2.278H5.139a.954.954,0,0,0-.954.954v7.423a1.139,1.139,0,1,1-2.278,0V4.132Z" transform="translate(0 0)"/>
                    <path id="Trazado_197018" data-name="Trazado 197018" d="M89.277,0H87.015a.954.954,0,1,0,0,1.907h2.261A2.228,2.228,0,0,1,91.5,4.132v8.43a1.139,1.139,0,0,1-2.279,0V5.139a.954.954,0,0,0-.954-.954H80.847a1.139,1.139,0,0,1,0-2.278H83.2A.954.954,0,0,0,83.2,0H80.847a3.046,3.046,0,1,0,0,6.093h6.469v6.469a3.047,3.047,0,0,0,6.093,0V4.132A4.137,4.137,0,0,0,89.277,0Z" transform="translate(-28.435)"/>
                    <path id="Trazado_197019" data-name="Trazado 197019" d="M12.562,87.316H6.093V80.847a3.047,3.047,0,1,0-6.093,0v8.43a4.137,4.137,0,0,0,4.132,4.132H6.3a.954.954,0,1,0,0-1.907H4.132a2.228,2.228,0,0,1-2.225-2.225v-8.43a1.139,1.139,0,1,1,2.278,0V88.27a.954.954,0,0,0,.954.954h7.423a1.139,1.139,0,0,1,0,2.278H10.111a.954.954,0,1,0,0,1.907h2.452a3.046,3.046,0,0,0,0-6.093Z" transform="translate(0 -28.435)"/>
                    <path id="Trazado_197020" data-name="Trazado 197020" d="M90.363,77.8a3.05,3.05,0,0,0-3.047,3.046v6.469H80.847a3.046,3.046,0,1,0,0,6.093h8.43a4.137,4.137,0,0,0,4.132-4.132v-8.43A3.05,3.05,0,0,0,90.363,77.8ZM91.5,89.277A2.228,2.228,0,0,1,89.277,91.5h-8.43a1.139,1.139,0,0,1,0-2.278H88.27a.954.954,0,0,0,.954-.954V80.847a1.139,1.139,0,0,1,2.279,0v8.43Z" transform="translate(-28.435 -28.435)"/>
                    <path id="Trazado_197021" data-name="Trazado 197021" d="M56.935,46.745a.954.954,0,0,0,.954-.954V44.333a.954.954,0,0,0-1.907,0v1.458A.954.954,0,0,0,56.935,46.745Z" transform="translate(-20.46 -15.855)"/>
                    <path id="Trazado_197022" data-name="Trazado 197022" d="M44.367,46.745a.954.954,0,0,0,.954-.954V44.333a.954.954,0,0,0-1.907,0v1.458A.954.954,0,0,0,44.367,46.745Z" transform="translate(-15.867 -15.855)"/>
                    <path id="Trazado_197023" data-name="Trazado 197023" d="M46.112,53.965a3.744,3.744,0,0,0,6.388,0,.953.953,0,1,0-1.735-.788h0a1.92,1.92,0,0,1-2.917,0h0a.953.953,0,1,0-1.735.788Z" transform="translate(-16.819 -19.225)"/>
                    <path id="Trazado_197024" data-name="Trazado 197024" d="M56.144,55.069a.953.953,0,0,0,.225-1.194,18.389,18.389,0,0,0-7.388-7.459,9.955,9.955,0,0,0,3.863-6.7,4.028,4.028,0,0,0,.451.025,3.964,3.964,0,0,0,2.47-7.065,11.549,11.549,0,0,0,.348-5.966A8.326,8.326,0,0,0,53.171,21.7a7.294,7.294,0,0,0-4.759-1.318A8.576,8.576,0,0,0,42.968,18.5a15.961,15.961,0,0,0-7.521,1.884.954.954,0,0,0,.937,1.662,13.992,13.992,0,0,1,6.584-1.638A6.429,6.429,0,0,1,47.4,22.032a.962.962,0,0,0,.856.281,5.474,5.474,0,0,1,3.784.921c2.345,1.723,2.86,5.653,1.971,8.644a3.949,3.949,0,0,0-2,.148,14.174,14.174,0,0,1-3.437-2.968,28.735,28.735,0,0,1-1.89-2.343.954.954,0,0,0-1.375-.2c-.062.049-6.134,4.852-11.2,5.575a3.927,3.927,0,0,0-1.465-.281,3.969,3.969,0,0,0-.775.077,10.387,10.387,0,0,1,1.873-7.625.954.954,0,1,0-1.492-1.188c-1.962,2.463-2.7,5.728-2.205,9.711a3.963,3.963,0,0,0,2.6,6.958,4.03,4.03,0,0,0,.451-.025,9.954,9.954,0,0,0,3.863,6.7,18.389,18.389,0,0,0-7.388,7.459.953.953,0,0,0,.225,1.194,20.617,20.617,0,0,0,26.352,0ZM52.922,33.752a2.059,2.059,0,1,1,0,4.05ZM33.013,37.8a2.059,2.059,0,1,1,0-4.05ZM49.5,48.964A16.931,16.931,0,0,1,54.3,54.1,18.731,18.731,0,0,1,47,57.479L45.948,51.71l1.54-3.9A13.91,13.91,0,0,1,49.5,48.964ZM34.92,38.49v-4.6a23.847,23.847,0,0,0,7.546-3.143c1.392-.83,2.534-1.627,3.242-2.146a20.856,20.856,0,0,0,5.305,5.054V38.49a8.047,8.047,0,0,1-16.094,0Zm4.013,18.989A18.731,18.731,0,0,1,31.639,54.1a16.265,16.265,0,0,1,6.809-6.293l1.539,3.9Zm4.034-9.035a9.935,9.935,0,0,0,2.329-.278l-.984,2.493h-2.69l-.984-2.493A9.935,9.935,0,0,0,42.968,48.444Zm-1.2,4.123h2.4L45.12,57.8a18.509,18.509,0,0,1-4.306,0Z" transform="translate(-10.48 -6.762)"/>
                  </g>
                </g>
              </g>
            </g>
          </g>
          <g id="Grupo_135311" data-name="Grupo 135311" transform="translate(325.602 225.828)">
            <path id="Trazado_195795" data-name="Trazado 195795" d="M807.57,110.91,792.4,132.7l15.17,21.79,15.17-21.79Z" transform="translate(-584.382 -56.417)" fill="#b8bee0"/>
            <g id="Grupo_135302" data-name="Grupo 135302" transform="translate(0 0)">
              <g id="Grupo_135308" data-name="Grupo 135308" transform="translate(73.306 5.802)">
                <path id="Trazado_195791" data-name="Trazado 195791" d="M9.8,0H131.211a9.8,9.8,0,0,1,9.751,9.815V149.882H0V9.815A9.8,9.8,0,0,1,9.8,0Z" transform="translate(149.882 0) rotate(90)" fill="#b8bee0"/>
              </g>
              <path id="Trazado_195792" data-name="Trazado 195792" d="M692.072,68.27h27.362v92.845h12.907v25.394H719.434v29.662H692.6V186.509H629.63V161.115Zm.5,92.845V112.782l-32.946,48.333Z" transform="translate(-629.63 -68.27)" fill="#b8bee0"/>
              <path id="Trazado_195786" data-name="Trazado 195786" d="M697.072,73.27h27.362v92.845h12.908v25.393H724.434v29.662H697.6V191.509H634.63V166.115Zm.5,92.845V117.782l-32.946,48.333Z" transform="translate(-628.239 -66.88)" fill="#6677d6"/>
              <g id="Rectángulo_44444" data-name="Rectángulo 44444" transform="translate(108.399 27.489)" fill="#fff" stroke="#6677d6" stroke-width="3" opacity="0.9">
                <rect width="102" height="102" rx="51" stroke="none"/>
                <rect x="1.5" y="1.5" width="99" height="99" rx="49.5" fill="none"/>
              </g>
              <g id="diamante" transform="translate(121.432 47.014)">
                <g id="Grupo_135206" data-name="Grupo 135206" transform="translate(0 0)">
                  <path id="Trazado_196941" data-name="Trazado 196941" d="M1.5,36.533,38.959,77.811,75.073,36.533,38.286,27.257Z" transform="translate(-0.389 -11.037)" fill="#515fab"/>
                  <path id="Trazado_196942" data-name="Trazado 196942" d="M68.017,24.249H8.554L1.5,35.752l18.4,6.2H56.63l18.444-6.2Z" transform="translate(-0.389 -10.255)" fill="#b8bee0"/>
                  <path id="Trazado_196943" data-name="Trazado 196943" d="M29.868,34.271h29.71l3.51,10.281H26.358Z" transform="translate(-6.848 -12.859)" fill="#515fab"/>
                  <path id="Trazado_196944" data-name="Trazado 196944" d="M26.358,48.161l19.06,35.081L63.088,48.161Z" transform="translate(-6.848 -16.468)" fill="#b8bee0"/>
                  <path id="Trazado_196945" data-name="Trazado 196945" d="M55.6,14.227H25.886L11.031,21.645l14.855,7.418H55.6l14.855-7.418Z" transform="translate(-2.866 -7.651)" fill="#515fab"/>
                  <path id="Trazado_196946" data-name="Trazado 196946" d="M68.372,14.227H60.205L67.44,17.84a4.254,4.254,0,0,1,0,7.611l-7.235,3.613h8.166l14.855-7.418Z" transform="translate(-15.642 -7.651)" fill="#515fab"/>
                  <g id="Grupo_135205" data-name="Grupo 135205">
                    <path id="Trazado_196947" data-name="Trazado 196947" d="M75.627,32.172l-7.053-11.5a1.1,1.1,0,0,0-.637-.485L53.226,12.843a1.109,1.109,0,0,0-.5-.117H36.48a1.11,1.11,0,0,0,0,2.221H52.468L65.1,21.255,52.468,27.563H23.282L10.65,21.255l12.632-6.308h8.759a1.11,1.11,0,1,0,0-2.221H23.02a1.112,1.112,0,0,0-.5.117L7.669,20.262a1.129,1.129,0,0,0-.45.413L.163,32.177A1.116,1.116,0,0,0,.287,33.5L18.841,53.949a1.11,1.11,0,1,0,1.644-1.492L4.8,35.172l13.943,4.7L33.184,66.45l-9.712-10.7a1.11,1.11,0,1,0-1.644,1.492l15.92,17.542a1.113,1.113,0,0,0,1.658-.015L75.52,33.489a1.116,1.116,0,0,0,.107-1.317ZM67.2,22.687l5.8,9.463-8.151,2.739a1.11,1.11,0,1,0,.707,2.1l5.579-1.874L43.5,66.712,57.027,39.862l4.1-1.377a1.11,1.11,0,1,0-.707-2.1L56.934,37.55l-2.84-8.317Zm-15.268,7.1,2.752,8.06H21.062l2.752-8.06ZM8.579,22.7l13.076,6.53-2.84,8.316L2.784,32.15ZM54.438,40.065,38.533,71.642,21.377,40.065Z" transform="translate(0 -7.262)"/>
                    <path id="Trazado_196948" data-name="Trazado 196948" d="M90.489,8.721A1.11,1.11,0,0,0,91.6,7.61V6.454a1.11,1.11,0,0,0-2.221,0V7.61A1.11,1.11,0,0,0,90.489,8.721Z" transform="translate(-23.221 -5.343)"/>
                    <path id="Trazado_196949" data-name="Trazado 196949" d="M90.489,16.9a1.11,1.11,0,0,0,1.11-1.11V14.636a1.11,1.11,0,0,0-2.221,0v1.157A1.11,1.11,0,0,0,90.489,16.9Z" transform="translate(-23.221 -7.469)"/>
                    <path id="Trazado_196950" data-name="Trazado 196950" d="M93.8,12.436h1.157a1.11,1.11,0,1,0,0-2.221H93.8a1.11,1.11,0,1,0,0,2.221Z" transform="translate(-24.081 -6.609)"/>
                    <path id="Trazado_196951" data-name="Trazado 196951" d="M85.616,12.436h1.157a1.11,1.11,0,1,0,0-2.221H85.616a1.11,1.11,0,1,0,0,2.221Z" transform="translate(-21.955 -6.609)"/>
                    <path id="Trazado_196952" data-name="Trazado 196952" d="M8.96,11.231a1.11,1.11,0,0,0,1.11-1.11V8.964a1.11,1.11,0,1,0-2.221,0v1.157A1.11,1.11,0,0,0,8.96,11.231Z" transform="translate(-2.039 -5.996)"/>
                    <path id="Trazado_196953" data-name="Trazado 196953" d="M8.96,19.414a1.11,1.11,0,0,0,1.11-1.11V17.147a1.11,1.11,0,1,0-2.221,0V18.3A1.11,1.11,0,0,0,8.96,19.414Z" transform="translate(-2.039 -8.122)"/>
                    <path id="Trazado_196954" data-name="Trazado 196954" d="M12.27,14.947h1.157a1.11,1.11,0,1,0,0-2.221H12.27a1.11,1.11,0,0,0,0,2.221Z" transform="translate(-2.899 -7.262)"/>
                    <path id="Trazado_196955" data-name="Trazado 196955" d="M4.087,14.947H5.244a1.11,1.11,0,0,0,0-2.221H4.087a1.11,1.11,0,0,0,0,2.221Z" transform="translate(-0.773 -7.262)"/>
                    <path id="Trazado_196956" data-name="Trazado 196956" d="M15.514,75.427a1.11,1.11,0,0,0-1.11,1.11v1.157a1.11,1.11,0,0,0,2.221,0V76.537A1.11,1.11,0,0,0,15.514,75.427Z" transform="translate(-3.742 -23.552)"/>
                    <path id="Trazado_196957" data-name="Trazado 196957" d="M15.514,83.609a1.11,1.11,0,0,0-1.11,1.11v1.157a1.11,1.11,0,1,0,2.221,0V84.719A1.11,1.11,0,0,0,15.514,83.609Z" transform="translate(-3.742 -25.677)"/>
                    <path id="Trazado_196958" data-name="Trazado 196958" d="M19.98,80.3H18.824a1.11,1.11,0,1,0,0,2.221H19.98a1.11,1.11,0,0,0,0-2.221Z" transform="translate(-4.602 -24.818)"/>
                    <path id="Trazado_196959" data-name="Trazado 196959" d="M11.8,80.3H10.641a1.11,1.11,0,0,0,0,2.221H11.8a1.11,1.11,0,0,0,0-2.221Z" transform="translate(-2.476 -24.818)"/>
                    <path id="Trazado_196960" data-name="Trazado 196960" d="M85.616,63.935a1.11,1.11,0,0,0-1.11,1.11V66.2a1.11,1.11,0,1,0,2.221,0V65.045A1.11,1.11,0,0,0,85.616,63.935Z" transform="translate(-21.955 -20.566)"/>
                    <path id="Trazado_196961" data-name="Trazado 196961" d="M85.616,72.117a1.11,1.11,0,0,0-1.11,1.11v1.157a1.11,1.11,0,1,0,2.221,0V73.227A1.11,1.11,0,0,0,85.616,72.117Z" transform="translate(-21.955 -22.692)"/>
                    <path id="Trazado_196962" data-name="Trazado 196962" d="M90.083,68.807H88.927a1.11,1.11,0,0,0,0,2.221h1.157a1.11,1.11,0,0,0,0-2.221Z" transform="translate(-22.815 -21.832)"/>
                    <path id="Trazado_196963" data-name="Trazado 196963" d="M81.9,68.807H80.744a1.11,1.11,0,0,0,0,2.221H81.9a1.11,1.11,0,0,0,0-2.221Z" transform="translate(-20.689 -21.832)"/>
                  </g>
                </g>
              </g>
            </g>
          </g>
          <g id="Grupo_135310" data-name="Grupo 135310" transform="translate(569.032 230.122)">
            <path id="Trazado_195796" data-name="Trazado 195796" d="M996.85,110.91,981.68,132.7l15.17,21.79,15.17-21.79Z" transform="translate(-775.197 -60.711)" fill="#e0cbc8"/>
            <g id="Grupo_135303" data-name="Grupo 135303" transform="translate(0 0)">
              <g id="Grupo_135309" data-name="Grupo 135309" transform="translate(31.056 2.185)">
                <path id="Trazado_195793" data-name="Trazado 195793" d="M876.513,214.289l9.265-18.275V142.5L844.41,129.252,857.318,73.34h168.042a9.585,9.585,0,0,1,9.6,9.585V204.691a9.6,9.6,0,0,1-9.6,9.6Z" transform="translate(-844.41 -73.34)" fill="#e0cbc8"/>
              </g>
              <path id="Trazado_195787" data-name="Trazado 195787" d="M848.941,71.63H916.5V97.023H869.427l-5.879,26.2a40.411,40.411,0,0,1,4.805-1.022,30.955,30.955,0,0,1,4.511-.345q19.617,0,32.6,13.38T918.451,169.5q0,21.087-14.365,35.553a47.413,47.413,0,0,1-34.953,14.454q-18.441,0-31.668-10.492T820.11,180.284h28.831a24.7,24.7,0,0,0,8.767,10.224,21.791,21.791,0,0,0,12.013,3.476,20.741,20.741,0,0,0,15.489-6.569q6.39-6.556,6.39-16.857a23.271,23.271,0,0,0-5.93-16.422,18.863,18.863,0,0,0-14.365-6.39,19.054,19.054,0,0,0-8.869,2.262,32.025,32.025,0,0,0-8.588,6.76l-22.378-5.035Z" transform="translate(-820.11 -71.63)" fill="#e0cbc8"/>
              <path id="Trazado_195788" data-name="Trazado 195788" d="M854.941,75.63H922.5v25.394H875.427l-5.879,26.2a40.41,40.41,0,0,1,4.805-1.022,30.956,30.956,0,0,1,4.511-.345q19.617,0,32.6,13.381T924.451,173.5q0,21.087-14.364,35.553a47.413,47.413,0,0,1-34.953,14.454q-18.441,0-31.668-10.492T826.11,184.284h28.831a24.7,24.7,0,0,0,8.767,10.224,21.79,21.79,0,0,0,12.013,3.476,20.742,20.742,0,0,0,15.489-6.569q6.39-6.556,6.39-16.857a23.273,23.273,0,0,0-5.93-16.422,18.863,18.863,0,0,0-14.365-6.39,19.054,19.054,0,0,0-8.869,2.262,32.03,32.03,0,0,0-8.588,6.761l-22.377-5.035Z" transform="translate(-818.442 -70.518)" fill="#9e3421"/>
              <g id="Rectángulo_44443" data-name="Rectángulo 44443" transform="translate(103.968 23.194)" fill="#fff" stroke="#9e3421" stroke-width="3" opacity="0.9">
                <rect width="102" height="102" rx="51" stroke="none"/>
                <rect x="1.5" y="1.5" width="99" height="99" rx="49.5" fill="none"/>
              </g>
              <g id="me-gusta_1_" data-name="me-gusta (1)" transform="translate(120.264 44.03)">
                <g id="Grupo_135209" data-name="Grupo 135209" transform="translate(0 0)">
                  <g id="Grupo_135207" data-name="Grupo 135207" transform="translate(1.014 1.014)">
                    <path id="Trazado_196964" data-name="Trazado 196964" d="M60.05,5.51H10.174A8.674,8.674,0,0,0,1.5,14.184V46.712c0,4.79,3.884,7.66,8.674,7.66l10.579,1.014a3.252,3.252,0,0,1,2.3.953l10.2,10.2a2.625,2.625,0,0,0,3.712,0l10.2-10.2a3.253,3.253,0,0,1,2.3-.953H60.049a8.674,8.674,0,0,0,8.674-8.674V14.184A8.674,8.674,0,0,0,60.05,5.51Z" transform="translate(-1.5 -5.51)" fill="#c6412a"/>
                    <path id="Trazado_196965" data-name="Trazado 196965" d="M50.989,23.163a9.861,9.861,0,0,0-7.367,2.607,1.068,1.068,0,0,1-1.452,0A9.861,9.861,0,0,0,34.8,23.163a9.96,9.96,0,0,0-9.189,8.707C24.5,41.8,37.793,50.491,41.783,52.863a2.172,2.172,0,0,0,2.226,0C48,50.491,61.293,41.8,60.179,31.869a9.961,9.961,0,0,0-9.189-8.707Z" transform="translate(-9.285 -11.217)" fill="#fff"/>
                    <path id="Trazado_196966" data-name="Trazado 196966" d="M45.814,51.181c-1.838-1.035-17.917-10.4-16.776-20.573h0a8.673,8.673,0,0,1,3.2-5.769l1.919-1.562a9.958,9.958,0,0,0-8.544,8.635C24.5,41.844,37.793,50.536,41.783,52.907a2.172,2.172,0,0,0,2.226,0c.588-.35,1.382-.84,2.3-1.448Z" transform="translate(-9.285 -11.262)" fill="#daaba3"/>
                    <path id="Trazado_196967" data-name="Trazado 196967" d="M25.354,54.952a6.549,6.549,0,0,0-4.6-1.905H10.174a5.428,5.428,0,0,1-5.421-5.421V8.333A8.653,8.653,0,0,0,1.5,15.1V47.625A8.674,8.674,0,0,0,10.174,56.3H20.753a3.253,3.253,0,0,1,2.3.953l10.2,10.2a2.625,2.625,0,0,0,3.712,0l.441-.442Z" transform="translate(-1.5 -6.424)" fill="#c6412a"/>
                  </g>
                  <g id="Grupo_135208" data-name="Grupo 135208">
                    <path id="Trazado_196968" data-name="Trazado 196968" d="M59.564,4.01H9.688A9.7,9.7,0,0,0,0,13.7V46.226a9.7,9.7,0,0,0,9.688,9.688h2.168a1.014,1.014,0,1,0,0-2.029H9.688a7.668,7.668,0,0,1-7.66-7.66V13.7a7.668,7.668,0,0,1,7.66-7.66H59.564a7.668,7.668,0,0,1,7.66,7.66V46.226a7.668,7.668,0,0,1-7.66,7.66H48.985a4.239,4.239,0,0,0-3.017,1.25l-10.2,10.2a1.61,1.61,0,0,1-2.277,0l-10.2-10.2a4.239,4.239,0,0,0-3.017-1.25H16.194a1.014,1.014,0,1,0,0,2.029h4.074a2.224,2.224,0,0,1,1.583.656l10.2,10.2a3.639,3.639,0,0,0,5.147,0l10.2-10.2a2.224,2.224,0,0,1,1.583-.656H59.564a9.7,9.7,0,0,0,9.688-9.688V13.7A9.7,9.7,0,0,0,59.564,4.01Z" transform="translate(0 -4.01)"/>
                    <path id="Trazado_196969" data-name="Trazado 196969" d="M34.976,23.67A8.9,8.9,0,0,1,41.649,26.7a1.015,1.015,0,0,0,1.523,0A8.884,8.884,0,0,1,54.63,25.064a1.014,1.014,0,1,0,1.092-1.71,10.909,10.909,0,0,0-13.312,1.219,10.917,10.917,0,0,0-18.363,7.995c0,4.935,3.038,10.04,9.028,15.175a55.189,55.189,0,0,0,8.855,6.165,1.015,1.015,0,0,0,.958,0,55.184,55.184,0,0,0,8.855-6.165c5.991-5.135,9.028-10.241,9.028-15.175a10.937,10.937,0,0,0-1.387-5.332,1.014,1.014,0,1,0-1.77.991,8.9,8.9,0,0,1,1.129,4.341c0,9.408-13.587,17.7-16.334,19.282-2.746-1.58-16.334-9.874-16.334-19.282a8.909,8.909,0,0,1,8.9-8.9Z" transform="translate(-7.785 -9.718)"/>
                  </g>
                </g>
              </g>
            </g>
          </g>
          <g id="ILLISTRACIONES_CF5_INTERAC-12-12" data-name="ILLISTRACIONES CF5 INTERAC-12-12" transform="translate(0 0)">
            <g id="Capa_1" data-name="Capa 1" transform="translate(0 0)">
              <path id="Trazado_194496" data-name="Trazado 194496" d="M105.5,53.8A32.112,32.112,0,1,0,58.1,82.045v12.8H88.474V82.163A32.033,32.033,0,0,0,105.5,53.8Z" transform="translate(91.449 -21.689)" fill="#efc22e"/>
              <path id="Trazado_194497" data-name="Trazado 194497" d="M47.367,31.52l7.7,39.893a1.066,1.066,0,0,0,2.054,0C59.571,58.1,62.06,44.831,64.548,31.52c.237-1.343-1.817-1.9-2.054-.553-2.488,13.311-4.977,26.582-7.426,39.893h2.054l-7.9-39.893c-.276-1.343-2.33-.79-2.054.553Z" transform="translate(108.778 3.399)" fill="#d38f2e"/>
              <path id="Trazado_194498" data-name="Trazado 194498" d="M45.053,34.1c3.12.79.908,5.372,4.779,6.32,3.16.79,4.384-5.293,4.9-6.083,0,0,2.133,3.95,2.409,4.463a2.962,2.962,0,0,0,2.291,1.619c3.12.79,4.345-5.293,4.858-6.083,0,0,2.133,3.95,2.449,4.463a2.883,2.883,0,0,0,2.251,1.619c3.12.79,4.345-5.293,4.9-6.083-.276.434,2.409,6.122,4.977,6.122,4.384,0,2.172-5.648,5.056-6.359,1.264-.316.711-1.58-.553-1.264-2.014.513-5.174,5.688-4.7,6.083-1.5-1.224-.829-6.122-4.621-6.122s-3.713,4.858-4.582,6.122c.276-.395-2.409-6.122-4.977-6.122-3.4,0-3.713,4.858-4.621,6.122,0,0-2.093-3.95-2.409-4.463A3,3,0,0,0,55.2,32.833c-2.883-.711-3.95,4.187-4.187,4.9-1.343,3.239-2.646-2.33-3.12-3.278a3.081,3.081,0,0,0-2.251-1.619C44.342,32.517,43.789,33.78,45.053,34.1Z" transform="translate(100.506 10.973)" fill="#d38f2e"/>
              <rect id="Rectángulo_44213" data-name="Rectángulo 44213" width="30.374" height="11.454" transform="translate(149.667 73.153)" fill="#140d0d"/>
              <path id="Trazado_194499" data-name="Trazado 194499" d="M80.626,41.592a1.382,1.382,0,0,1-1.382,1.382H46.262a1.382,1.382,0,0,1-1.382-1.382h0a1.382,1.382,0,0,1,1.382-1.382H79.243A1.382,1.382,0,0,1,80.626,41.592Z" transform="translate(102.101 32.943)" fill="#f2ac66"/>
              <path id="Trazado_194500" data-name="Trazado 194500" d="M80.626,42.883a1.382,1.382,0,0,1-1.382,1.382H46.262a1.382,1.382,0,0,1-1.382-1.382h0A1.382,1.382,0,0,1,46.262,41.5H79.243a1.343,1.343,0,0,1,1.382,1.382Z" transform="translate(102.101 36.747)" fill="#f2ac66"/>
              <path id="Trazado_194501" data-name="Trazado 194501" d="M60.448,32.367,74.825,24.9c1.975-1.027.237-3.95-1.738-2.962L58.631,29.405c-1.935,1.027-.2,3.95,1.738,2.962Z" transform="translate(140.172 -21.543)" fill="#efc22e"/>
              <path id="Trazado_194502" data-name="Trazado 194502" d="M60.408,29.867,76.6,28.959c2.212,0,2.212-3.555,0-3.436l-16.194.908C58.235,26.431,58.2,29.985,60.408,29.867Z" transform="translate(143.055 -10.392)" fill="#efc22e"/>
              <path id="Trazado_194503" data-name="Trazado 194503" d="M51.737,32.367,37.36,24.9c-1.975-1.027-.237-3.95,1.738-2.962l14.377,7.465C55.45,30.432,53.712,33.355,51.737,32.367Z" transform="translate(77.351 -21.543)" fill="#efc22e"/>
              <path id="Trazado_194504" data-name="Trazado 194504" d="M52.952,29.867l-16.194-.908c-2.172,0-2.212-3.555,0-3.436l16.194.908C55.164,26.431,55.164,29.985,52.952,29.867Z" transform="translate(73.292 -10.392)" fill="#efc22e"/>
              <ellipse id="Elipse_17732" data-name="Elipse 17732" cx="71.729" cy="5.194" rx="71.729" ry="5.194" transform="translate(161.507 377.005)" fill="#afafaf"/>
              <ellipse id="Elipse_17733" data-name="Elipse 17733" cx="71.729" cy="5.194" rx="71.729" ry="5.194" transform="translate(0 378.309)" fill="#afafaf"/>
              <path id="Trazado_194505" data-name="Trazado 194505" d="M83.032,77.966s-37.918,39.893-44.672,33.3L50.683,88.038c0,.632,26.622-20.184,26.622-20.184s5.451-13.666,7.544-13.666-2.291,7.9-1.54,8.808S97.015,47.474,98.516,49.488c.79,1.066-8.137,9.835-7.386,11.217.395.75,10.388-5.53,11.415-5.214,2.883.829-11.1,7.465-10.269,7.9s11.178-6,11.336-3.95c0,1.343-9.519,6-9.361,6.912s5.49-2.607,7.228-1.935-7.189,5.1-7.9,5.846A35.943,35.943,0,0,1,83.032,77.966Z" transform="translate(82.868 59.805)" fill="#ffb264"/>
              <path id="Trazado_194506" data-name="Trazado 194506" d="M43.531,49.21s9.2,3.12,11.415,10.112S67.032,87.365,67.032,87.365L53.722,111.933S15.408,62.995,43.531,49.21Z" transform="translate(67.704 59.491)" fill="#ffb264"/>
              <path id="Trazado_194507" data-name="Trazado 194507" d="M45.62,48.727c9.954-1.5,15.444,10.072,24.331,31.6L47.081,98.376S14.693,53.506,45.62,48.727Z" transform="translate(64.825 57.683)" fill="#3e2471"/>
              <path id="Trazado_194508" data-name="Trazado 194508" d="M34.28,49.05,49.013,90.957,41.232,97.04Z" transform="translate(70.833 59.019)" fill="#3e2471"/>
              <path id="Trazado_194509" data-name="Trazado 194509" d="M61.268,43.367A22.79,22.79,0,0,0,36.5,37.2h0a13.9,13.9,0,0,0-9.519,13.548,24.41,24.41,0,0,0,2.844,10.941,20.381,20.381,0,0,0,19.749,9.914,4.977,4.977,0,0,1,3.95,1.3l9.322-15.8a17.1,17.1,0,0,0-1.58-13.745Z" transform="translate(49.296 19.99)" fill="#140d0d"/>
              <path id="Trazado_194510" data-name="Trazado 194510" d="M23.22,48.277a8.848,8.848,0,1,1,8.808,8.808,8.848,8.848,0,0,1-8.808-8.808Z" transform="translate(38.208 30.524)" fill="#140d0d"/>
              <path id="Trazado_194511" data-name="Trazado 194511" d="M37.935,53.431c0,.316-1.224-2.093-1.54-2.212-1.264-.474-4.187-1.817-5.806,1.422a5.451,5.451,0,0,0,2.844,7.189,8.887,8.887,0,0,1,2.646,2.014c2.409,4.7-.79,14.733-1.145,18.564-.75,8.453-7.623-.829-7.623-.829s22.909,18.011,26.306,7.9c-2.765-4.819-4.5-20.065-2.054-19.157,3.2,1.224,9.875-2.8,10.7-17.3A28.6,28.6,0,0,0,53.734,37.79C53.734,45.295,49.271,50.469,37.935,53.431Z" transform="translate(50.273 25.804)" fill="#ffb264"/>
              <path id="Trazado_194512" data-name="Trazado 194512" d="M38.09,43.29a6.083,6.083,0,0,1-3.95,0S35.4,45.9,36.51,45.5,38.09,43.29,38.09,43.29Z" transform="translate(70.42 42.028)" fill="#fff"/>
              <path id="Trazado_194513" data-name="Trazado 194513" d="M28.42,42.636s3.594-3.555,3.95,3.12" transform="translate(53.547 37.31)" fill="#e68522"/>
              <path id="Trazado_194514" data-name="Trazado 194514" d="M35.743,42.214a3.239,3.239,0,1,1-3.95,2.054A3.239,3.239,0,0,1,35.743,42.214Z" transform="translate(62.971 38.483)" fill="#e68522"/>
              <path id="Trazado_194515" data-name="Trazado 194515" d="M37.011,48.122a3.239,3.239,0,0,1-1.461-3.95A3.318,3.318,0,0,1,37.92,42,15.247,15.247,0,0,1,37.011,48.122Z" transform="translate(73.987 38.223)" fill="#e68522"/>
              <path id="Trazado_194516" data-name="Trazado 194516" d="M35.024,41.75l-.474,3.594h1.9a.474.474,0,0,0,.355-.711Z" transform="translate(71.629 37.485)" fill="#e68522"/>
              <path id="Trazado_194517" data-name="Trazado 194517" d="M33.412,42.188c-.592.434.316-1.461,1.145-1.659a1.461,1.461,0,0,1,1.856.908,4.582,4.582,0,0,0-3,.75Z" transform="translate(67.712 33.65)" fill="#140d0d"/>
              <path id="Trazado_194518" data-name="Trazado 194518" d="M38,42.188c.592.434-.316-1.461-1.145-1.7a1.382,1.382,0,0,0-1.817.869A4.582,4.582,0,0,1,38,42.188Z" transform="translate(73.075 33.492)" fill="#140d0d"/>
              <path id="Trazado_194519" data-name="Trazado 194519" d="M33.733,42.607c0,.671.276,1.145.592,1.145s.553-.553.513-1.185-.276-1.145-.592-1.106S33.694,41.975,33.733,42.607Z" transform="translate(69.207 36.628)" fill="#140d0d"/>
              <path id="Trazado_194520" data-name="Trazado 194520" d="M35,42.446c0,.632.316,1.106.592,1.106s.513-.513.474-1.145-.276-1.066-.553-1.066S35,41.853,35,42.446Z" transform="translate(72.957 36.276)" fill="#140d0d"/>
              <path id="Trazado_194521" data-name="Trazado 194521" d="M39.252,47.682s-4.5-1.58-7.347-2.8S36.092,55.423,39.252,47.682Z" transform="translate(61.872 46.444)" fill="#e68522"/>
              <path id="Trazado_194522" data-name="Trazado 194522" d="M31.7,112.355l2.251,15.8s3.594,10.546,6.912,6.438a32.9,32.9,0,0,1,6.636-6.241L48.684,112Z" transform="translate(63.222 244.709)" fill="#ffb264"/>
              <path id="Trazado_194523" data-name="Trazado 194523" d="M29.056,111.82l-4.937,15.8s-3.95,3.278-5.135,3.2c-2.488,0-3.95-4.424-3.95-4.424L14.6,111.78Z" transform="translate(12.781 244.06)" fill="#ffb264"/>
              <path id="Trazado_194524" data-name="Trazado 194524" d="M48.267,118.147,61.578,128.93c.671.513,0,1.382-.79,1.382H41.039a1.106,1.106,0,0,1-1.066-.553l-1.5-3c-.395-.908-1.264-.948-1.185,0l-.711,2.923c0,.474-4.661.355-4.7,0a80.141,80.141,0,0,1,.75-13.508.948.948,0,0,1,.869-.671h0a1.224,1.224,0,0,1,1.106.316c1.3,1.264,5.569,5.135,7.9,4.345a15.484,15.484,0,0,0,3.95-2.014,1.5,1.5,0,0,1,1.817,0Z" transform="translate(63.64 254.955)" fill="#c6412a"/>
              <path id="Trazado_194525" data-name="Trazado 194525" d="M20.632,115.431,13.088,128.11a2.449,2.449,0,0,0,1.066,3.555c2.37,1.422,4.305,4.226,5.806,4.266a29.071,29.071,0,0,0,9.282-3.95,3.476,3.476,0,0,0,2.449-3.436l-1.619-12.363s-.276-.237-.434,0L25.293,119.5c-.948.829-2.054,0-2.686-.987a29.217,29.217,0,0,1-1.54-3.12.316.316,0,0,0-.434.04Z" transform="translate(7.183 254.51)" fill="#c6412a"/>
              <path id="Trazado_194526" data-name="Trazado 194526" d="M61.331,62.123c-6.083,10.783-14.1,22.316-17.616,36.022-3.95,15.8-27.649,134.767-29.505,163.68a60.507,60.507,0,0,0,15.8.276c10.072-28.873,40.8-118.494,45.107-136.545a2.37,2.37,0,0,1,4.661.671C77.328,147,83.292,207.436,83.292,264.471c2.607,1.3,14.022.355,17.063,0,3.318-35.548,21.882-155.82-4.582-199.5a195.682,195.682,0,0,0-34.442-2.844Z" transform="translate(11.63 97.57)" fill="#daaba3"/>
              <g id="Grupo_134808" data-name="Grupo 134808" transform="translate(25.84 159.689)" clip-path="url(#clip-path)">
                <path id="Trazado_194527" data-name="Trazado 194527" d="M26.268,62.45A38.471,38.471,0,0,0,34.4,81.883,61.7,61.7,0,0,0,47.913,97.011c10.112,7.9,24.686,10.9,35.983,3.673,1.619-1.027,0-3.594-1.461-2.567C71.77,104.95,58.1,101.553,48.821,93.969A59.839,59.839,0,0,1,36.972,80.382a36.141,36.141,0,0,1-7.9-17.932,1.5,1.5,0,0,0-2.962,0Z" transform="translate(20.893 -64.856)" fill="#fff"/>
                <path id="Trazado_194528" data-name="Trazado 194528" d="M36.673,69.88c6.794,15.4,14.219,32.428,10.348,49.649-3.4,14.97-15.8,25.042-29.663,30.1-1.777.632-.987,3.515.79,2.844,14.377-5.214,27.372-15.444,31.6-30.769,4.7-18.446-3.2-36.733-10.506-53.125-.79-1.738-3.357-.237-2.567,1.5Z" transform="translate(-7.879 -45.348)" fill="#fff"/>
                <path id="Trazado_194529" data-name="Trazado 194529" d="M47.425,76.613c-14.417,10.743-16,30.493-9.243,46.292a67.423,67.423,0,0,0,7.584,12.955c2.093,2.8,4.74,7.347,7.9,8.848,5.767,2.686,9.914-6,15.8-3.95,1.817.671,2.567-2.212.79-2.883a8.532,8.532,0,0,0-6.675.355A50,50,0,0,1,56.9,141.9c-3.2.79-6.083-4.424-7.9-6.6a73.31,73.31,0,0,1-7.11-11.178c-7.268-14.535-7.426-34.64,6.833-45.146,1.5-1.106,0-3.673-1.5-2.528Z" transform="translate(45.158 -20.68)" fill="#fff"/>
                <path id="Trazado_194530" data-name="Trazado 194530" d="M16.671,95.247a70.5,70.5,0,0,1,25,31.045c.75,1.738,3.594.987,2.883-.79A74.572,74.572,0,0,0,18.172,92.68c-1.58-1.066-3.081,1.5-1.5,2.567Z" transform="translate(-8.93 27.279)" fill="#fff"/>
                <path id="Trazado_194531" data-name="Trazado 194531" d="M14.222,98.511a99.338,99.338,0,0,1,27.649,66.673,1.5,1.5,0,0,0,2.962,0,102.7,102.7,0,0,0-28.4-68.845c-1.343-1.382-3.4.711-2.093,2.093Z" transform="translate(-15.052 37.485)" fill="#fff"/>
                <path id="Trazado_194532" data-name="Trazado 194532" d="M69.28,94.72a87.33,87.33,0,0,0-38.629,81.84c.237,1.856,3.2,1.9,2.962,0A84.486,84.486,0,0,1,70.781,97.248C72.4,96.221,70.781,93.653,69.28,94.72Z" transform="translate(32.901 33.297)" fill="#fff"/>
                <path id="Trazado_194533" data-name="Trazado 194533" d="M39.731,139.835a26.267,26.267,0,0,1-2.607-10.428,13.113,13.113,0,0,1,4.266-8.729,65.094,65.094,0,0,1,17.34-11.849c1.738-.829.237-3.4-1.5-2.567a82.953,82.953,0,0,0-10.506,6.28,44.553,44.553,0,0,0-8.492,7.149,15.325,15.325,0,0,0-3.95,9.085,26.858,26.858,0,0,0,2.725,11.849c.711,1.738,3.555.988,2.844-.79Z" transform="translate(44.993 67.612)" fill="#fff"/>
              </g>
              <path id="Trazado_194535" data-name="Trazado 194535" d="M65.592,51.939c1.185.948,12.363,27.372,11.849,35.548a109.171,109.171,0,0,0,3.95,24.528s-13.666,5.135-49.768-.553C22.7,92.266,17.641,69.594,29.49,57.627c0,0,16.352-10.269,19.394-10.506,0,0,10.822,15.8,15.286,15.6C66.342,62.88,65.829,54.941,65.592,51.939Z" transform="translate(36.203 53.326)" fill="#3e2471"/>
              <path id="Trazado_194536" data-name="Trazado 194536" d="M32.557,52.54l4.858,39.933,20.7,5.609-31.282.237Z" transform="translate(48.857 69.314)" fill="#3e2471"/>
              <path id="Trazado_194537" data-name="Trazado 194537" d="M28.79,52.159l.237-6.4,22.948,5.609-1.5,7.386S58.1,76.371,48.421,73.567,28.79,52.159,28.79,52.159Z" transform="translate(54.638 49.314)" fill="#3e2471"/>
              <path id="Trazado_194538" data-name="Trazado 194538" d="M30.257,58.045C32.509,69.5,37.13,80.361,40.329,91.579c1.106,3.95,2.212,7.9,3.278,11.849-4.187-.434-9.006-1.066-14.535-1.935A68.845,68.845,0,0,1,27.65,50.54Z" transform="translate(38.873 63.414)" fill="#39194b"/>
              <path id="Trazado_194539" data-name="Trazado 194539" d="M78.163,91.627c-4.621.869-49.531,9.282-52.137.829L22.51,64.808,44.194,58.33l2.567,19.749c-.237.553,38,4.463,38,4.463" transform="translate(36.114 86.393)" fill="#ffb264"/>
              <path id="Trazado_194540" data-name="Trazado 194540" d="M70.411,81.942c1.54-1.5-10.072-5.1-10.309-6s13.982,5.293,12.718,2.567c-.474-.987-11.849-4.424-11.454-5.174.592-1.5,13.034-.513,13.311-1.817.553-2.449-20.42-1.382-20.184-2.607s9.045-3.041,7.663-4.621-15.246,3.278-15.246,3.278a62.366,62.366,0,0,0-7.9-2.014c-.987,3.95-1.7,5.332-2.37,9.44a16.589,16.589,0,0,0,6.636,3.476,37.365,37.365,0,0,0,12.679,3.16c.948,0,10.112,3.95,9.48,2.014s-6.794-3.476-6.2-4.187S69.66,82.89,70.411,81.942Z" transform="translate(77.794 103.03)" fill="#ffb264"/>
              <path id="Trazado_194541" data-name="Trazado 194541" d="M41.9,49.313S49.8,55,48.22,62.19a146.739,146.739,0,0,0-.553,24.489L24.639,92.6S10.657,47.655,41.9,49.313Z" transform="translate(33.194 59.664)" fill="#3e2471"/>
              <path id="Trazado_194542" data-name="Trazado 194542" d="M87.67,112.4l-1.738,21.21L55.4,140.132l15.76-15.681,3.792-13.311Z" transform="translate(133.133 242.173)" fill="#ffb264"/>
              <path id="Trazado_194543" data-name="Trazado 194543" d="M75.525,114.03,53.92,133.068,94.8,133.5l-2.765-19.236-8.058,7.821Z" transform="translate(128.767 250.697)" fill="#12263f"/>
              <line id="Línea_494" data-name="Línea 494" x2="3.792" y2="2.409" transform="translate(200.224 367.176)" fill="#7040bf"/>
              <line id="Línea_495" data-name="Línea 495" x2="3.752" y2="2.409" transform="translate(196.867 368.756)" fill="#7040bf"/>
              <path id="Trazado_194544" data-name="Trazado 194544" d="M74.934,113.021l-2.8,18.011,31.717,7.07-16.984-16,1.066-9.8Z" transform="translate(182.483 245.624)" fill="#ffb264"/>
              <path id="Trazado_194545" data-name="Trazado 194545" d="M89.5,114.52l18.841,18.011-36.615-.395,2.8-16.866,5.648,7.7Z" transform="translate(181.303 252.143)" fill="#12263f"/>
              <line id="Línea_496" data-name="Línea 496" x1="3.871" y2="2.212" transform="translate(270.57 368.954)" fill="#7040bf"/>
              <line id="Línea_497" data-name="Línea 497" x1="3.871" y2="2.212" transform="translate(273.849 370.692)" fill="#7040bf"/>
              <path id="Trazado_194546" data-name="Trazado 194546" d="M124.585,65.07l-36.3,3.673s-5.174,3.95-10.349,23.383c-6.28,23.9-15.8,69.833-19.078,159.454l23.462.711,19.749-120.548a1.74,1.74,0,0,1,3.436.553l6,121.5,23.146-.869s7.228-133.622,1.145-157A128.291,128.291,0,0,0,124.585,65.07Z" transform="translate(143.339 106.275)" fill="#7040bf"/>
              <path id="Trazado_194547" data-name="Trazado 194547" d="M124.585,65.07l-36.3,3.673s-5.174,3.95-10.349,23.383c-6.28,23.9-15.8,69.833-19.078,159.454l23.462.711,19.749-120.548a1.74,1.74,0,0,1,3.436.553l6,121.5,23.146-.869s7.228-133.622,1.145-157A128.291,128.291,0,0,0,124.585,65.07Z" transform="translate(143.339 106.275)" fill="#7040bf"/>
              <path id="Trazado_194554" data-name="Trazado 194554" d="M85.88,118.869l1.185-7.781L58.823,110.1l-.513,9.6Z" transform="translate(141.717 239.105)" fill="#cdc9d7"/>
              <path id="Trazado_194555" data-name="Trazado 194555" d="M72.608,120.263a53.441,53.441,0,0,0-.948-9.085l26.859-.948v9.954Z" transform="translate(181.097 239.488)" fill="#cdc9d7"/>
              <path id="Trazado_194556" data-name="Trazado 194556" d="M56.11,62.445s17.261,50.874,25.832,48.385V85.63c-.316.513-14.693-28-14.693-28a39.971,39.971,0,0,0-6.241-8.255h0a2.409,2.409,0,0,0-2.725,1.9L56.11,61.734" transform="translate(135.227 59.883)" fill="#ffa47e"/>
              <line id="Línea_498" data-name="Línea 498" y1="21.842" x2="4.424" transform="translate(196.748 98.945)" fill="none" stroke="#4e2e8e" stroke-linecap="round" stroke-miterlimit="10" stroke-width="3.05"/>
              <path id="Trazado_194557" data-name="Trazado 194557" d="M64.365,56.951s0-7.307-1.106-7.426-5.806.237-6.28,1.856,3.634,1.58,3.634,1.58-1.935,3.4-.276,4.5S64.365,56.951,64.365,56.951Z" transform="translate(137.676 60.36)" fill="#ffa47e"/>
              <path id="Trazado_194558" data-name="Trazado 194558" d="M113.939,47.39A151.751,151.751,0,0,0,94.19,61.175C89.213,66.152,83.8,91.351,83.8,91.351L71.676,64.769,55.64,75.671s18.8,42.026,26.938,42.3S131.674,71.6,113.939,47.39Z" transform="translate(133.841 54.122)" fill="#6677d6"/>
              <path id="Trazado_194559" data-name="Trazado 194559" d="M65.388,50.564a22.277,22.277,0,0,0,8.571,19.749,16.589,16.589,0,0,0,19.749-1.5c9.006-7.623,6.28-25.2-3.713-29.268-1.343-.553-5.174-.948-5.767-2.014-7.9-1.343-16.273,2.251-18.09,8.176l-.474,1.382a6.872,6.872,0,0,0-.434,3.081Z" transform="translate(162.05 24.208)" fill="#140d0d"/>
              <path id="Trazado_194560" data-name="Trazado 194560" d="M65.294,50.624c-.276,7.544,9.954,39.5,16.392,44.119s44.238,3.239,49.807-1.5c3.673-3.12-.632-10.269-2.37-13.271A121.143,121.143,0,0,0,113.8,60.222a147.13,147.13,0,0,0-17.34-16.668,38.471,38.471,0,0,0-6.438-4.226,19.947,19.947,0,0,0-14.614-1.264,12.916,12.916,0,0,0-9.2,7.9,5.612,5.612,0,0,1,0,.632,14.022,14.022,0,0,0-.908,4.029Z" transform="translate(162.302 24.148)" fill="#140d0d"/>
              <path id="Trazado_194561" data-name="Trazado 194561" d="M88.639,51.879a.513.513,0,0,0,.711.355c1.224-.434,3.95-1.659,5.569,1.461a5.214,5.214,0,0,1-2.844,6.833c-.513.237-1.738.79-1.975,1.3a22,22,0,0,0,0,8.216,10.191,10.191,0,0,0,7.663,9.519S79.594,95.011,76.474,85.334c1.224-2.093.474-17.656-1.856-16.787-3.041,1.106-9.124-.276-9.717-14.18C64.309,41.491,73.2,39.358,75.487,39S83.979,36.91,88.639,51.879Z" transform="translate(161.076 28.66)" fill="#ffa47e"/>
              <path id="Trazado_194562" data-name="Trazado 194562" d="M65.73,44.39a6.636,6.636,0,0,0,3.95,0s-1.382,2.8-2.567,2.37S65.73,44.39,65.73,44.39Z" transform="translate(163.604 45.273)" fill="#fff"/>
              <path id="Trazado_194563" data-name="Trazado 194563" d="M65.93,40.917A231.028,231.028,0,0,0,85.956,53.279S87.456,31.121,65.93,40.917Z" transform="translate(164.194 27.654)" fill="#140d0d"/>
              <path id="Trazado_194564" data-name="Trazado 194564" d="M75.15,43.6s-3.4-3.476-3.95,2.962" transform="translate(179.74 40.178)" fill="#e07b51"/>
              <path id="Trazado_194565" data-name="Trazado 194565" d="M69.741,43.11a3.12,3.12,0,1,0,3.95,2.014A3.16,3.16,0,0,0,69.741,43.11Z" transform="translate(169.112 41.062)" fill="#e07b51"/>
              <path id="Trazado_194566" data-name="Trazado 194566" d="M65.8,48.647a3.12,3.12,0,0,0-.869-5.727,14.693,14.693,0,0,0,.869,5.727Z" transform="translate(161.202 40.937)" fill="#e07b51"/>
              <path id="Trazado_194567" data-name="Trazado 194567" d="M67.652,42.79l.395,3.436H66.23a.435.435,0,0,1-.316-.671Z" transform="translate(163.934 40.553)" fill="#e07b51"/>
              <path id="Trazado_194568" data-name="Trazado 194568" d="M69.723,43.115c.553.395-.316-1.382-1.106-1.619a1.422,1.422,0,0,0-1.777.829A4.424,4.424,0,0,1,69.723,43.115Z" transform="translate(166.879 36.515)" fill="#140d0d"/>
              <path id="Trazado_194569" data-name="Trazado 194569" d="M65.28,43.035c-.553.395.316-1.422,1.106-1.619a1.461,1.461,0,0,1,1.777.869A4.266,4.266,0,0,0,65.28,43.035Z" transform="translate(161.763 36.319)" fill="#140d0d"/>
              <path id="Trazado_194570" data-name="Trazado 194570" d="M67.9,43.556c0,.592-.237,1.106-.553,1.106s-.513-.513-.513-1.106.237-1.106.513-1.106S67.9,42.924,67.9,43.556Z" transform="translate(166.849 39.55)" fill="#140d0d"/>
              <path id="Trazado_194571" data-name="Trazado 194571" d="M66.617,43.437c0,.592-.237,1.066-.513,1.066s-.513-.474-.513-1.066,0-1.027.513-1.027S66.617,42.884,66.617,43.437Z" transform="translate(163.191 39.432)" fill="#140d0d"/>
              <path id="Trazado_194572" data-name="Trazado 194572" d="M67.52,48.3s4.305-1.461,7.07-2.607S70.4,55.725,67.52,48.3Z" transform="translate(168.884 48.868)" fill="#e07b51"/>
              <path id="Trazado_194573" data-name="Trazado 194573" d="M71.729,49.175s3.041-.829,2.528-.2a11.178,11.178,0,0,1-2.646,2.014Z" transform="translate(180.949 58.104)" fill="#c20600"/>
              <path id="Trazado_194574" data-name="Trazado 194574" d="M77.347,51.329c.316.79-13.311,26.424-13.034,34.442S70,119.819,69.566,121.043c0,0,12.4,6.359,47.082,1.3,3.357-30.177,4.305-55.771-6.952-65.29,0,0-12.165-8.729-15.088-8.966C94.687,48.09,81.732,64.008,77.347,51.329Z" transform="translate(159.412 56.187)" fill="#6677d6"/>
              <path id="Trazado_194575" data-name="Trazado 194575" d="M93.912,53.778A77.812,77.812,0,0,0,80.76,48.09a39.495,39.495,0,0,1-5.174,5.056,5.569,5.569,0,0,1,0,2.133c-4.779,22.514-8.374,53.994-5.569,76.9,7.149.316,28.913,2.883,41.315,1.066-1.58-22.593-.632-47.832-4.424-63.473A24.291,24.291,0,0,0,93.912,53.778Z" transform="translate(173.34 56.187)" fill="#e8e6c4"/>
              <path id="Trazado_194576" data-name="Trazado 194576" d="M81.387,132.305a289.561,289.561,0,0,1,2.093-79,34.84,34.84,0,0,1-1.422-4.779c.316.829-14.338,27.649-14.061,35.785s-4.5,46.292-4.937,47.4a132.357,132.357,0,0,1,18.327.592Z" transform="translate(155.728 57.485)" fill="#e8e6c4"/>
              <path id="Trazado_194577" data-name="Trazado 194577" d="M69.086,62.171a7.466,7.466,0,0,0-.632-2.449,2.488,2.488,0,0,0-1.9-1.422A2.962,2.962,0,0,0,63.912,60a5.768,5.768,0,0,0-.632,1.422s0,.316,0,.395a.237.237,0,0,0,.237,0c1.7,0,3.4.671,5.1.434" transform="translate(156.377 86.305)" fill="#35445c"/>
              <path id="Trazado_194578" data-name="Trazado 194578" d="M63.741,60.572h6.122a.75.75,0,0,0,.75-.711h0a.711.711,0,0,0-.711-.711H63.78a.75.75,0,0,0-.75.711h0a.751.751,0,0,0,.711.711Z" transform="translate(155.64 88.812)" fill="#adbede"/>
              <path id="Trazado_194579" data-name="Trazado 194579" d="M88.141,93.605,78.82,63.35a5.964,5.964,0,0,0-3.278-3.95L55.99,50.671a.75.75,0,0,0-.987.948l9.322,29.624a6.083,6.083,0,0,0,3.12,3.634l19.749,9.44a.75.75,0,0,0,.948-.711Z" transform="translate(131.832 63.639)" fill="#c6412a"/>
              <path id="Trazado_194580" data-name="Trazado 194580" d="M87.84,94.105,78.6,63.85a6.122,6.122,0,0,0-3.239-3.95L55.61,51.171a.75.75,0,0,0-.987.948l9.519,29.742a6,6,0,0,0,3.081,3.634l19.749,9.44a.711.711,0,0,0,.869-.829Z" transform="translate(130.711 65.114)" fill="#9e3421"/>
              <path id="Trazado_194581" data-name="Trazado 194581" d="M76.722,73.531s30.611,35.785,37.365,29.94L103.5,80.64c0,.553-25-19.354-25-19.354s-17.024-6.912-17.419-4.7c-.316,1.54,10.151,2.725,9.164,2.725a37.168,37.168,0,0,0-10.112-.79c-1.343,1.3,9.361,3.4,9.2,3.95,0,0-10.664,0-10.98,1.145s10.625,1.856,10.427,2.172-9.164-.75-7.9,0S76.722,73.531,76.722,73.531Z" transform="translate(141.83 79.961)" fill="#ffa47e"/>
              <path id="Trazado_194582" data-name="Trazado 194582" d="M63.892,62.52s-3.95-8.216-2.212-7.228A143.34,143.34,0,0,1,72.739,66.509" transform="translate(150.354 77.187)" fill="#ffa47e"/>
              <path id="Trazado_194583" data-name="Trazado 194583" d="M118.254,53.184a5.964,5.964,0,0,0-10.23.632,134.3,134.3,0,0,0-5.49,15.8c-2.488,6.6-12.955,26.227-12.955,26.227L68.763,79.49l-6.043,14.1s30.374,31.6,37.918,28.32C107.274,119.146,131.447,73.012,118.254,53.184Z" transform="translate(154.725 63.535)" fill="#6677d6"/>
              <path id="Trazado_194584" data-name="Trazado 194584" d="M87.029,43.074a9.085,9.085,0,1,0-9.085,9.045,9.085,9.085,0,0,0,9.085-9.045Z" transform="translate(172.837 14.477)" fill="#140d0d"/>
            </g>
          </g>
        </g>
        <g id="Grupo_135305" data-name="Grupo 135305" transform="translate(986.145 2088.425)">
          <path id="Trazado_195810" data-name="Trazado 195810" d="M620.12,108.58l-15.17,22.454,15.17,21.79,13.853-22.454Z" transform="translate(-398.401 -57.129)" fill="#e0cbc8"/>
          <g id="Grupo_135304" data-name="Grupo 135304" transform="translate(0 0)">
            <path id="Trazado_195794" data-name="Trazado 195794" d="M1067.173,214.289V147.834L1037,133.559l20.525-60.219h153.524a9.585,9.585,0,0,1,9.6,9.585V204.691a9.6,9.6,0,0,1-9.6,9.6Z" transform="translate(-985.213 127.225)" fill="#b8bee0"/>
            <path id="Trazado_195789" data-name="Trazado 195789" d="M1059.041,68.79l23.387,11.694-25.3,49a42.033,42.033,0,0,1,31.183,13.138q12.844,13.125,12.78,32.652a44.857,44.857,0,0,1-45.01,45q-19.515,0-32.5-13.572t-13-31.132a46.91,46.91,0,0,1,2.019-13.432q1.993-6.76,9.265-20.793Zm-3.438,86.673a16.946,16.946,0,0,0-12.78,5.534,20.946,20.946,0,0,0,.243,27.9,17.035,17.035,0,0,0,12.7,5.687A17.8,17.8,0,0,0,1068.907,189a20.818,20.818,0,0,0,.141-28A17.892,17.892,0,0,0,1055.6,155.463Z" transform="translate(-992.559 125.961)" fill="#b8bee0"/>
            <path id="Trazado_195790" data-name="Trazado 195790" d="M1063.041,71.79l23.387,11.694-25.3,49a42.032,42.032,0,0,1,31.183,13.138q12.844,13.125,12.78,32.652a44.857,44.857,0,0,1-45.011,45q-19.515,0-32.5-13.572t-13-31.132a46.922,46.922,0,0,1,2.019-13.432q1.993-6.761,9.265-20.793Zm-3.437,86.673a16.946,16.946,0,0,0-12.78,5.534,20.946,20.946,0,0,0,.242,27.9,17.037,17.037,0,0,0,12.7,5.687A17.8,17.8,0,0,0,1072.907,192a20.818,20.818,0,0,0,.14-28A17.892,17.892,0,0,0,1059.6,158.463Z" transform="translate(-991.447 126.795)" fill="#6677d6"/>
            <g id="Rectángulo_44442" data-name="Rectángulo 44442" transform="translate(114.572 221.574)" fill="#fff" stroke="#6677d6" stroke-width="3" opacity="0.9">
              <rect width="102" height="102" rx="51" stroke="none"/>
              <rect x="1.5" y="1.5" width="99" height="99" rx="49.5" fill="none"/>
            </g>
            <g id="Grupo_135301" data-name="Grupo 135301">
              <path id="Trazado_195805" data-name="Trazado 195805" d="M501.284,213.771V145.22L498,133.31l3.31-10.773V72.81H640.252a9.6,9.6,0,0,1,9.6,9.6V204.174a9.6,9.6,0,0,1-9.6,9.6Z" transform="translate(-428.132 -67.073)" fill="#e0cbc8"/>
              <path id="Trazado_195806" data-name="Trazado 195806" d="M475.535,107.528H449.158q2.058-15.962,11.5-25.687,13.15-13.508,33.049-13.521,17.751,0,29.751,11.272t11.975,26.659a31.258,31.258,0,0,1-5.24,17.559,37.636,37.636,0,0,1-15.246,12.78,38.813,38.813,0,0,1,20.537,13.674,36.972,36.972,0,0,1,7.4,23,43.451,43.451,0,0,1-14.352,32.985q-14.313,13.483-36.474,13.483-20.972,0-34.211-12.7T443.33,172.527h27.157q1.764,11.182,7.8,16.614a23.86,23.86,0,0,0,31.183-.729,20.294,20.294,0,0,0,6.326-15.106q0-9.8-8.537-16.614T482.692,149.7V126.2q9.892-.78,14.748-3.093a18.287,18.287,0,0,0,7.553-6.39,14.99,14.99,0,0,0,2.7-8.524,12.843,12.843,0,0,0-4.115-9.764A15.106,15.106,0,0,0,492.788,94.6,17.5,17.5,0,0,0,482.1,98.174a17.892,17.892,0,0,0-6.569,9.355Z" transform="translate(-443.33 -68.32)" fill="#e0cbc8"/>
              <path id="Trazado_195807" data-name="Trazado 195807" d="M479.535,111.528H453.158q2.058-15.962,11.5-25.687,13.15-13.508,33.049-13.521,17.751,0,29.751,11.272t11.975,26.659a31.26,31.26,0,0,1-5.24,17.559,37.635,37.635,0,0,1-15.246,12.78,38.812,38.812,0,0,1,20.537,13.674,36.972,36.972,0,0,1,7.4,23,43.451,43.451,0,0,1-14.352,32.985q-14.313,13.483-36.474,13.483-20.972,0-34.212-12.7T447.33,176.527h27.157q1.764,11.182,7.8,16.614a23.86,23.86,0,0,0,31.183-.728,20.3,20.3,0,0,0,6.326-15.106q0-9.8-8.537-16.614T486.692,153.7V130.2q9.892-.78,14.748-3.093a18.288,18.288,0,0,0,7.553-6.39,14.992,14.992,0,0,0,2.7-8.524,12.844,12.844,0,0,0-4.115-9.764A15.106,15.106,0,0,0,496.788,98.6a17.5,17.5,0,0,0-10.684,3.578,17.892,17.892,0,0,0-6.569,9.355Z" transform="translate(-442.218 -67.208)" fill="#9e3421"/>
              <g id="Rectángulo_44446" data-name="Rectángulo 44446" transform="translate(104.572 23.574)" fill="#fff" stroke="#9e3421" stroke-width="3" opacity="0.9">
                <rect width="103" height="102" rx="51" stroke="none"/>
                <rect x="1.5" y="1.5" width="100" height="99" rx="49.5" fill="none"/>
              </g>
              <g id="me-gusta" transform="translate(120.346 42.04)">
                <path id="Trazado_196925" data-name="Trazado 196925" d="M43.231,7.982C35.74-5.93,20.689,5.226,30.39,16.543a46.308,46.308,0,0,0,12.842,10.7,46.308,46.308,0,0,0,12.842-10.7C65.773,5.226,50.722-5.93,43.231,7.982Z" transform="translate(-9.357 -0.5)" fill="#c6412a"/>
                <path id="Trazado_196926" data-name="Trazado 196926" d="M34.618,16.544c-5.69-6.638-2.864-13.221,1.958-14.722C29.683-.24,23.158,8.107,30.39,16.544a46.311,46.311,0,0,0,12.842,10.7s.8-.4,2.114-1.245A50.119,50.119,0,0,1,34.618,16.544Z" transform="translate(-9.357 -0.5)" fill="#c6412a"/>
                <g id="Grupo_135203" data-name="Grupo 135203" transform="translate(38.155 27.815)">
                  <path id="Trazado_196927" data-name="Trazado 196927" d="M62.428,42.1a3.21,3.21,0,0,0-4.816,2.78v10.7h3.21v-10.7A3.208,3.208,0,0,1,62.428,42.1Z" transform="translate(-57.612 -41.668)" fill="#ffe6c9"/>
                  <path id="Trazado_196928" data-name="Trazado 196928" d="M72.047,45.3a3.21,3.21,0,0,0-4.816,2.78v8.561h3.21V48.085A3.208,3.208,0,0,1,72.047,45.3Z" transform="translate(-60.81 -42.734)" fill="#ffe6c9"/>
                  <path id="Trazado_196929" data-name="Trazado 196929" d="M81.666,48.511a3.21,3.21,0,0,0-4.816,2.78v6.421h3.21V51.291A3.208,3.208,0,0,1,81.666,48.511Z" transform="translate(-64.008 -43.8)" fill="#ffe6c9"/>
                </g>
                <path id="Trazado_196930" data-name="Trazado 196930" d="M64.071,40.619a3.21,3.21,0,0,0-3.21,3.21v-2.14a3.21,3.21,0,1,0-6.421,0v-2.14a3.21,3.21,0,0,0-6.421,0v-10.7a3.21,3.21,0,1,0-6.421,0V53.4l-7.023-9.358a3.21,3.21,0,0,0-5.215,3.746L41.6,65.174v10.7H67.281V43.829A3.21,3.21,0,0,0,64.071,40.619Z" transform="translate(-9.864 -8.523)" fill="#f1cbbd"/>
                <g id="Grupo_135204" data-name="Grupo 135204" transform="translate(18.892 17.113)">
                  <path id="Trazado_196931" data-name="Trazado 196931" d="M44.808,84.32v-10.7L32.57,56.235a3.21,3.21,0,0,1,.735-4.48c.072-.051.145-.1.219-.143a3.211,3.211,0,0,0-4.164,4.681L41.6,73.676v10.7H67.281V84.32H44.808Z" transform="translate(-28.756 -34.139)" fill="#edbca9"/>
                  <path id="Trazado_196932" data-name="Trazado 196932" d="M51.2,53.4V28.79a3.208,3.208,0,0,1,1.555-2.751,3.211,3.211,0,0,0-4.766,2.809V53.4H51.2Z" transform="translate(-35.152 -25.637)" fill="#edbca9"/>
                </g>
                <path id="Trazado_196933" data-name="Trazado 196933" d="M85.969,68.133a1,1,0,0,0-1,1V90a1,1,0,0,0,2.007,0V69.137A1,1,0,0,0,85.969,68.133Z" transform="translate(-28.552 -22.652)"/>
                <path id="Trazado_196934" data-name="Trazado 196934" d="M63.059,31.092a4.188,4.188,0,0,0-2.416.765,4.209,4.209,0,0,0-6.421-2.14,4.21,4.21,0,0,0-6.212-2.279v-2.99A1,1,0,0,0,48.3,24.3a52.485,52.485,0,0,0,8.031-7.6C59.6,12.875,60.579,8.6,59,4.974A8.142,8.142,0,0,0,51.855.008c-3.44-.145-6.7,1.847-9.129,5.518C40.3,1.855,37.04-.139,33.6.008a8.142,8.142,0,0,0-7.146,4.966c-1.578,3.628-.6,7.9,2.671,11.722a51.482,51.482,0,0,0,10.371,9.27c.029.019.059.034.089.05V41.871l-5.212-6.944a4.214,4.214,0,0,0-6.844,4.917L39.583,56.969V67.352a1,1,0,1,0,2.007,0v-10.7a1.012,1.012,0,0,0-.183-.577L29.162,38.682a2.207,2.207,0,0,1,3.585-2.575l.012.017,7.023,9.358a1,1,0,0,0,1.806-.6V20.324a2.207,2.207,0,1,1,4.414,0V38.459a1,1,0,1,0,2.007,0V31.025a2.207,2.207,0,1,1,4.414,0v7.433a1,1,0,0,0,2.007,0V33.166a2.207,2.207,0,0,1,4.414,0v5.293a1,1,0,1,0,2.007,0V35.306a2.207,2.207,0,0,1,4.414,0v6.421a1,1,0,1,0,2.007,0V35.306A4.219,4.219,0,0,0,63.059,31.092ZM43.8,16.11a4.218,4.218,0,0,0-4.214,4.214v3.268a50.016,50.016,0,0,1-8.936-8.2c-2.756-3.215-3.614-6.72-2.355-9.616a6.15,6.15,0,0,1,5.39-3.762c3.08-.127,6.057,2.038,8.161,5.945a1.013,1.013,0,0,0,1.767,0c2.1-3.908,5.08-6.075,8.161-5.945a6.15,6.15,0,0,1,5.39,3.762c1.259,2.9.4,6.4-2.355,9.616a50.718,50.718,0,0,1-6.8,6.584v-1.65A4.218,4.218,0,0,0,43.8,16.11Z" transform="translate(-8.852 0)"/>
                <path id="Trazado_196935" data-name="Trazado 196935" d="M95.835.52a1,1,0,0,0-1.5,1.333,11.835,11.835,0,0,1,0,15.725,1,1,0,1,0,1.5,1.333,13.842,13.842,0,0,0,0-18.391Z" transform="translate(-31.583 -0.061)"/>
                <path id="Trazado_196936" data-name="Trazado 196936" d="M91.308,5.089A1,1,0,1,0,89.77,6.377a7.553,7.553,0,0,1,0,9.7,1,1,0,1,0,1.538,1.289,9.559,9.559,0,0,0,0-12.277Z" transform="translate(-30.071 -1.572)"/>
                <path id="Trazado_196937" data-name="Trazado 196937" d="M85.4,9.479a1,1,0,0,0-.25,1.4,3.273,3.273,0,0,1,0,3.74,1,1,0,1,0,1.646,1.147,5.28,5.28,0,0,0,0-6.034A1,1,0,0,0,85.4,9.479Z" transform="translate(-28.552 -3.092)"/>
                <path id="Trazado_196938" data-name="Trazado 196938" d="M2.461,9.715A11.82,11.82,0,0,1,5.45,1.853,1,1,0,0,0,3.951.52a13.842,13.842,0,0,0,0,18.391,1,1,0,1,0,1.5-1.333A11.82,11.82,0,0,1,2.461,9.715Z" transform="translate(-0.455 -0.061)"/>
                <path id="Trazado_196939" data-name="Trazado 196939" d="M10.512,4.964A1,1,0,0,0,9.1,5.089a9.559,9.559,0,0,0,0,12.277,1,1,0,1,0,1.538-1.288,7.553,7.553,0,0,1,0-9.7A1,1,0,0,0,10.512,4.964Z" transform="translate(-2.587 -1.572)"/>
                <path id="Trazado_196940" data-name="Trazado 196940" d="M15.623,9.479a1,1,0,0,0-1.4.25,5.28,5.28,0,0,0,0,6.035,1,1,0,1,0,1.646-1.147,3.273,3.273,0,0,1,0-3.74A1,1,0,0,0,15.623,9.479Z" transform="translate(-4.719 -3.092)"/>
              </g>
            </g>
            <g id="rendimiento" transform="translate(133.055 238.963)">
              <g id="Grupo_135213" data-name="Grupo 135213" transform="translate(0 0)">
                <g id="Grupo_135211" data-name="Grupo 135211" transform="translate(0.94 0.94)">
                  <path id="Trazado_196970" data-name="Trazado 196970" d="M61.245,86.073H11.5A24.906,24.906,0,0,1,34.634,61.261q.863-.06,1.739-.06A24.9,24.9,0,0,1,61.245,86.073Z" transform="translate(-5.235 -23.798)" fill="#6677d6"/>
                  <path id="Trazado_196971" data-name="Trazado 196971" d="M15.281,69.843a24.8,24.8,0,0,0-7.516,17.8H2.5a1,1,0,0,1-1-1.029,31.052,31.052,0,0,1,9.33-21.217l2.1,2.1.3.3Z" transform="translate(-1.5 -25.364)" fill="#c6412a"/>
                  <path id="Trazado_196972" data-name="Trazado 196972" d="M38.2,51.175v6.281a24.786,24.786,0,0,0-17.357,7.077L18.52,62.21,18,61.688l-1.605-1.605A31.049,31.049,0,0,1,34.68,51.372,31.389,31.389,0,0,1,38.2,51.175Z" transform="translate(-7.062 -20.054)" fill="#eee99a"/>
                  <path id="Trazado_196973" data-name="Trazado 196973" d="M73.008,60.082l-4.451,4.451A24.786,24.786,0,0,0,51.2,57.456V51.175q.786,0,1.561.039h.005A31.048,31.048,0,0,1,73.008,60.082Z" transform="translate(-20.063 -20.054)" fill="#ffef0f"/>
                  <path id="Trazado_196974" data-name="Trazado 196974" d="M83.356,65.393l-4.45,4.45a24.8,24.8,0,0,1,7.515,17.8h5.261a1,1,0,0,0,1-1.029A31.053,31.053,0,0,0,83.356,65.393Z" transform="translate(-30.41 -25.364)" fill="#daaba3"/>
                  <path id="Trazado_196975" data-name="Trazado 196975" d="M63.776,3.229v9.444a1.737,1.737,0,0,1-3.475,0V8.6a.5.5,0,0,0-.855-.356L43.067,24.539a3.486,3.486,0,0,1-4.913,0l-9.666-9.612a1,1,0,0,0-1.413,0L4.467,37.411a1.744,1.744,0,0,1-2.457,0,1.722,1.722,0,0,1,0-2.443L25.324,11.78a3.492,3.492,0,0,1,4.913,0L39.9,21.394a1.007,1.007,0,0,0,1.413,0L56.984,5.812a.491.491,0,0,0,.148-.323.5.5,0,0,0-.5-.534H52.541a1.727,1.727,0,1,1,0-3.455h9.5a1.732,1.732,0,0,1,1.737,1.728Z" transform="translate(-1.501 -1.501)" fill="#c6412a"/>
                  <g id="Grupo_135210" data-name="Grupo 135210" transform="translate(0.001 0)">
                    <path id="Trazado_196976" data-name="Trazado 196976" d="M82.432,8.749,66.163,24.8a1.051,1.051,0,0,1-1.47,0l-.744-.741a.992.992,0,0,0,.692-.289L80.308,8.19a.491.491,0,0,0,.148-.323h1.61a.515.515,0,0,1,.366.882Z" transform="translate(-24.825 -3.878)" fill="#c6412a"/>
                    <path id="Trazado_196977" data-name="Trazado 196977" d="M29.348,16.666a3.424,3.424,0,0,0-.891.64L5.142,40.494a1.721,1.721,0,0,0-.289,2.06l-.386.383a1.744,1.744,0,0,1-2.457,0,1.722,1.722,0,0,1,0-2.443L25.324,17.307A3.5,3.5,0,0,1,29.348,16.666Z" transform="translate(-1.501 -7.027)" fill="#c6412a"/>
                    <path id="Trazado_196978" data-name="Trazado 196978" d="M80.2,3.229A1.732,1.732,0,0,1,81.933,1.5h3.133a1.727,1.727,0,1,0,0,3.455H81.933A1.732,1.732,0,0,1,80.2,3.229Z" transform="translate(-30.894 -1.501)" fill="#c6412a"/>
                  </g>
                  <path id="Trazado_196979" data-name="Trazado 196979" d="M64.7,79.851a1.624,1.624,0,0,1-.407,1.078l-10.146,11.5H51.923l-2.61-2.61L62,78.632a1.627,1.627,0,0,1,2.7,1.219Z" transform="translate(-19.358 -30.157)" fill="#fff"/>
                  <path id="Trazado_196980" data-name="Trazado 196980" d="M52.445,89.821l12.1-10.67A1.623,1.623,0,0,0,62,78.632L49.313,89.821l2.61,2.61h2.227l.425-.481Z" transform="translate(-19.358 -30.157)" fill="#fff"/>
                  <path id="Trazado_196981" data-name="Trazado 196981" d="M53.1,98.1H43.7a4.7,4.7,0,0,1,9.4,0Z" transform="translate(-17.262 -35.825)" fill="#fff"/>
                  <path id="Trazado_196982" data-name="Trazado 196982" d="M49.966,93.669A4.7,4.7,0,0,0,43.7,98.1h3.133A4.7,4.7,0,0,1,49.966,93.669Z" transform="translate(-17.262 -35.825)" fill="#fff"/>
                  <path id="Trazado_196983" data-name="Trazado 196983" d="M34.634,61.3A28.351,28.351,0,0,0,16.641,86.109H11.5A24.906,24.906,0,0,1,34.634,61.3Z" transform="translate(-5.235 -23.834)" fill="#6677d6"/>
                  <path id="Trazado_196984" data-name="Trazado 196984" d="M12.734,67.8a32.816,32.816,0,0,0-7.112,19.42,1,1,0,0,0,.078.421H2.5a1,1,0,0,1-1-1.029,31.052,31.052,0,0,1,9.33-21.217l2.1,2.1A2.209,2.209,0,0,1,12.734,67.8Z" transform="translate(-1.5 -25.364)" fill="#c6412a"/>
                  <path id="Trazado_196985" data-name="Trazado 196985" d="M34.68,51.489A33,33,0,0,0,18.52,62.327L18,61.8,16.393,60.2A31.049,31.049,0,0,1,34.68,51.489Z" transform="translate(-7.062 -20.171)" fill="#eee99a"/>
                </g>
                <g id="Grupo_135212" data-name="Grupo 135212">
                  <path id="Trazado_196986" data-name="Trazado 196986" d="M54.42,58.729A32.094,32.094,0,0,0,0,80.71a1.919,1.919,0,0,0,.545,1.406,1.957,1.957,0,0,0,1.4.592H43.581a.94.94,0,1,0,0-1.88H37.813l8.768-9.941a2.567,2.567,0,0,0-3.623-3.623L32.846,76.183a5.629,5.629,0,0,0-6.327,4.645H8.165a23.931,23.931,0,0,1,47.825,0H47.967a.94.94,0,0,0,0,1.88H62.211a1.957,1.957,0,0,0,1.4-.592,1.919,1.919,0,0,0,.545-1.407A31.916,31.916,0,0,0,54.42,58.729Zm-5,3.933a25.712,25.712,0,0,0-16.4-6.687v-4.4A30.115,30.115,0,0,1,52.578,59.5Zm-34.676,0L11.577,59.5a30.114,30.114,0,0,1,19.561-7.93v4.4a25.712,25.712,0,0,0-16.4,6.687ZM44.2,68.673a.689.689,0,0,1,.941.029.688.688,0,0,1,.029.942l-8.212,9.31a5.678,5.678,0,0,0-2.069-2.069ZM32.078,78.009a3.766,3.766,0,0,1,3.64,2.819h-7.28A3.766,3.766,0,0,1,32.078,78.009ZM1.944,80.828a.065.065,0,0,1-.048-.021.05.05,0,0,1-.016-.038,30.1,30.1,0,0,1,8.356-19.953l3.159,3.159a25.722,25.722,0,0,0-7.11,16.853Zm60.315-.021a.065.065,0,0,1-.048.021H57.871a25.722,25.722,0,0,0-7.11-16.853l3.159-3.159a30.1,30.1,0,0,1,8.356,19.952A.051.051,0,0,1,62.259,80.808Z" transform="translate(0 -18.554)"/>
                  <path id="Trazado_196987" data-name="Trazado 196987" d="M61.478,0h-9.5a2.667,2.667,0,1,0,0,5.334h3.027L40.094,20.167a.063.063,0,0,1-.088,0L30.34,10.554a4.434,4.434,0,0,0-6.238,0L.786,33.741A2.668,2.668,0,0,0,2.677,38.3a2.668,2.668,0,0,0,1.892-.78L27.177,15.033a.063.063,0,0,1,.088,0l9.665,9.611a4.426,4.426,0,0,0,6.239,0l5.365-5.337a.94.94,0,1,0-1.325-1.332l-5.365,5.337a2.547,2.547,0,0,1-3.588,0L28.591,13.7a1.947,1.947,0,0,0-2.738,0L3.244,36.184a.8.8,0,0,1-1.132,0,.782.782,0,0,1,0-1.111L25.427,11.887a2.55,2.55,0,0,1,3.588,0L38.681,21.5a1.947,1.947,0,0,0,2.738,0L57.087,5.918a1.441,1.441,0,0,0-1.018-2.463H51.981a.788.788,0,1,1,0-1.575h9.5a.793.793,0,0,1,.8.788v9.444a.8.8,0,0,1-1.6,0V8.044a1.441,1.441,0,0,0-2.457-1.022l-7.9,7.861a.94.94,0,1,0,1.325,1.332L58.8,9.1v3.014a2.677,2.677,0,0,0,5.354,0V2.668A2.675,2.675,0,0,0,61.478,0Z" transform="translate(0 -0.001)"/>
                </g>
              </g>
            </g>
          </g>
        </g>
      </g>
    </g>
  </g>
</svg>
