<svg xmlns="http://www.w3.org/2000/svg" width="452.774" height="299" viewBox="0 0 452.774 299">
  <g id="Grupo_135477" data-name="Grupo 135477" transform="translate(-862.226 -1603)">
    <rect id="BG" width="452.774" height="299" transform="translate(862.226 1603)" fill="#e8e8e8" opacity="0.949"/>
    <text id="_Cuál_es_la_misión_de_la_empresa_" data-name="¿Cuál es la misión de la empresa?

" transform="translate(970 1637)" fill="#12263f" font-size="16" font-family="Roboto-Regular, Roboto"><tspan x="0" y="17">¿Cuál es la misión de la empresa?</tspan></text>
    <text id="_Qué_piensan_los_clientes_actuales_y_potenciales_de_la_empresa_" data-name="¿Qué piensan los clientes actuales y potenciales de la empresa?" transform="translate(970 1741.5)" fill="#12263f" font-size="16" font-family="Roboto-Regular, Roboto"><tspan x="0" y="17">¿Qué piensan los clientes actuales y </tspan><tspan x="0" y="41">potenciales de la empresa?</tspan></text>
    <text id="_Qué_cualidades_deberían_asociarse_con_su_empresa_" data-name="¿Qué cualidades deberían asociarse con su empresa?" transform="translate(970 1795.5)" fill="#12263f" font-size="16" font-family="Roboto-Regular, Roboto"><tspan x="0" y="17">¿Qué cualidades deberían asociarse con </tspan><tspan x="0" y="41">su empresa?</tspan></text>
    <text id="_Cuáles_son_los_beneficios_y_las_características_de_los_productos_o_servicios_que_ofrece_" data-name="¿Cuáles son los beneficios y las características de los productos o servicios que ofrece?
" transform="translate(970 1666.848)" fill="#12263f" font-size="16" font-family="Roboto-Regular, Roboto"><tspan x="0" y="17">¿Cuáles son los beneficios y las </tspan><tspan x="0" y="41">características de los productos o </tspan><tspan x="0" y="65">servicios que ofrece?</tspan></text>
    <path id="comprobado" d="M0,69.769l4.482,4.49,8.606-8.6-1.236-1.218L4.482,71.8,1.218,68.542Z" transform="translate(949.456 1577.241)" fill="#c6412a"/>
    <path id="comprobado-2" data-name="comprobado" d="M0,69.769l4.482,4.49,8.606-8.6-1.236-1.218L4.482,71.8,1.218,68.542Z" transform="translate(949.456 1681.741)" fill="#c6412a"/>
    <path id="comprobado-3" data-name="comprobado" d="M0,69.769l4.482,4.49,8.606-8.6-1.236-1.218L4.482,71.8,1.218,68.542Z" transform="translate(949.456 1735.741)" fill="#c6412a"/>
    <path id="comprobado-4" data-name="comprobado" d="M0,69.769l4.482,4.49,8.606-8.6-1.236-1.218L4.482,71.8,1.218,68.542Z" transform="translate(949.456 1609.241)" fill="#c6412a"/>
  </g>
</svg>
