<svg xmlns="http://www.w3.org/2000/svg" width="64" height="58.88" viewBox="0 0 64 58.88">
  <path id="contenido" d="M78.583,73.79V53.31a3.84,3.84,0,0,0-3.84-3.84H51.7a3.84,3.84,0,0,0-3.84,3.84V73.79a3.84,3.84,0,0,0,3.84,3.84h23.04A3.84,3.84,0,0,0,78.583,73.79Zm-33.28,0V53.31a3.84,3.84,0,0,0-3.84-3.84H18.423a3.84,3.84,0,0,0-3.84,3.84V73.79a3.84,3.84,0,0,0,3.84,3.84h23.04A3.84,3.84,0,0,0,45.3,73.79Zm30.72-20.48V73.79a1.28,1.28,0,0,1-1.28,1.28H51.7a1.28,1.28,0,0,1-1.28-1.28V53.31a1.279,1.279,0,0,1,1.28-1.28h23.04A1.279,1.279,0,0,1,76.023,53.31ZM33.23,75.07,27,68.836a1.28,1.28,0,0,0-1.81,0L18.953,75.07Zm9.453-.893L37.3,68.8a1.28,1.28,0,0,0-1.81,0l-2.458,2.458,3.817,3.817h4.613a1.28,1.28,0,0,0,1.22-.893Zm.06-3.56V53.31a1.28,1.28,0,0,0-1.28-1.28H18.423a1.28,1.28,0,0,0-1.28,1.28v19.95l6.233-6.233a3.84,3.84,0,0,1,5.431,0l2.416,2.416,2.457-2.457a3.839,3.839,0,0,1,5.431,0ZM70.3,64.635a1.28,1.28,0,0,0,0-2.171l-10.24-6.4A1.28,1.28,0,0,0,58.1,57.15v12.8a1.279,1.279,0,0,0,1.958,1.086ZM67.208,63.55l-6.545,4.09V59.459ZM26.1,64.83a5.12,5.12,0,1,0-5.12-5.12A5.122,5.122,0,0,0,26.1,64.83Zm0-2.56a2.56,2.56,0,1,1,2.56-2.56A2.561,2.561,0,0,1,26.1,62.27Zm35.84-39.68a3.84,3.84,0,0,0-3.84-3.84H35.063a3.84,3.84,0,0,0-3.84,3.84V43.07a3.84,3.84,0,0,0,3.84,3.84h15.36a1.28,1.28,0,0,0,.905-.375l10.24-10.24a1.278,1.278,0,0,0,.375-.905Zm-2.56,11.52V22.59a1.28,1.28,0,0,0-1.28-1.28H35.063a1.28,1.28,0,0,0-1.28,1.28V43.07a1.28,1.28,0,0,0,1.28,1.28h14.08v-6.4a3.84,3.84,0,0,1,3.84-3.84Zm-1.81,2.56h-4.59a1.28,1.28,0,0,0-1.28,1.28v4.59l2.935-2.934Zm-19.95,0H45.3a1.28,1.28,0,1,0,0-2.56h-7.68a1.28,1.28,0,0,0,0,2.56Zm0-5.12h17.92a1.28,1.28,0,0,0,0-2.56H37.623a1.28,1.28,0,0,0,0,2.56Zm0-5.12h17.92a1.28,1.28,0,0,0,0-2.56H37.623a1.28,1.28,0,0,0,0,2.56Z" transform="translate(-14.583 -18.75)" fill="#4e2e8e" fill-rule="evenodd"/>
</svg>
