<svg xmlns="http://www.w3.org/2000/svg" width="105" height="104.967" viewBox="0 0 105 104.967">
  <g id="Grupo_116105" data-name="Grupo 116105" transform="translate(-497.098 -9.66)">
    <path id="Trazado_163918" data-name="Trazado 163918" d="M497.144,61.885c0-9.816.017-19.633-.016-29.449a5.7,5.7,0,0,1,1.733-4.283q8.4-8.378,16.779-16.775a5.6,5.6,0,0,1,4.183-1.718q22.581.035,45.163.014a5.276,5.276,0,0,1,5.6,5.588q.023,12.8-.016,25.6a1.357,1.357,0,0,0,.932,1.447c10,4.866,16.061,12.76,17.872,23.758a30.332,30.332,0,0,1-4.885,22.143c-.411.63-.484,1.012.137,1.517a14.561,14.561,0,0,1,1.7,1.685,2.985,2.985,0,0,0,2.8,1.349,2.5,2.5,0,0,1,1.991.968c3.018,3.015,6.063,6,9.039,9.061a7,7,0,0,1-9.895,9.887c-3.03-2.954-5.991-5.978-8.989-8.965a3.237,3.237,0,0,1-1.068-2.8,1.356,1.356,0,0,0-.507-1.262c-.9-.862-1.805-1.729-2.645-2.651-.423-.464-.695-.432-1.19-.1a31.347,31.347,0,0,1-34.176.645,2.954,2.954,0,0,0-1.646-.466c-12.349.014-24.7-.035-37.046.041a5.661,5.661,0,0,1-5.89-5.889C497.228,81.449,497.144,71.666,497.144,61.885Zm90.071,35.787c-1.01.992-2,2.009-3.039,2.964-.471.431-.343.659.043,1.041q4.091,4.044,8.143,8.128a3.251,3.251,0,0,0,1.564.961,3.447,3.447,0,0,0,3.245-5.967q-3.586-3.6-7.188-7.187C588.576,96.2,588.577,96.2,587.216,97.672Zm-20.568-.213a4.127,4.127,0,0,0,.6-.112,28.009,28.009,0,0,0,18.743-30.2,27.294,27.294,0,0,0-11.269-18.9,21.052,21.052,0,0,0-7.442-3.749,25.682,25.682,0,0,0-14.1-1.114A27.927,27.927,0,0,0,530.5,73.629a27.258,27.258,0,0,0,13.319,21.089,29.036,29.036,0,0,0,7.815,3.372A26.215,26.215,0,0,0,566.647,97.459Zm-3.512-84.221a1.282,1.282,0,0,0-.205-.033q-21.178,0-42.356-.024c-.747,0-.731.34-.73.873q.018,6.348.005,12.7c-.006,3.486-2.136,5.621-5.626,5.63-4.128.01-8.256.03-12.384-.019-.915-.011-1.2.183-1.194,1.16q.049,28.775.024,57.551c0,.243-.007.486,0,.728a1.507,1.507,0,0,0,1.2,1.589l.266.108c.935.018,1.87.053,2.8.052q14.311-.009,28.622-.028h2.915c-.325-.341-.531-.561-.741-.777a31.479,31.479,0,0,1,.86-44.695,38.009,38.009,0,0,1,7.673-5.45c.225-.083.457-.151.674-.25a32.192,32.192,0,0,1,9.791-2.753,40.058,40.058,0,0,1,8.163.067c1.043.226,2.112.374,3.122.7.867.282,1.046.085,1.043-.791-.028-8.008-.016-16.017-.017-24.026a5.254,5.254,0,0,0-.023-.726,1.725,1.725,0,0,0-1.817-1.62C564.52,13.19,563.827,13.225,563.135,13.238Zm-59.654,15.6c.115.007.275.025.435.025,3.467,0,6.934.009,10.4,0,1.427,0,2-.59,2.009-2.027.012-2.184,0-4.368,0-6.553V15.983Zm78.2,63.049c-.375.4-.739.8-1.122,1.189-1.224,1.232-1.226,1.229,0,2.451,2.031,2.032,2.031,2.032,3.9-.125.045-.052.094-.1.143-.149.174-.169.215-.338.025-.528q-1.32-1.315-2.638-2.633A2.28,2.28,0,0,0,581.683,91.882Z" transform="translate(0 0)" fill="#09090a"/>
    <path id="Trazado_163919" data-name="Trazado 163919" d="M572.1,48.8a40.06,40.06,0,0,0-8.163-.067,32.192,32.192,0,0,0-9.791,2.753c-.218.1-.449.168-.674.25a2.03,2.03,0,0,0-1.205.24,30.264,30.264,0,0,0-12.709,8.847,29.585,29.585,0,0,0-6.945,16.884,28.175,28.175,0,0,0,1.515,11.846,28.943,28.943,0,0,0,7.62,11.839c.391.365.921.651,1.017,1.266q-14.311.015-28.622.028c-.935,0-1.87-.034-2.8-.052l-.266-.108a1.507,1.507,0,0,1-1.2-1.589c-.012-.242,0-.485,0-.728q0-28.776-.024-57.551c0-.978.279-1.172,1.194-1.16,4.127.049,8.256.029,12.384.019,3.49-.009,5.62-2.144,5.626-5.63q.011-6.348-.005-12.7c0-.533-.017-.875.73-.873q21.178.039,42.357.024a1.281,1.281,0,0,1,.205.033,4.159,4.159,0,0,1,.428,2c-.015,4.578-.008,9.157-.008,13.736q0,4.839,0,9.677C572.755,48.269,572.86,48.81,572.1,48.8Zm-19.548-3.761h8.532c2.671,0,5.342.023,8.012-.011a1.747,1.747,0,0,0,1.637-2.655,2.024,2.024,0,0,0-1.975-.871q-13.682.015-27.365.006c-1.7,0-3.4.009-5.1,0a1.808,1.808,0,0,0-1.844,1.078c-.574,1.284.356,2.45,1.974,2.452Q544.491,45.046,552.555,45.037Zm.11-8.743h15.919a6.726,6.726,0,0,0,.831-.014,1.755,1.755,0,0,0,.167-3.469,3.945,3.945,0,0,0-.828-.045q-16.127,0-32.254,0a3.749,3.749,0,0,0-.623.019,1.764,1.764,0,0,0-1.428,1.066c-.542,1.258.347,2.437,1.881,2.44Q544.5,36.305,552.665,36.294Zm-23.63,13.952q-5.982,0-11.965,0a1.821,1.821,0,0,0-1.84,1.088,1.609,1.609,0,0,0,.3,1.831,2.155,2.155,0,0,0,1.794.621q6.971-.017,13.942-.006c3.225,0,6.451.006,9.676,0,1.242,0,1.976-.582,2.062-1.581.1-1.187-.652-1.939-2-1.943C537.011,50.238,533.022,50.245,529.034,50.245ZM525.6,62.519c2.738,0,5.476,0,8.214,0,1.385,0,2.242-.68,2.256-1.758s-.854-1.769-2.224-1.769q-8.266,0-16.531,0c-1.431,0-2.219.62-2.227,1.739s.806,1.785,2.2,1.788C520.056,62.523,522.828,62.518,525.6,62.519Zm-1.8,31.433c-2.251,0-4.5-.008-6.755,0a1.73,1.73,0,0,0-1.961,1.671,1.776,1.776,0,0,0,1.939,1.839q6.807.035,13.614,0a1.767,1.767,0,1,0-.081-3.509C528.306,93.946,526.055,93.952,523.8,93.952Zm.057-26.222c-2.217,0-4.434,0-6.651,0-1.343,0-2.113.639-2.122,1.733s.792,1.785,2.089,1.788q6.651.013,13.3,0c1.271,0,2.109-.749,2.087-1.8a1.816,1.816,0,0,0-2.054-1.715C528.294,67.723,526.078,67.729,523.86,67.729ZM523,85.209c-1.976,0-3.953-.008-5.929,0-1.2.007-1.938.637-1.983,1.658a1.77,1.77,0,0,0,1.921,1.854q5.929.035,11.858,0a1.767,1.767,0,1,0-.041-3.512C526.882,85.2,524.941,85.209,523,85.209Zm-.025-8.736c-1.976,0-3.953-.008-5.929,0a1.743,1.743,0,0,0-1.958,1.683,1.781,1.781,0,0,0,1.946,1.831q5.928.031,11.857,0a1.768,1.768,0,1,0-.091-3.513C526.858,76.466,524.916,76.473,522.974,76.473Z" transform="translate(-9.199 -9.134)" fill="#fff"/>
    <path id="Trazado_163920" data-name="Trazado 163920" d="M652.859,183.672a26.36,26.36,0,0,1-22.83-2.741,27.258,27.258,0,0,1-13.319-21.089A27.927,27.927,0,0,1,639.391,129.6a25.684,25.684,0,0,1,14.1,1.114c.038.342.343.407.573.543A29.833,29.833,0,0,1,664.8,141.858a19.1,19.1,0,0,1,2.5,5.663l-.221-.008c-.1-.219-.208-.437-.309-.657a24.441,24.441,0,1,0,.206,19.957c.488.34.093.718-.021,1.005a29.664,29.664,0,0,1-12.332,14.661C654.024,182.849,653.261,183,652.859,183.672Z" transform="translate(-86.212 -86.213)" fill="#6677d6"/>
    <path id="Trazado_163921" data-name="Trazado 163921" d="M747.076,187.831c.4-.669,1.165-.823,1.766-1.192a29.663,29.663,0,0,0,12.332-14.661c.115-.288.509-.665.021-1.005l.152-.356c.379-.075.332-.366.323-.637l-.009.017c.239-.112.216-.329.218-.537a1.047,1.047,0,0,1,.082-.7,23.139,23.139,0,0,0,.977-10.718c-.186-1.254-.428-2.5-.644-3.75a4.95,4.95,0,0,0-.775-2.611,19.117,19.117,0,0,0-2.505-5.663,29.832,29.832,0,0,0-10.738-10.607c-.23-.136-.535-.2-.573-.543a21.057,21.057,0,0,1,7.442,3.749,27.294,27.294,0,0,1,11.269,18.9,28.009,28.009,0,0,1-18.743,30.2A4.126,4.126,0,0,1,747.076,187.831Z" transform="translate(-180.429 -90.372)" fill="#4e2e8e"/>
    <path id="Trazado_163922" data-name="Trazado 163922" d="M601.565,178.9c-.1-.615-.627-.9-1.017-1.266a28.942,28.942,0,0,1-7.62-11.839,28.173,28.173,0,0,1-1.515-11.846,29.583,29.583,0,0,1,6.945-16.884,30.262,30.262,0,0,1,12.709-8.847,2.029,2.029,0,0,1,1.205-.24,38.013,38.013,0,0,0-7.673,5.45,31.479,31.479,0,0,0-.86,44.695c.21.216.416.436.741.777Z" transform="translate(-67.996 -85.382)" fill="#c3cdd2"/>
    <path id="Trazado_163923" data-name="Trazado 163923" d="M733.623,48.85c.757.012.652-.529.652-1.009q0-4.839,0-9.677c0-4.579-.007-9.157.008-13.736a4.159,4.159,0,0,0-.428-2c.692-.013,1.385-.048,2.077-.033a1.725,1.725,0,0,1,1.817,1.62,5.254,5.254,0,0,1,.023.726c0,8.009-.011,16.017.017,24.026,0,.876-.175,1.073-1.043.791C735.734,49.225,734.666,49.076,733.623,48.85Z" transform="translate(-170.719 -9.186)" fill="#c1cbd0"/>
    <path id="Trazado_163924" data-name="Trazado 163924" d="M520.039,45.237l12.849-12.85V36.68c0,2.184.009,4.369,0,6.553-.008,1.438-.583,2.023-2.009,2.027-3.467.011-6.934,0-10.4,0C520.314,45.262,520.154,45.244,520.039,45.237Z" transform="translate(-16.558 -16.404)" fill="#ffef0f"/>
    <path id="Trazado_163925" data-name="Trazado 163925" d="M819.044,339.091a3.252,3.252,0,0,1-1.564-.961q-4.064-4.072-8.143-8.128c-.386-.382-.514-.61-.043-1.041,1.044-.955,2.03-1.972,3.039-2.964,1.9,1.863,3.81,3.716,5.7,5.592C820.519,334.06,820.779,336.053,819.044,339.091Z" transform="translate(-225.118 -228.325)" fill="#4e2e8e"/>
    <path id="Trazado_163926" data-name="Trazado 163926" d="M827.715,336.216c1.735-3.038,1.475-5.03-1.013-7.5-1.888-1.875-3.8-3.728-5.7-5.592,1.361-1.467,1.361-1.467,2.768-.06q3.595,3.593,7.188,7.187a3.447,3.447,0,0,1-3.245,5.967Z" transform="translate(-233.789 -225.45)" fill="#4e2e8e"/>
    <path id="Trazado_163927" data-name="Trazado 163927" d="M795.822,305.187a2.264,2.264,0,0,1,.3.206q1.322,1.314,2.637,2.633c.19.19.15.359-.024.528-.049.048-.1.1-.143.149-1.868,2.158-1.868,2.158-3.9.125-1.222-1.222-1.219-1.219,0-2.451C795.083,305.99,795.448,305.585,795.822,305.187Z" transform="translate(-214.139 -213.305)" fill="#6a7a80"/>
    <path id="Trazado_163928" data-name="Trazado 163928" d="M514.273,310.608l.266.108Z" transform="translate(-12.397 -217.218)" fill="#c3cdd2"/>
    <path id="Trazado_163929" data-name="Trazado 163929" d="M615.958,94.809q-8.064,0-16.128,0c-1.618,0-2.548-1.168-1.974-2.452a1.808,1.808,0,0,1,1.845-1.078c1.7.012,3.4,0,5.1,0q13.682,0,27.365-.006a2.024,2.024,0,0,1,1.975.871A1.747,1.747,0,0,1,632.5,94.8c-2.67.033-5.341.01-8.012.011Z" transform="translate(-72.602 -58.907)" fill="#080808"/>
    <path id="Trazado_163930" data-name="Trazado 163930" d="M616.083,63.392q-8.168,0-16.335,0c-1.534,0-2.424-1.182-1.881-2.44a1.763,1.763,0,0,1,1.428-1.066,3.746,3.746,0,0,1,.623-.019q16.127,0,32.254,0a3.944,3.944,0,0,1,.828.045,1.755,1.755,0,0,1-.167,3.469,6.727,6.727,0,0,1-.831.014Z" transform="translate(-72.617 -36.233)" fill="#080808"/>
    <path id="Trazado_163931" data-name="Trazado 163931" d="M542.587,122.694c3.988,0,7.976-.007,11.965,0,1.353,0,2.107.756,2,1.943-.086,1-.821,1.578-2.062,1.581-3.225.008-6.45,0-9.676,0q-6.971,0-13.942.006a2.155,2.155,0,0,1-1.794-.621,1.609,1.609,0,0,1-.3-1.831,1.821,1.821,0,0,1,1.84-1.088Q536.6,122.7,542.587,122.694Z" transform="translate(-22.752 -81.583)" fill="#080808"/>
    <path id="Trazado_163932" data-name="Trazado 163932" d="M539.206,157.657c-2.772,0-5.545,0-8.318,0-1.39,0-2.2-.677-2.2-1.788s.8-1.738,2.227-1.739q8.266,0,16.531,0c1.37,0,2.239.7,2.224,1.769s-.871,1.755-2.256,1.758C544.682,157.661,541.944,157.657,539.206,157.657Z" transform="translate(-22.805 -104.273)" fill="#080808"/>
    <path id="Trazado_163933" data-name="Trazado 163933" d="M537.4,279.789c2.252,0,4.5-.006,6.755,0a1.767,1.767,0,1,1,.081,3.509q-6.807.041-13.614,0a1.776,1.776,0,0,1-1.939-1.839,1.73,1.73,0,0,1,1.961-1.671C532.9,279.782,535.153,279.789,537.4,279.789Z" transform="translate(-22.8 -194.972)" fill="#0b0b0b"/>
    <path id="Trazado_163934" data-name="Trazado 163934" d="M537.465,185.54c2.217,0,4.434-.006,6.651,0a1.816,1.816,0,0,1,2.053,1.715c.022,1.055-.816,1.8-2.087,1.8q-6.651.015-13.3,0c-1.3,0-2.1-.709-2.089-1.788s.779-1.729,2.122-1.733C533.031,185.536,535.248,185.54,537.465,185.54Z" transform="translate(-22.804 -126.945)" fill="#09090a"/>
    <path id="Trazado_163935" data-name="Trazado 163935" d="M536.6,248.363c1.942,0,3.883-.009,5.825,0a1.767,1.767,0,1,1,.041,3.512q-5.929.033-11.857,0a1.77,1.77,0,0,1-1.921-1.854c.045-1.022.781-1.652,1.983-1.658C532.645,248.355,534.622,248.363,536.6,248.363Z" transform="translate(-22.798 -172.288)" fill="#0b0b0b"/>
    <path id="Trazado_163936" data-name="Trazado 163936" d="M536.578,216.965c1.941,0,3.883-.006,5.825,0a1.768,1.768,0,1,1,.091,3.513q-5.928.036-11.857,0a1.781,1.781,0,0,1-1.945-1.831,1.743,1.743,0,0,1,1.958-1.683C532.625,216.957,534.6,216.965,536.578,216.965Z" transform="translate(-22.802 -149.626)" fill="#09090a"/>
    <path id="Trazado_163937" data-name="Trazado 163937" d="M677.159,159.057c.216,1.25.459,2.5.644,3.75a23.137,23.137,0,0,1-.977,10.718,1.048,1.048,0,0,0-.082.7c-.222.119-.217.329-.218.537l.009-.017c-.255.138-.2.43-.323.637l-.152.356a24.515,24.515,0,1,1-.206-19.957c.1.22.206.438.309.657Zm-17.932,26.966a1.866,1.866,0,0,0,1-.2c8.113-2.976,12.99-8.751,14.1-17.278,1.018-7.8-1.826-14.286-8-19.205a16.972,16.972,0,0,0-7.305-3.527,17.525,17.525,0,0,0-8.709-.568,20.954,20.954,0,0,0,3.221,41.656A13.632,13.632,0,0,0,659.227,186.023Z" transform="translate(-95.294 -95.138)" fill="#06080a"/>
    <path id="Trazado_163938" data-name="Trazado 163938" d="M799.188,197.887l-1-2.619.221.008A4.947,4.947,0,0,1,799.188,197.887Z" transform="translate(-217.323 -133.968)" fill="#6a7a80"/>
    <path id="Trazado_163939" data-name="Trazado 163939" d="M798.37,261.706c.118-.207.068-.5.323-.637C798.7,261.341,798.75,261.632,798.37,261.706Z" transform="translate(-217.452 -181.462)" fill="#8b8b8b"/>
    <path id="Trazado_163940" data-name="Trazado 163940" d="M799.5,259.736c0-.208,0-.418.218-.537C799.715,259.407,799.738,259.624,799.5,259.736Z" transform="translate(-218.267 -180.112)" fill="#8b8b8b"/>
    <path id="Trazado_163941" data-name="Trazado 163941" d="M668.248,195.064a13.631,13.631,0,0,1-5.689.882,20.954,20.954,0,0,1-3.222-41.656,17.523,17.523,0,0,1,8.709.568c.371.25.731.52,1.115.748a21.494,21.494,0,0,1,7.343,7.184,22.214,22.214,0,0,1,3.472,14.218,22.679,22.679,0,0,1-5.91,13.411A28.652,28.652,0,0,1,668.248,195.064Zm-3.918-35.623a1.729,1.729,0,0,0-1.7-1.873,12.3,12.3,0,0,0-2.686.2,16.8,16.8,0,0,0-9.623,4.911,1.563,1.563,0,0,0-.469,1.7,1.715,1.715,0,0,0,1.427,1.21,1.884,1.884,0,0,0,1.655-.677,14.176,14.176,0,0,1,6.173-3.474,27.029,27.029,0,0,1,3.7-.473A1.658,1.658,0,0,0,664.33,159.442Z" transform="translate(-104.316 -104.18)" fill="#fff"/>
    <path id="Trazado_163942" data-name="Trazado 163942" d="M736.8,197.3a28.651,28.651,0,0,0,5.818-4.645,22.678,22.678,0,0,0,5.91-13.411,22.214,22.214,0,0,0-3.472-14.218,21.5,21.5,0,0,0-7.343-7.184c-.384-.228-.744-.5-1.115-.748a16.971,16.971,0,0,1,7.305,3.527c6.175,4.919,9.018,11.408,8,19.205-1.113,8.527-5.99,14.3-14.1,17.278A1.866,1.866,0,0,1,736.8,197.3Z" transform="translate(-172.863 -106.415)" fill="#4e2e8e"/>
    <path id="Trazado_163943" data-name="Trazado 163943" d="M685.437,168.669a1.658,1.658,0,0,1-1.53,1.524,27.029,27.029,0,0,0-3.7.473,14.176,14.176,0,0,0-6.173,3.474,1.884,1.884,0,0,1-1.655.677,1.715,1.715,0,0,1-1.427-1.21,1.564,1.564,0,0,1,.469-1.7A16.8,16.8,0,0,1,681.049,167a12.3,12.3,0,0,1,2.686-.2A1.729,1.729,0,0,1,685.437,168.669Z" transform="translate(-125.422 -113.407)" fill="#f2f2f2"/>
  </g>
</svg>
